<svg xmlns="http://www.w3.org/2000/svg" xmlns:xlink="http://www.w3.org/1999/xlink" width="312" height="400" viewBox="0 0 312 400">
  <defs>
    <clipPath id="clip-path">
      <path d="M249,251.2c-19.739,6.5-43.145,20.279-69.617,41.016-33.666,26.372-58.874,34.973-74.929,25.563C83.385,305.429,82.89,264.663,84.4,241.889c5.324,3.435,10.8,6.654,16.2,9.5,8.911,4.7,27.611,13.555,41.988,13.554,4.583,0,8.729-.9,11.975-3.122.673-.46,1.337-.908,2-1.36a14.47,14.47,0,0,0,2.634,1.628,16.277,16.277,0,0,0,7.053,1.479c3.982,0,8.531-1.142,13.772-3.15.406.044.812.086,1.219.123a21.463,21.463,0,0,0,5.3,3.881,16.834,16.834,0,0,0,7.689,1.844c5.042,0,10.517-2.16,16.36-6.465l-.959-1.3a93.706,93.706,0,0,0,18.8-6.6A130.591,130.591,0,0,1,249,244.021v-2.589a119.456,119.456,0,0,0-13.383,4.644,72.609,72.609,0,0,1-35.286,4.727c1.857-.972,3.765-1.98,5.746-3.032,16.038-8.519,30.516-13.815,42.923-16.6v-2.163c-12.164,2.669-26.763,7.911-43.862,16.993q-4.379,2.325-8.34,4.376a100.508,100.508,0,0,1-17.707-4.216c30.352-17.922,53.464-25.809,69.909-28.192v-2.1a110.085,110.085,0,0,0-11.623,2.326c-17.886,4.537-38.258,13.624-60.784,27.1q-1.558-.561-3.087-1.164a127.633,127.633,0,0,1-6.994-26.514A78.122,78.122,0,0,0,179.4,212.8c5.592,4.366,10.431,8.087,14.294,6.2,3.083-1.5,4.725-6.328,5.174-15.37,8.8-.5,16.834,1.1,23.518,2.434,7.714,1.545,13.286,2.658,16.605-.063a7.22,7.22,0,0,0,2.326-4H243v-8h-6v8h2.251a4.97,4.97,0,0,1-1.529,2.45c-2.585,2.12-8.039,1.029-14.945-.352-6.259-1.252-13.668-2.724-21.777-2.588V194h-6v7.975c-1.312.16-2.649.368-3.987.634.079-.181.181-.425.251-.609H193v-8h-6v8h2.093a12.722,12.722,0,0,1-.665,1.205,53.15,53.15,0,0,0-12.089,4.734,48.165,48.165,0,0,0-4.448-2.933,25.732,25.732,0,0,0,.592-3.006H175v-8h-6v8h1.453c-.106.7-.234,1.368-.4,2.043a14.475,14.475,0,0,0-5.241-1.484c-.011-.2-.029-.367-.039-.559H167v-8h-6v8h1.783c.012.206.014.4.028.621a8.355,8.355,0,0,0-1.989.546c-4.285,1.731-7.5,6.923-9.735,15.9-5.056.91-9.815,1.564-13.692,2.02-5.053-5.051-8.751-10.155-10.736-14.85,7.1,1.307,13.071,1.883,16.523-.948A7.135,7.135,0,0,0,145.4,202H147v-8h-6v8h2.249a4.977,4.977,0,0,1-1.336,1.743c-2.965,2.435-9.131,1.6-16.041.309-.21-.7-.411-1.381-.545-2.052H127v-8h-6v8h2.287c.1.534.229,1.078.377,1.626l-1.241-.246c-1.839-.366-3.727-.774-5.62-1.083-.014-.1-.024-.2-.038-.3H119v-8h-6v7.682q-1-.144-2-.263V194h-6v7.025c-5.222-.015-10.047.988-13.778,4.05-4.848,3.978-7.211,10.8-7.222,20.85-.1.66-.792,5.41-1.366,12.448a196.852,196.852,0,0,1-18.211-13.634q.542-.309,1.083-.627C77.637,216.988,84.661,209.567,86.5,202H89v-8H83v8h1.435c-2.412,8.672-12.236,16.059-21.64,21.34-9.116-7.957-15.642-15.571-17.907-21.34H47v-8H41v8h1.751c2.187,6.336,9,14.291,18.188,22.359a131.766,131.766,0,0,1-17.263,7.695l.646,1.892a132.563,132.563,0,0,0,18.249-8.174A203.914,203.914,0,0,0,82.46,240.624a218.982,218.982,0,0,0-.442,25.023c1.234,28.125,8.442,46.245,21.424,53.854a29.9,29.9,0,0,0,15.413,3.947c15.876,0,36.56-9.92,61.761-29.661,29.855-23.386,52.1-35.137,68.384-40.574Zm-96.178,1.49q3.525,1.712,7.192,3.068c-1.094.723-2.2,1.469-3.3,2.211A20.093,20.093,0,0,1,152.822,252.687Zm7.233,7.6a12.372,12.372,0,0,1-1.726-1.007q2.046-1.371,4.053-2.686a82.58,82.58,0,0,0,13.211,3.241C169.207,261.853,164.116,262.2,160.055,260.283Zm27.391,2.358a17.664,17.664,0,0,1-2.876-1.852,88.964,88.964,0,0,0,24.08-2.059C200.656,264.386,193.524,265.712,187.446,262.641Zm9.733-10.2a80.107,80.107,0,0,0,26.793-.736,88.66,88.66,0,0,1-39.88,7.051C188.067,257.03,192.41,254.9,197.179,252.441Zm-20.348-4.934a104.853,104.853,0,0,0,16.941,4.42c-4.547,2.3-8.672,4.251-12.422,5.79a41.965,41.965,0,0,1-5.963-9.336C175.869,248.089,176.353,247.793,176.831,247.507Zm-3.194,1.936a44.565,44.565,0,0,0,5.59,8.882,81.22,81.22,0,0,1-14.7-3.136Q169.181,252.173,173.637,249.443Zm-.853-1.824q-5.262,3.228-10.677,6.769a78.174,78.174,0,0,1-10.664-4.64,66.428,66.428,0,0,1-3.464-11.949,21.8,21.8,0,0,0-3.2-7.605q2.886,2.234,6.072,4.367a116.668,116.668,0,0,0,21.083,11.1Q172.348,246.656,172.784,247.619Zm-24.033.648-.159-.088a66.675,66.675,0,0,1-21.668-19.919c1.807-.069,3.716-.181,5.691-.356,2.442-.215,4.769-.508,7-.863a22.413,22.413,0,0,1,6.406,11.16A74.733,74.733,0,0,0,148.751,248.267Zm40.9-43.305a51.641,51.641,0,0,1,7.2-1.185c-.421,7.807-1.774,12.316-4.039,13.42-2.618,1.279-6.881-1.846-11.471-5.418A24.023,24.023,0,0,0,189.652,204.962Zm-3.494.972a28.694,28.694,0,0,1-6.523,4.511c-.51-.4-1.022-.795-1.541-1.191A51.306,51.306,0,0,1,186.158,205.934Zm-8.511,5.5a70.7,70.7,0,0,1-7.814,3.057,59.018,59.018,0,0,1,6.336-4.185Q176.913,210.867,177.647,211.435Zm-6.376-4.467c1.031.605,2.1,1.32,3.135,2.05a62.232,62.232,0,0,0-6.9,4.692A23.228,23.228,0,0,0,171.271,206.968Zm-1.777-.962a21.459,21.459,0,0,1-3.71,6.655c-.345-2.92-.649-5.681-.831-8.093A13.128,13.128,0,0,1,169.494,206.006Zm-7.924-.984a6.317,6.317,0,0,1,1.385-.391c.222,2.777.533,6.175,1.127,9.893-.239.236-.482.471-.734.7-.667.605-1.381,1.166-2.115,1.709-.649.159-1.3.314-1.937.462-2.019.465-4.042.886-6.033,1.268C155.282,210.991,158.118,206.413,161.57,205.022Zm-8.856,15.811q1.447-.272,2.918-.571-1.507.72-3.093,1.336C152.6,221.341,152.654,221.083,152.714,220.833Zm-.673,3.116a41.885,41.885,0,0,0,8.9-4.363,94.706,94.706,0,0,0-7.732,8.8l1.579,1.228a87.807,87.807,0,0,1,9.934-10.867,131.445,131.445,0,0,0,6.191,24.331A114.588,114.588,0,0,1,151.963,232.9a104.6,104.6,0,0,1-8.741-6.51,67.4,67.4,0,0,0,6.637-1.7c-.305,1.635-.589,3.352-.849,5.173l1.979.284C151.305,227.93,151.659,225.877,152.041,223.949Zm-1.47-2.727q-.13.579-.256,1.176a66.838,66.838,0,0,1-9.06,2.3q-1.019-.9-1.983-1.8C142.612,222.49,146.478,221.941,150.571,221.222ZM128.063,224c.511-.032,3.275-.218,7.382-.657q1.2.938,2.314,1.931a108.979,108.979,0,0,1-12.127,1.011,61.331,61.331,0,0,1-6.289-13.262q1.8,1.1,3.706,2.223c3.317,1.972,6.779,4.038,10,6.318-3.132.311-5.056.437-5.11.44Zm-6.031-18.657c.789.157,1.565.31,2.333.461a44.181,44.181,0,0,0,8.189,12.987c-2.785-1.869-5.683-3.6-8.483-5.264-1.958-1.163-3.886-2.283-5.649-3.4-.524-1.876-.939-3.8-1.286-5.735C118.78,204.691,120.431,205.022,122.032,205.341Zm-6.982-1.313c.251,1.5.521,2.95.874,4.414a26.855,26.855,0,0,1-5.841-5.116C111.725,203.5,113.388,203.749,115.05,204.028ZM85.988,226.153,86,226c0-9.456,2.123-15.795,6.49-19.379,3.86-3.167,9.213-3.867,15-3.513,1.824,3.027,5.178,5.66,9.248,8.286a63.228,63.228,0,0,0,6.564,14.938c-5.976.065-10.089-.315-10.208-.327L112.9,228c.057.006,3.746.358,9.219.358.78,0,1.6-.008,2.444-.024a68.445,68.445,0,0,0,23.022,21.578q1.149.671,2.32,1.3a25.3,25.3,0,0,0,5.107,7.907c-.528.358-1.049.7-1.579,1.064-8.826,6.034-27.741,2.192-51.9-10.551-5.85-3.086-11.56-6.463-16.976-9.984C85.163,231.642,85.957,226.349,85.988,226.153Z" fill="none"/>
    </clipPath>
    <linearGradient id="Unbenannter_Verlauf_62" data-name="Unbenannter Verlauf 62" x1="-996" y1="4226.4" x2="-996" y2="4164.056" gradientTransform="translate(1137.999 -3970)" gradientUnits="userSpaceOnUse">
      <stop offset="0" stop-color="#e52e3d"/>
      <stop offset="1" stop-color="#e52e3d" stop-opacity="0"/>
    </linearGradient>
    <linearGradient id="Unbenannter_Verlauf_62-2" x1="6566" y1="3424.25" x2="6566" y2="3278.132" gradientTransform="translate(-6421 -3068)" xlink:href="#Unbenannter_Verlauf_62"/>
    <linearGradient id="Unbenannter_Verlauf_17" data-name="Unbenannter Verlauf 17" x1="190.815" y1="133.039" x2="190.815" y2="139.7" gradientUnits="userSpaceOnUse">
      <stop offset="0" stop-color="#333"/>
      <stop offset="1" stop-color="#222"/>
    </linearGradient>
    <clipPath id="clip-path-2">
      <rect x="57.369" y="91.386" width="127.261" height="89.878" fill="#674dff"/>
    </clipPath>
    <linearGradient id="Unbenannter_Verlauf_85" data-name="Unbenannter Verlauf 85" x1="121" y1="181.085" x2="121" y2="161.315" gradientUnits="userSpaceOnUse">
      <stop offset="0" stop-color="#222"/>
      <stop offset="1" stop-color="#222" stop-opacity="0"/>
    </linearGradient>
    <radialGradient id="Unbenannter_Verlauf_40" data-name="Unbenannter Verlauf 40" cx="139.875" cy="128.307" r="31.309" gradientUnits="userSpaceOnUse">
      <stop offset="0" stop-color="#fafafa"/>
      <stop offset="1" stop-color="#838486"/>
    </radialGradient>
    <linearGradient id="Unbenannter_Verlauf_62-3" x1="142" y1="187.725" x2="142" y2="99.08" gradientTransform="matrix(1, 0, 0, 1, 0, 0)" xlink:href="#Unbenannter_Verlauf_62"/>
    <linearGradient id="Unbenannter_Verlauf_11" data-name="Unbenannter Verlauf 11" x1="224.498" y1="175.09" x2="224.498" y2="187.981" gradientUnits="userSpaceOnUse">
      <stop offset="0" stop-color="#e52e3d" stop-opacity="0"/>
      <stop offset="0.5" stop-color="#fff"/>
      <stop offset="1" stop-color="#e52e3d" stop-opacity="0"/>
    </linearGradient>
    <linearGradient id="Unbenannter_Verlauf_11-2" x1="4827" y1="-1326.411" x2="4827" y2="-1313.521" gradientTransform="translate(-4602.502 1501.502)" xlink:href="#Unbenannter_Verlauf_11"/>
    <linearGradient id="Unbenannter_Verlauf_11-3" x1="45.498" y1="167.09" x2="45.498" y2="179.981" xlink:href="#Unbenannter_Verlauf_11"/>
    <linearGradient id="Unbenannter_Verlauf_11-4" x1="4835" y1="-1505.411" x2="4835" y2="-1492.521" gradientTransform="translate(-4789.502 1672.502)" xlink:href="#Unbenannter_Verlauf_11"/>
    <linearGradient id="Unbenannter_Verlauf_11-5" x1="65.498" y1="154.09" x2="65.498" y2="166.981" xlink:href="#Unbenannter_Verlauf_11"/>
    <linearGradient id="Unbenannter_Verlauf_11-6" x1="4848" y1="-1485.411" x2="4848" y2="-1472.521" gradientTransform="translate(-4782.502 1639.502)" xlink:href="#Unbenannter_Verlauf_11"/>
    <linearGradient id="Unbenannter_Verlauf_11-7" x1="106.498" y1="175.09" x2="106.498" y2="187.981" xlink:href="#Unbenannter_Verlauf_11"/>
    <linearGradient id="Unbenannter_Verlauf_11-8" x1="4827" y1="-1444.411" x2="4827" y2="-1431.521" gradientTransform="translate(-4720.502 1619.502)" xlink:href="#Unbenannter_Verlauf_11"/>
    <linearGradient id="Unbenannter_Verlauf_11-9" x1="192.498" y1="167.09" x2="192.498" y2="179.981" xlink:href="#Unbenannter_Verlauf_11"/>
    <linearGradient id="Unbenannter_Verlauf_11-10" x1="4835" y1="-1358.411" x2="4835" y2="-1345.521" gradientTransform="translate(-4642.502 1525.502)" xlink:href="#Unbenannter_Verlauf_11"/>
    <linearGradient id="Unbenannter_Verlauf_4" data-name="Unbenannter Verlauf 4" x1="11" y1="189" x2="279" y2="189" gradientUnits="userSpaceOnUse">
      <stop offset="0" stop-color="#e52e3d" stop-opacity="0"/>
      <stop offset="0.5" stop-color="#e52e3d"/>
      <stop offset="1" stop-color="#e52e3d" stop-opacity="0"/>
    </linearGradient>
    <linearGradient id="Unbenannter_Verlauf_11-11" x1="79.498" y1="181.09" x2="79.498" y2="193.981" xlink:href="#Unbenannter_Verlauf_11"/>
    <linearGradient id="Unbenannter_Verlauf_11-12" x1="4821" y1="-1471.411" x2="4821" y2="-1458.521" gradientTransform="translate(-4741.502 1652.502)" xlink:href="#Unbenannter_Verlauf_11"/>
    <linearGradient id="Unbenannter_Verlauf_11-13" x1="254.498" y1="160.09" x2="254.498" y2="172.981" xlink:href="#Unbenannter_Verlauf_11"/>
    <linearGradient id="Unbenannter_Verlauf_11-14" x1="4842" y1="-1296.411" x2="4842" y2="-1283.521" gradientTransform="translate(-4587.502 1456.502)" xlink:href="#Unbenannter_Verlauf_11"/>
    <linearGradient id="Unbenannter_Verlauf_11-15" x1="157.5" y1="169.174" x2="157.5" y2="193.964" xlink:href="#Unbenannter_Verlauf_11"/>
    <linearGradient id="Unbenannter_Verlauf_11-16" x1="4827" y1="-1399.326" x2="4827" y2="-1374.536" gradientTransform="translate(-4669.5 1568.5)" xlink:href="#Unbenannter_Verlauf_11"/>
    <linearGradient id="Unbenannter_Verlauf_62-4" x1="145" y1="252" x2="145" y2="272.071" gradientTransform="matrix(1, 0, 0, 1, 0, 0)" xlink:href="#Unbenannter_Verlauf_62"/>
    <linearGradient id="Unbenannter_Verlauf_19" data-name="Unbenannter Verlauf 19" x1="129.996" y1="339.833" x2="129.996" y2="380.262" gradientUnits="userSpaceOnUse">
      <stop offset="0" stop-color="#e52e3d"/>
      <stop offset="1" stop-color="#333b66"/>
    </linearGradient>
  </defs>
  <g style="isolation: isolate">
    <g>
      <g>
        <path d="M234,319c48.38-15.952,74,14,38,16" fill="none" stroke="#e55c6d" stroke-miterlimit="10" stroke-width="2"/>
        <path d="M184,293c74.714-20.286,146,24,88,32" fill="none" stroke="#ddd" stroke-miterlimit="10" stroke-width="2"/>
        <path d="M66,261c0,50,80.261,67.189,124,46,101.047-48.952,148-2,82,8" fill="none" stroke="#5ce5e5" stroke-miterlimit="10" stroke-width="2"/>
        <path d="M148,295c127.547-65.452,218-8,124,10" fill="none" stroke="#2970ff" stroke-miterlimit="10" stroke-width="2"/>
        <path d="M210,259c81.047-22.952,125.547,28.048,62,36" fill="none" stroke="#3abd57" stroke-miterlimit="10" stroke-width="2"/>
        <path d="M145,198c0,26-60-22-60,28,0,0-26.4,159.188,95,67,137.547-104.452,141.445-5.867,92-8" fill="none" stroke="#4d4dff" stroke-miterlimit="10" stroke-width="2"/>
        <path d="M107,198c0,14,35.747,19.289,40,40,7.171,34.926,22.608,25.934,58.608,8.887,104.75-49.6,118.439,6.661,66.392,8.113" fill="none" stroke="#e52e3d" stroke-miterlimit="10" stroke-width="2"/>
        <path d="M124,199c0,24,65.7,75.136,112,48,63.047-36.952,109.047,27.048,36,28" fill="none" stroke="#222" stroke-miterlimit="10" stroke-width="2"/>
        <rect x="105" y="194" width="6" height="8" fill="#e52e3d"/>
        <path d="M240.75,198c0,27-44.75-23-86.75,31" fill="none" stroke="#e55c6d" stroke-miterlimit="10" stroke-width="2"/>
        <path d="M191,198c0,21-63,25-63,25" fill="none" stroke="#5ce5e5" stroke-miterlimit="10" stroke-width="2"/>
        <rect x="187" y="194" width="6" height="8" fill="#5ce5e5"/>
        <rect x="237" y="194" width="6" height="8" fill="#e55c6d"/>
        <path d="M43,198c0,21.667,86.713,79.617,111,63,114-78,146-32,118-26" fill="none" stroke="#2970ff" stroke-miterlimit="10" stroke-width="2"/>
        <rect x="121" y="194" width="6" height="8" fill="#222"/>
        <rect x="83" y="194" width="6" height="8" fill="#c6ba1a"/>
        <rect x="141" y="194" width="6" height="8" fill="#4d4dff"/>
        <rect x="161" y="194" width="6" height="8" fill="#3abd57"/>
        <rect x="113" y="194" width="6" height="8" fill="#ddd"/>
        <rect x="195" y="194" width="6" height="8" fill="#ddd"/>
        <rect x="169" y="194" width="6" height="8" fill="#2970ff"/>
        <rect x="41" y="194" width="6" height="8" fill="#2970ff"/>
        <path d="M198,198c0,60-38-38-48,32" fill="none" stroke="#ddd" stroke-miterlimit="10" stroke-width="2"/>
        <path d="M86,198c0,20.667-42,35-42,35" fill="none" stroke="#c6ba1a" stroke-miterlimit="10" stroke-width="2"/>
        <path d="M171.75,198c0,34.75-58.75,29-58.75,29" fill="none" stroke="#2970ff" stroke-miterlimit="10" stroke-width="2"/>
        <path d="M115.333,198C119,248,177.11,273.676,228,251c68.714-30.619,92.38,10.381,44,14" fill="none" stroke="#ddd" stroke-miterlimit="10" stroke-width="2"/>
        <path d="M163.666,198.333C163.666,213,172,287,210,259" fill="none" stroke="#3abd57" stroke-miterlimit="10" stroke-width="2"/>
        <g clip-path="url(#clip-path)">
          <rect x="29" y="194" width="226" height="64" transform="translate(283.999 452) rotate(180)" fill="url(#Unbenannter_Verlauf_62)" style="mix-blend-mode: hard-light"/>
        </g>
        <path d="M272,245c52.047-3.619-19.042-61.029-115.727,8.059C26.2,346.006-38.62,277.381,30,239" fill="none" stroke="#c6ba1a" stroke-miterlimit="10" stroke-width="2"/>
        <rect x="266" y="241" width="6" height="8" transform="translate(24 514) rotate(-90)" fill="#c6ba1a"/>
        <rect x="266" y="231" width="6" height="8" transform="translate(34 504) rotate(-90)" fill="#2970ff"/>
        <rect x="266" y="251" width="6" height="8" transform="translate(14 524) rotate(-90)" fill="#e52e3d"/>
        <rect x="266" y="261" width="6" height="8" transform="translate(4 534) rotate(-90)" fill="#ddd"/>
        <rect x="266" y="271" width="6" height="8" transform="translate(-6 544) rotate(-90)" fill="#222"/>
        <rect x="266" y="281" width="6" height="8" transform="translate(-16 554) rotate(-90)" fill="#4d4dff"/>
        <rect x="266" y="291" width="6" height="8" transform="translate(-26 564) rotate(-90)" fill="#3abd57"/>
        <rect x="266" y="301" width="6" height="8" transform="translate(-36 574) rotate(-90)" fill="#2970ff"/>
        <rect x="266" y="311" width="6" height="8" transform="translate(-46 584) rotate(-90)" fill="#5ce5e5"/>
        <rect x="266" y="321" width="6" height="8" transform="translate(-56 594) rotate(-90)" fill="#ddd"/>
        <rect x="266" y="331" width="6" height="8" transform="translate(-66 604) rotate(-90)" fill="#e55c6d"/>
        <rect x="29" y="66" width="32" height="124" rx="2" ry="2" fill="#2970ff"/>
        <rect x="33" y="78" width="24" height="14" fill="#2970ff" opacity="0.4" style="mix-blend-mode: multiply"/>
        <rect x="33" y="94" width="24" height="14" fill="#2970ff" opacity="0.4" style="mix-blend-mode: multiply"/>
        <rect x="125" width="40" height="190" rx="1.902" ry="1.902" fill="#4d4dff"/>
        <rect x="127" y="32" width="36" height="4" rx="2" ry="2" fill="#3939b2"/>
        <rect x="127" y="68" width="36" height="4" rx="2" ry="2" fill="#3939b2"/>
        <rect x="97" y="34" width="28" height="156" rx="2" ry="2" fill="#e52e3d"/>
        <rect x="227" y="90" width="28" height="100" rx="2" ry="2" fill="#4d4dff"/>
        <rect x="179" y="24" width="26" height="166" rx="2" ry="2" fill="#5ce5e5"/>
        <rect x="165" y="12" width="14" height="178" rx="1.957" ry="1.957" fill="#2970ff"/>
        <rect x="77" y="16" width="20" height="174" rx="2" ry="2" fill="#999"/>
        <rect x="81" y="30" width="12" height="54" fill="#c6ba1a"/>
        <rect x="109" y="50" width="4" height="14" fill="#fff" opacity="0.4"/>
        <rect x="109" y="68" width="4" height="16" fill="#fff" opacity="0.4"/>
        <rect x="25" y="210" width="240" height="150" rx="8" ry="8" fill="#2970ff"/>
        <rect x="47" y="326" width="196" height="16" rx="4" ry="4" fill="#fff" opacity="0.3"/>
        <rect x="53" y="332" width="184" height="4" fill="#e52e3d"/>
        <rect x="53" y="332" width="184" height="4" fill="#e52e3d" style="mix-blend-mode: hard-light"/>
        <circle cx="145" cy="272" r="20" fill="#a7c4ff"/>
        <circle cx="145" cy="272" r="14" fill="#d2e1ff"/>
        <rect x="148.899" y="261.101" width="12" height="2" transform="translate(-139.964 186.298) rotate(-45)" fill="#002bc5"/>
        <g opacity="0.3">
          <path d="M134.646,223.088h1.526L140.441,233h-2.015l-.924-2.268h-4.3l-.9,2.268h-1.974Zm2.24,6.132-1.527-4.032-1.553,4.032Z" fill="#fff"/>
          <path d="M142.947,223.088h3.332a6.691,6.691,0,0,1,1.379.14,3.391,3.391,0,0,1,1.169.469,2.407,2.407,0,0,1,.806.882,2.865,2.865,0,0,1,.3,1.379,3.076,3.076,0,0,1-.323,1.512,2.3,2.3,0,0,1-.868.889,3.625,3.625,0,0,1-1.266.427,9.892,9.892,0,0,1-1.5.112h-1.26V233h-1.765Zm2.828,4.3q.378,0,.785-.028a2.4,2.4,0,0,0,.749-.168,1.321,1.321,0,0,0,.559-.42,1.252,1.252,0,0,0,.218-.784,1.234,1.234,0,0,0-.2-.735,1.3,1.3,0,0,0-.5-.42,2.137,2.137,0,0,0-.687-.189,6.584,6.584,0,0,0-.727-.042h-1.26v2.786Z" fill="#fff"/>
          <path d="M155.071,223.088H156.6L160.867,233h-2.015l-.924-2.268h-4.3l-.9,2.268H150.76Zm2.241,6.132-1.527-4.032-1.554,4.032Z" fill="#fff"/>
        </g>
        <g opacity="0.3">
          <path d="M180.244,237.412a2.964,2.964,0,0,0-1.057-.784,2.849,2.849,0,0,0-1.029-.2,3.435,3.435,0,0,0-1.393.273,3.2,3.2,0,0,0-1.072.756,3.44,3.44,0,0,0-.692,1.127,3.852,3.852,0,0,0-.245,1.386,4.246,4.246,0,0,0,.245,1.47,3.459,3.459,0,0,0,.692,1.162,3.235,3.235,0,0,0,1.072.77,3.372,3.372,0,0,0,1.393.28,2.552,2.552,0,0,0,1.169-.287,3.19,3.19,0,0,0,1.057-.917l1.456,1.036a3.966,3.966,0,0,1-1.638,1.344,5.105,5.105,0,0,1-2.058.42,5.8,5.8,0,0,1-2.107-.371A4.723,4.723,0,0,1,173.3,242.2a5.494,5.494,0,0,1-.392-2.114,5.729,5.729,0,0,1,.392-2.163,4.852,4.852,0,0,1,1.085-1.659,4.75,4.75,0,0,1,1.652-1.057,5.8,5.8,0,0,1,2.107-.371,4.839,4.839,0,0,1,1.869.357,4.363,4.363,0,0,1,1.6,1.211Z" fill="#fff"/>
          <path d="M184.43,235.088h1.763v3.948h4.634v-3.948h1.765V245h-1.765v-4.368h-4.634V245H184.43Z" fill="#fff"/>
          <path d="M196.161,235.088h1.765V245h-1.765Z" fill="#fff"/>
          <path d="M208.3,237.412a2.964,2.964,0,0,0-1.057-.784,2.849,2.849,0,0,0-1.029-.2,3.432,3.432,0,0,0-1.393.273,3.184,3.184,0,0,0-1.071.756,3.426,3.426,0,0,0-.693,1.127,3.874,3.874,0,0,0-.245,1.386,4.27,4.27,0,0,0,.245,1.47,3.445,3.445,0,0,0,.693,1.162,3.221,3.221,0,0,0,1.071.77,3.368,3.368,0,0,0,1.393.28,2.552,2.552,0,0,0,1.169-.287,3.178,3.178,0,0,0,1.056-.917l1.457,1.036a3.966,3.966,0,0,1-1.638,1.344,5.105,5.105,0,0,1-2.058.42,5.8,5.8,0,0,1-2.107-.371,4.721,4.721,0,0,1-2.738-2.681,5.531,5.531,0,0,1-.391-2.114,5.769,5.769,0,0,1,.391-2.163,4.881,4.881,0,0,1,1.085-1.659,4.763,4.763,0,0,1,1.653-1.057,5.8,5.8,0,0,1,2.107-.371,4.831,4.831,0,0,1,1.869.357,4.363,4.363,0,0,1,1.6,1.211Z" fill="#fff"/>
          <path d="M215.691,235.088h1.527L221.487,245h-2.015l-.924-2.268h-4.3l-.9,2.268H211.38Zm2.241,6.132-1.527-4.032-1.553,4.032Z" fill="#fff"/>
          <path d="M232.8,244.272a8.565,8.565,0,0,1-4.1.98,5.791,5.791,0,0,1-2.106-.371,4.716,4.716,0,0,1-2.737-2.681,5.494,5.494,0,0,1-.392-2.114,5.729,5.729,0,0,1,.392-2.163,4.849,4.849,0,0,1,1.084-1.659,4.754,4.754,0,0,1,1.653-1.057,5.791,5.791,0,0,1,2.106-.371,8,8,0,0,1,2.128.273,4.38,4.38,0,0,1,1.779.973l-1.3,1.316a3.272,3.272,0,0,0-1.156-.714,4.086,4.086,0,0,0-1.434-.252,3.437,3.437,0,0,0-1.394.273,3.194,3.194,0,0,0-1.071.756,3.424,3.424,0,0,0-.692,1.127,3.852,3.852,0,0,0-.245,1.386,4.246,4.246,0,0,0,.245,1.47,3.443,3.443,0,0,0,.692,1.162,3.231,3.231,0,0,0,1.071.77,3.373,3.373,0,0,0,1.394.28,6.117,6.117,0,0,0,1.267-.126,3.6,3.6,0,0,0,1.056-.392V240.8h-2.029v-1.6H232.8Z" fill="#fff"/>
          <path d="M235.754,240.086a5.729,5.729,0,0,1,.392-2.163,4.849,4.849,0,0,1,1.084-1.659,4.754,4.754,0,0,1,1.653-1.057,5.791,5.791,0,0,1,2.106-.371,5.891,5.891,0,0,1,2.128.343,4.65,4.65,0,0,1,1.666,1.043,4.814,4.814,0,0,1,1.092,1.652,5.671,5.671,0,0,1,.393,2.156,5.487,5.487,0,0,1-.393,2.114,4.832,4.832,0,0,1-1.092,1.638,4.976,4.976,0,0,1-1.666,1.071,5.917,5.917,0,0,1-2.128.4,5.791,5.791,0,0,1-2.106-.371,4.716,4.716,0,0,1-2.737-2.681A5.494,5.494,0,0,1,235.754,240.086Zm1.848-.112a4.246,4.246,0,0,0,.245,1.47,3.443,3.443,0,0,0,.692,1.162,3.231,3.231,0,0,0,1.071.77,3.373,3.373,0,0,0,1.394.28,3.417,3.417,0,0,0,1.4-.28,3.2,3.2,0,0,0,1.078-.77,3.464,3.464,0,0,0,.694-1.162,4.27,4.27,0,0,0,.245-1.47,3.874,3.874,0,0,0-.245-1.386,3.445,3.445,0,0,0-.694-1.127,3.163,3.163,0,0,0-1.078-.756,3.481,3.481,0,0,0-1.4-.273,3.437,3.437,0,0,0-1.394.273,3.194,3.194,0,0,0-1.071.756,3.424,3.424,0,0,0-.692,1.127A3.852,3.852,0,0,0,237.6,239.974Z" fill="#fff"/>
        </g>
        <g opacity="0.3">
          <path d="M183.481,265.088h2.689l2.645,6.944,2.674-6.944h2.66V275H192.47v-8.232h-.029L189.432,275H188.2l-3.011-8.232h-.027V275h-1.681Z" fill="#fff"/>
          <path d="M197.8,265.088h1.763V273.4h4.214V275H197.8Z" fill="#fff"/>
          <path d="M209.676,265.088H211.2L215.472,275h-2.017l-.924-2.268h-4.3l-.9,2.268h-1.975Zm2.239,6.132-1.525-4.032-1.554,4.032Z" fill="#fff"/>
        </g>
        <path d="M41,360H73a0,0,0,0,1,0,0v6a2,2,0,0,1-2,2H43a2,2,0,0,1-2-2v-6A0,0,0,0,1,41,360Z" fill="#222"/>
        <path d="M217,360h32a0,0,0,0,1,0,0v6a2,2,0,0,1-2,2H219a2,2,0,0,1-2-2v-6A0,0,0,0,1,217,360Z" fill="#222"/>
        <g opacity="0.14" style="mix-blend-mode: screen">
          <circle cx="51" cy="254" r="8" fill="#50ff71"/>
        </g>
        <circle cx="51" cy="254" r="4" fill="#50ff71"/>
        <circle cx="51" cy="290" r="4" fill="#e52e3d" style="mix-blend-mode: multiply"/>
        <circle cx="51" cy="272" r="6" fill="#a7c4ff"/>
        <path d="M49,264v8a2,2,0,0,0,4,0v-8Z" fill="#d2e1ff"/>
        <circle cx="51" cy="264" r="2" fill="#a7c4ff"/>
        <rect x="103" y="302" width="12" height="2" fill="#fff" opacity="0.3"/>
        <rect x="128" y="302" width="12" height="2" fill="#fff" opacity="0.3"/>
        <rect x="155" y="302" width="8" height="2" fill="#fff" opacity="0.3"/>
        <rect x="180" y="302" width="8" height="2" fill="#fff" opacity="0.3"/>
        <rect x="96.998" y="308" width="99" height="8" fill="#d2e1ff"/>
        <rect x="120.998" y="308" width="1.002" height="8" fill="#a7c4ff"/>
        <rect x="147" y="308" width="24" height="8" fill="#a7c4ff"/>
        <rect x="145.998" y="308" width="1.002" height="8" fill="#a7c4ff" style="mix-blend-mode: multiply"/>
        <rect x="171" y="308" width="0.998" height="8" fill="#a7c4ff" style="mix-blend-mode: multiply"/>
        <path d="M172.9,270a27.853,27.853,0,0,0-7.466-17.1l4.256-4.257-1.414-1.414-4.26,4.262A27.844,27.844,0,0,0,147,244.1V238h-2v8a26.03,26.03,0,0,1,26,26h8v-2Z" fill="#fff" opacity="0.3"/>
        <rect x="5" y="190" width="280" height="4" rx="2" ry="2" fill="#2970ff"/>
        <g>
          <g>
            <rect x="149" y="52" width="96" height="138" rx="4" ry="4" fill="#ddd"/>
            <rect x="159.268" y="66.995" width="76" height="102" fill="#f6f6f6"/>
          </g>
          <rect x="167" y="160" width="24" height="2" fill="#bbb"/>
          <rect x="167" y="156" width="60" height="2" fill="#bbb"/>
          <rect x="167" y="152" width="60" height="2" fill="#bbb"/>
          <rect x="167" y="148" width="60" height="2" fill="#bbb"/>
          <rect x="167" y="144" width="46" height="2" fill="#bbb"/>
          <rect x="167" y="140" width="60" height="2" fill="#bbb"/>
          <rect x="167" y="136" width="60" height="2" fill="#bbb"/>
          <rect x="167" y="132" width="60" height="2" fill="#bbb"/>
          <rect x="167" y="128" width="60" height="2" fill="#bbb"/>
          <rect x="167" y="124" width="60" height="2" fill="#bbb"/>
          <rect x="167" y="120" width="60" height="2" fill="#bbb"/>
          <rect x="167" y="116" width="60" height="2" fill="#bbb"/>
          <rect x="167" y="112" width="60" height="2" fill="#bbb"/>
          <rect x="181" y="102" width="32" height="2" fill="#bbb"/>
        </g>
        <path d="M263,228h2a0,0,0,0,1,0,0V342a0,0,0,0,1,0,0h-2a6,6,0,0,1-6-6V234A6,6,0,0,1,263,228Z" fill="#002bc5"/>
        <circle cx="267" cy="80" r="2" fill="#eb5e8b"/>
        <circle cx="270.998" cy="166" r="2" fill="#eb5e8b"/>
        <circle cx="145" cy="44" r="2" fill="#e52e3d" style="mix-blend-mode: screen"/>
        <circle cx="38" cy="49" r="3" fill="#eb5e8b"/>
        <circle cx="61" cy="32" r="2" fill="#eb5e8b"/>
        <circle cx="288" cy="99" r="3" fill="#eb5e8b"/>
        <circle cx="278" cy="155" r="3" fill="#eb5e8b"/>
        <circle cx="245" cy="30" r="2" fill="#eb5e8b"/>
        <circle cx="12" cy="149" r="3" fill="#eb5e8b"/>
        <g opacity="0.3">
          <path d="M36.9,227.348v-.215c0-.456-.178-.488-.839-.488-.76,0-.891.126-.891.9v.87c.005.787.1.939.891.939.608,0,.881-.021.881-.582v-.215h.755v.257c.016,1.185-.661,1.143-1.636,1.185-1.384.052-1.631-.4-1.647-1.552v-.9c0-1.259.488-1.542,1.647-1.542.981,0,1.542,0,1.594,1.133v.215Z" fill="#fff"/>
          <path d="M40.016,229.965H39.26v-3.933h.756Z" fill="#fff"/>
          <path d="M43.33,229.965h-.755v-3.288H41.421v-.645h3.063v.645H43.33Z" fill="#fff"/>
          <path d="M46.587,227.657h1.84v.619h-1.84v1.044h1.956v.645H45.832v-3.933h2.7v.645h-1.94Z" fill="#fff"/>
          <path d="M50.127,226.032h1.741c1.054,0,1.4.251,1.4,1.352s-.372,1.306-1.4,1.306h-.986v1.275h-.755Zm1.741,2.013c.54-.01.645-.11.645-.661s-.079-.713-.645-.707h-.986v1.368Z" fill="#fff"/>
          <path d="M55.555,228.664v1.3H54.8v-3.933h2.008c.86.02,1.19.288,1.19,1.179,0,.583-.031,1.007-.7,1.107v.021c.535.047.666.335.666.891v.735h-.755v-.735c0-.33-.137-.561-.5-.566Zm1-.645c.556,0,.692-.11.692-.687,0-.556-.1-.655-.64-.655H55.555v1.342Z" fill="#fff"/>
          <path d="M62.86,227.437V228.5c0,1.259-.488,1.5-1.678,1.5-1.217,0-1.663-.21-1.663-1.5v-1.059c0-1.222.415-1.437,1.663-1.437C62.314,226,62.86,226.173,62.86,227.437Zm-2.585,0V228.5c0,.782.152.855.907.855.687,0,.923-.094.923-.855v-1.059c.015-.74-.252-.792-.923-.792C60.369,226.645,60.29,226.813,60.275,227.437Z" fill="#fff"/>
          <path d="M66.793,227.348v-.215c0-.456-.178-.488-.839-.488-.76,0-.891.126-.891.9v.87c0,.787.1.939.891.939.609,0,.881-.021.881-.582v-.215h.755v.257c.016,1.185-.66,1.143-1.636,1.185-1.384.052-1.631-.4-1.646-1.552v-.9c0-1.259.487-1.542,1.646-1.542.981,0,1.542,0,1.594,1.133v.215Z" fill="#fff"/>
        </g>
        <path d="M25,210H265a0,0,0,0,1,0,0V352a8,8,0,0,1-8,8H33a8,8,0,0,1-8-8V210A0,0,0,0,1,25,210Z" transform="translate(290 570) rotate(180)" opacity="0.6" fill="url(#Unbenannter_Verlauf_62-2)" style="mix-blend-mode: color"/>
        <circle cx="41" cy="120" r="2" fill="#e52e3d" style="mix-blend-mode: screen"/>
        <circle cx="248.998" cy="183" r="2" fill="#e52e3d" style="mix-blend-mode: screen"/>
        <g>
          <rect x="45" y="82.65" width="152" height="107.35" rx="5.964" ry="5.964" fill="#222"/>
          <path d="M194.164,136.325a3.349,3.349,0,1,1-3.349-3.349A3.348,3.348,0,0,1,194.164,136.325Z" fill="url(#Unbenannter_Verlauf_17)"/>
          <g>
            <rect x="57.369" y="91.386" width="127.261" height="89.878" fill="#674dff"/>
            <g clip-path="url(#clip-path-2)">
              <g>
                <g>
                  <line x1="82.538" y1="136.806" x2="109.312" y2="158.711" fill="none" stroke="#9280ff" stroke-linejoin="round" stroke-width="0.4"/>
                  <polyline points="87.558 97.885 87.558 116.444 112.481 99.296" fill="none" stroke="#9280ff" stroke-linejoin="round" stroke-width="0.4"/>
                  <polyline points="112.481 99.296 87.558 116.444 82.538 136.806" fill="none" stroke="#9280ff" stroke-linejoin="round" stroke-width="0.4"/>
                  <polygon points="55 86.699 50.592 111.249 72.954 102.516 55 86.699" fill="none" stroke="#9280ff" stroke-linejoin="round" stroke-width="0.4"/>
                  <polygon points="52.113 169.968 58 187 80.865 162.21 52.113 169.968" fill="none" stroke="#9280ff" stroke-linejoin="round" stroke-width="0.4"/>
                  <polygon points="189.632 164.34 184 186 161.293 167.078 189.632 164.34" fill="none" stroke="#9280ff" stroke-linejoin="round" stroke-width="0.4"/>
                  <polyline points="50.592 111.249 33.25 95.885 55 86.699 70.52 66.373 72.954 102.516 55 86.699" fill="none" stroke="#9280ff" stroke-linejoin="round" stroke-width="0.4"/>
                  <polygon points="55 86.699 46.485 67.97 70.52 66.373 55 86.699" fill="none" stroke="#9280ff" stroke-linejoin="round" stroke-width="0.4"/>
                  <polyline points="72.954 102.516 87.558 116.444 87.558 97.885" fill="none" stroke="#9280ff" stroke-linejoin="round" stroke-width="0.4"/>
                  <polyline points="87.558 97.885 70.52 66.373 72.954 102.516" fill="none" stroke="#9280ff" stroke-linejoin="round" stroke-width="0.4"/>
                  <polyline points="87.558 97.885 147.19 68.046 112.481 99.296" fill="none" stroke="#9280ff" stroke-linejoin="round" stroke-width="0.4"/>
                  <polygon points="82.538 136.806 50.592 111.249 72.954 102.516 87.558 116.444 82.538 136.806" fill="none" stroke="#9280ff" stroke-linejoin="round" stroke-width="0.4"/>
                  <polygon points="50.592 111.249 87.558 116.444 72.954 102.516 50.592 111.249" fill="none" stroke="#9280ff" stroke-linejoin="round" stroke-width="0.4"/>
                  <polyline points="112.481 99.296 161.293 167.078 109.312 158.711" fill="none" stroke="#9280ff" stroke-linejoin="round" stroke-width="0.4"/>
                  <polygon points="80.865 162.21 82.538 136.806 109.312 158.711 80.865 162.21" fill="none" stroke="#9280ff" stroke-linejoin="round" stroke-width="0.4"/>
                  <polyline points="50.592 111.249 82.538 136.806 80.865 162.21" fill="none" stroke="#9280ff" stroke-linejoin="round" stroke-width="0.4"/>
                  <polygon points="52.113 169.968 3.309 163.281 50.592 111.249 52.113 169.968" fill="none" stroke="#9280ff" stroke-linejoin="round" stroke-width="0.4"/>
                  <polygon points="52.113 169.968 47.448 187.158 58 187 52.113 169.968" fill="none" stroke="#9280ff" stroke-linejoin="round" stroke-width="0.4"/>
                  <polygon points="47.448 187.158 3.309 163.281 52.113 169.968 47.448 187.158" fill="none" stroke="#9280ff" stroke-linejoin="round" stroke-width="0.4"/>
                  <polygon points="47.448 187.158 49.477 206.173 27.711 194.207 47.448 187.158" fill="none" stroke="#9280ff" stroke-linejoin="round" stroke-width="0.4"/>
                  <polygon points="58 187 49.477 206.173 80.865 206.173 58 187" fill="none" stroke="#9280ff" stroke-linejoin="round" stroke-width="0.4"/>
                  <polygon points="80.865 162.21 112.76 209.419 109.312 158.711 80.865 162.21" fill="none" stroke="#9280ff" stroke-linejoin="round" stroke-width="0.4"/>
                  <polygon points="112.76 209.419 58 187 80.865 162.21 112.76 209.419" fill="none" stroke="#9280ff" stroke-linejoin="round" stroke-width="0.4"/>
                  <polygon points="161.293 167.078 112.76 209.419 109.312 158.711 161.293 167.078" fill="none" stroke="#9280ff" stroke-linejoin="round" stroke-width="0.4"/>
                  <polygon points="184 186 112.76 209.419 161.293 167.078 184 186" fill="none" stroke="#9280ff" stroke-linejoin="round" stroke-width="0.4"/>
                  <polygon points="184 186 202.13 194.089 189.632 164.34 184 186" fill="none" stroke="#9280ff" stroke-linejoin="round" stroke-width="0.4"/>
                  <polygon points="112.481 99.296 158.061 113.395 161.293 167.078 112.481 99.296" fill="none" stroke="#9280ff" stroke-linejoin="round" stroke-width="0.4"/>
                  <polygon points="161.293 167.078 194.703 121.391 158.061 113.395 161.293 167.078" fill="none" stroke="#9280ff" stroke-linejoin="round" stroke-width="0.4"/>
                  <polygon points="189.632 164.34 194.703 121.391 161.293 167.078 189.632 164.34" fill="none" stroke="#9280ff" stroke-linejoin="round" stroke-width="0.4"/>
                  <polygon points="189.632 164.34 234.255 108.409 194.703 121.391 189.632 164.34" fill="none" stroke="#9280ff" stroke-linejoin="round" stroke-width="0.4"/>
                  <polyline points="158.061 113.395 221.071 92.994 194.703 121.391" fill="none" stroke="#9280ff" stroke-linejoin="round" stroke-width="0.4"/>
                  <polygon points="147.19 68.046 158.061 113.395 112.481 99.296 147.19 68.046" fill="none" stroke="#9280ff" stroke-linejoin="round" stroke-width="0.4"/>
                  <polygon points="158.061 113.395 187.604 77.402 147.19 68.046 158.061 113.395" fill="none" stroke="#9280ff" stroke-linejoin="round" stroke-width="0.4"/>
                </g>
                <g>
                  <circle cx="109.312" cy="158.711" r="4.438" fill="#674dff"/>
                  <path d="M109.312,154.523a4.189,4.189,0,1,1-4.189,4.188,4.193,4.193,0,0,1,4.189-4.188m0-.5A4.689,4.689,0,1,0,114,158.711a4.688,4.688,0,0,0-4.688-4.688Z" fill="#9280ff"/>
                </g>
                <g>
                  <path d="M112.481,102.527a3.231,3.231,0,1,1,3.232-3.231A3.235,3.235,0,0,1,112.481,102.527Z" fill="#674dff"/>
                  <path d="M112.481,96.315A2.982,2.982,0,1,1,109.5,99.3a2.985,2.985,0,0,1,2.981-2.981m0-.5a3.482,3.482,0,1,0,3.482,3.481,3.482,3.482,0,0,0-3.482-3.481Z" fill="#9280ff"/>
                </g>
                <g>
                  <path d="M82.538,140.061a3.256,3.256,0,1,1,3.255-3.255A3.259,3.259,0,0,1,82.538,140.061Z" fill="#674dff"/>
                  <path d="M82.538,133.8a3.006,3.006,0,1,1-3.006,3.006,3.009,3.009,0,0,1,3.006-3.006m0-.5a3.506,3.506,0,1,0,3.506,3.506,3.506,3.506,0,0,0-3.506-3.506Z" fill="#9280ff"/>
                </g>
                <g>
                  <path d="M87.558,122.636a6.193,6.193,0,1,1,6.192-6.192A6.2,6.2,0,0,1,87.558,122.636Z" fill="#674dff"/>
                  <path d="M87.558,110.5a5.942,5.942,0,1,1-5.942,5.942,5.949,5.949,0,0,1,5.942-5.942m0-.5A6.442,6.442,0,1,0,94,116.444,6.442,6.442,0,0,0,87.558,110Z" fill="#9280ff"/>
                </g>
                <g>
                  <path d="M161.293,170.121a3.043,3.043,0,1,1,3.042-3.043A3.046,3.046,0,0,1,161.293,170.121Z" fill="#674dff"/>
                  <path d="M161.293,164.285a2.793,2.793,0,1,1-2.793,2.793,2.8,2.8,0,0,1,2.793-2.793m0-.5a3.293,3.293,0,1,0,3.292,3.293,3.293,3.293,0,0,0-3.292-3.293Z" fill="#9280ff"/>
                </g>
                <circle cx="158.061" cy="113.395" r="2.395" fill="#4d4dff"/>
                <g>
                  <circle cx="80.865" cy="162.21" r="1.96" fill="#674dff"/>
                  <path d="M80.865,160.5a1.71,1.71,0,1,1-1.71,1.71,1.712,1.712,0,0,1,1.71-1.71m0-.5a2.21,2.21,0,1,0,2.21,2.21,2.209,2.209,0,0,0-2.21-2.21Z" fill="#9280ff"/>
                </g>
                <g>
                  <circle cx="87.558" cy="97.885" r="1.96" fill="#674dff"/>
                  <path d="M87.558,96.175a1.71,1.71,0,1,1-1.71,1.71,1.712,1.712,0,0,1,1.71-1.71m0-.5a2.21,2.21,0,1,0,2.21,2.21,2.209,2.209,0,0,0-2.21-2.21Z" fill="#9280ff"/>
                </g>
                <g>
                  <path d="M72.954,104.476a1.96,1.96,0,1,1,1.961-1.96A1.963,1.963,0,0,1,72.954,104.476Z" fill="#674dff"/>
                  <path d="M72.954,100.805a1.711,1.711,0,1,1-1.71,1.711,1.713,1.713,0,0,1,1.71-1.711m0-.5a2.211,2.211,0,1,0,2.21,2.211,2.211,2.211,0,0,0-2.21-2.211Z" fill="#9280ff"/>
                </g>
              </g>
            </g>
          </g>
        </g>
        <rect x="87" y="127" width="19" height="2" fill="#5ce5e5"/>
        <rect x="87" y="130" width="14" height="1" fill="#5ce5e5"/>
        <rect x="57.369" y="161.264" width="127.261" height="20" fill="url(#Unbenannter_Verlauf_85)"/>
        <polygon points="69.33 176.5 65 174 65 179 69.33 176.5" fill="#fff"/>
        <polygon points="75.598 176.5 73 175 73 178 75.598 176.5" fill="#fff"/>
        <rect x="61" y="170" width="37" height="2" fill="#e52e3d"/>
        <rect x="98" y="170" width="83" height="2" fill="#858585"/>
        <circle cx="98" cy="171" r="2" fill="#e52e3d"/>
        <g>
          <path d="M161,99H129a6,6,0,0,0-6,6v79a6,6,0,0,0,6,6h32a6,6,0,0,0,6-6V105a6,6,0,0,0-6-6Z" fill="#222"/>
          <path d="M161,101a4,4,0,0,1,4,4v79a4,4,0,0,1-4,4H129a4,4,0,0,1-4-4V105a4,4,0,0,1,4-4h32" fill="#fff"/>
          <rect x="125" y="112" width="40" height="1" fill="#bbb" opacity="0.5"/>
          <path d="M134,100h22a0,0,0,0,1,0,0v2a2,2,0,0,1-2,2H136a2,2,0,0,1-2-2v-2A0,0,0,0,1,134,100Z" fill="#222"/>
          <rect x="126" y="106" width="38" height="4" rx="1" ry="1" fill="#e6e6e6"/>
          <rect x="127" y="107" width="22" height="2" fill="#ccc"/>
          <g>
            <polygon points="144.899 121.177 141.788 122.348 141.364 122.348 141.384 121.904 141.101 121.722 140.556 121.803 140.232 122.025 139.99 122.348 140.192 122.571 140.414 122.692 140.434 122.894 139.97 123.076 139.444 123.217 137.808 123.217 137.303 123.359 136.253 123.924 135.283 125.338 135.606 127.601 146.434 126.126 144.899 121.177" fill="#999"/>
            <path d="M154.613,120.376l-.34.094-.728-.849-.121-.363-.727-.728h-.364l-.969-.727-.849.121.606.485v.243l-.485.121-.363-.121-.364-.364-.364-.121-1.7.606-1.333.363h-.97l-.121-.363v-.243l-.889-.02-.363.323.06.182.3.243-.181.181-.728.283-.929.121.162.667.1.748h.383l.606-.566.263-.061.424.606-.02.364-.262.283-.829.02-.323.323.343,1.96-1.656.262-1.111.263-.263.222-.04.223.081.2.181.1-.02.323-.283.242-.464.182h-.728l-.262-.3v-.242l.384-.243v-.242l-.4-.263h-.788l-1.192.263-.4.06-.142-.222v-.97l.243-.666.464-.505.425.141.3.02.262-.161.162-.384-.02-.424-.3-.283-.182.1-.081.1-.2-.02-.141-.2v-.384l.121-.2.667-1.212.121-.223-.041-.222-.121-.121-.3.2-.162-.121V119.3l.445-.444.444.04.223-.1.262-.626-.081-.2-.3.1-.363.161-.142.182.081-.384-.263.061-1.131.869-.767.808-.485.666-.263.142-.1.3-.5.532a12,12,0,1,0,19.916-1.03Z" fill="url(#Unbenannter_Verlauf_40)"/>
            <rect x="149.04" y="129.5" width="1.939" height="1.939" transform="translate(-34.815 57.224) rotate(-19.397)" fill="#777" opacity="0.5"/>
            <rect x="149.861" y="134.293" width="1.063" height="1.939" transform="translate(11.063 -11.37) rotate(4.495)" fill="#777" opacity="0.5"/>
            <rect x="146.657" y="124.126" width="1.939" height="1.939" transform="translate(-33.166 56.127) rotate(-19.397)" fill="#777" opacity="0.5"/>
            <rect x="145.424" y="119.742" width="1.556" height="1.556" transform="translate(-35.438 66.602) rotate(-22.967)" fill="#777" opacity="0.5"/>
            <rect x="153.545" y="122.742" width="1.556" height="1.556" transform="translate(-35.965 70.009) rotate(-22.967)" fill="#777" opacity="0.5"/>
            <rect x="151.188" y="118.955" width="1.301" height="1.556" transform="translate(-41.146 107.575) rotate(-34.653)" fill="#777" opacity="0.5"/>
            <rect x="140.232" y="132.571" width="1.939" height="1.939" fill="#777" opacity="0.5"/>
            <rect x="142.076" y="136.959" width="1.708" height="1.708" transform="translate(-27.049 35.204) rotate(-12.838)" fill="#777" opacity="0.5"/>
            <rect x="155.39" y="127.171" width="0.957" height="1.708" fill="#777" opacity="0.5"/>
            <polygon points="154.91 133.9 154.91 132.192 155.867 132.192 154.91 133.9" fill="#777" opacity="0.5"/>
            <rect x="138.98" y="127.359" width="1.939" height="1.939" transform="translate(-13.048 15.874) rotate(-6.203)" fill="#777" opacity="0.5"/>
            <rect x="134.441" y="131.035" width="0.835" height="1.939" transform="translate(-27.514 35.843) rotate(-13.752)" fill="#777" opacity="0.5"/>
            <rect x="133.875" y="126.268" width="0.835" height="1.939" fill="#777" opacity="0.5"/>
            <rect x="134.966" y="121.975" width="0.835" height="1.312" transform="translate(79.454 -51.262) rotate(30)" fill="#777" opacity="0.5"/>
            <rect x="136.859" y="118.698" width="0.334" height="1.567" transform="matrix(0.866, 0.5, -0.5, 0.866, 78.099, -52.505)" fill="#777" opacity="0.5"/>
            <polygon points="151.303 137.561 150.727 137.364 149.045 138.242 149.091 138.455 151.303 137.561" fill="#777" opacity="0.5"/>
            <polygon points="144.652 139.106 145.53 139.061 145.955 139.439 144.727 139.318 144.652 139.106" fill="#777" opacity="0.5"/>
            <polygon points="136.727 135.712 138.485 137.273 138.379 137.485 136.576 135.879 136.727 135.712" fill="#777" opacity="0.5"/>
          </g>
          <rect x="131" y="142" width="28" height="2" fill="#222" opacity="0.5"/>
          <rect x="128" y="146" width="15" height="1" fill="#2970ff" opacity="0.5"/>
          <rect x="146" y="149" width="11" height="1" fill="#2970ff" opacity="0.5"/>
          <rect x="137" y="154" width="11" height="1" fill="#2970ff" opacity="0.5"/>
          <rect x="128" y="157" width="13" height="1" fill="#2970ff" opacity="0.5"/>
          <rect x="152" y="160" width="10" height="1" fill="#2970ff" opacity="0.5"/>
          <rect x="128" y="163" width="6" height="1" fill="#2970ff" opacity="0.5"/>
          <rect x="138" y="166" width="10" height="1" fill="#2970ff" opacity="0.5"/>
          <rect x="133" y="178" width="14" height="1" fill="#2970ff" opacity="0.5"/>
          <rect x="151" y="181" width="7" height="1" fill="#2970ff" opacity="0.5"/>
          <rect x="156" y="146" width="6" height="1" fill="#2970ff" opacity="0.5"/>
          <rect x="144" y="146" width="11" height="1" fill="#222" opacity="0.5"/>
          <rect x="128" y="154" width="8" height="1" fill="#222" opacity="0.3"/>
          <rect x="149" y="154" width="13" height="1" fill="#222" opacity="0.3"/>
          <rect x="142" y="157" width="16" height="1" fill="#222" opacity="0.3"/>
          <rect x="128" y="160" width="23" height="1" fill="#222" opacity="0.3"/>
          <rect x="135" y="163" width="25" height="1" fill="#222" opacity="0.3"/>
          <rect x="128" y="166" width="9" height="1" fill="#222" opacity="0.3"/>
          <rect x="149" y="166" width="13" height="1" fill="#222" opacity="0.3"/>
          <rect x="128" y="169" width="16" height="1" fill="#222" opacity="0.3"/>
          <rect x="128" y="172" width="34" height="1" fill="#222" opacity="0.3"/>
          <rect x="128" y="175" width="32" height="1" fill="#222" opacity="0.3"/>
          <rect x="128" y="178" width="4" height="1" fill="#222" opacity="0.3"/>
          <rect x="148" y="178" width="14" height="1" fill="#222" opacity="0.3"/>
          <rect x="128" y="181" width="22" height="1" fill="#222" opacity="0.3"/>
          <rect x="133" y="149" width="12" height="1" fill="#222" opacity="0.5"/>
          <rect x="139" y="186" width="14" height="1" rx="0.5" ry="0.5" fill="#222"/>
        </g>
        <rect x="76" y="175" width="1" height="3" fill="#fff"/>
        <rect x="81" y="175" width="2" height="3" fill="#fff"/>
        <path d="M86,174.5c.828,0,1.5.9,1.5,2s-.672,2-1.5,2" fill="none" stroke="#fff" stroke-miterlimit="10"/>
        <g>
          <polygon points="172 177 172 178 173 178 173 179 174 179 174 177 172 177" fill="#fff"/>
          <polygon points="176 175 176 174 175 174 175 176 177 176 177 175 176 175" fill="#fff"/>
          <polygon points="173 175 172 175 172 176 174 176 174 174 173 174 173 175" fill="#fff"/>
          <polygon points="175 177 175 179 176 179 176 178 177 178 177 177 175 177" fill="#fff"/>
        </g>
        <polygon points="83 175 83 178 85 179 85 174 83 175" fill="#fff"/>
        <rect x="29" y="99" width="226" height="91" fill="url(#Unbenannter_Verlauf_62-3)" style="mix-blend-mode: hard-light"/>
        <g>
          <rect x="223.998" y="175" width="1" height="13" fill="url(#Unbenannter_Verlauf_11)"/>
          <rect x="223.998" y="175" width="1" height="13" transform="translate(42.998 405.998) rotate(-90)" fill="url(#Unbenannter_Verlauf_11-2)"/>
          <circle cx="224.498" cy="181.5" r="2" fill="#fff" opacity="0.2"/>
          <circle cx="224.498" cy="181.5" r="1" fill="#fff" opacity="0.8"/>
        </g>
        <g>
          <rect x="44.998" y="167" width="1" height="13" fill="url(#Unbenannter_Verlauf_11-3)"/>
          <rect x="44.998" y="167" width="1" height="13" transform="translate(-128.002 218.998) rotate(-90)" fill="url(#Unbenannter_Verlauf_11-4)"/>
          <circle cx="45.498" cy="173.5" r="2" fill="#fff" opacity="0.2"/>
          <circle cx="45.498" cy="173.5" r="1" fill="#fff" opacity="0.8"/>
        </g>
        <g>
          <rect x="64.998" y="154" width="1" height="13" fill="url(#Unbenannter_Verlauf_11-5)"/>
          <rect x="64.998" y="154" width="1" height="13" transform="translate(-95.002 225.998) rotate(-90)" fill="url(#Unbenannter_Verlauf_11-6)"/>
          <circle cx="65.498" cy="160.5" r="2" fill="#fff" opacity="0.2"/>
          <circle cx="65.498" cy="160.5" r="1" fill="#fff" opacity="0.8"/>
        </g>
        <g>
          <rect x="105.998" y="175" width="1" height="13" fill="url(#Unbenannter_Verlauf_11-7)"/>
          <rect x="105.998" y="175" width="1" height="13" transform="translate(-75.002 287.998) rotate(-90)" fill="url(#Unbenannter_Verlauf_11-8)"/>
          <circle cx="106.498" cy="181.5" r="2" fill="#fff" opacity="0.2"/>
          <circle cx="106.498" cy="181.5" r="1" fill="#fff" opacity="0.8"/>
        </g>
        <g>
          <rect x="191.998" y="167" width="1" height="13" fill="url(#Unbenannter_Verlauf_11-9)"/>
          <rect x="191.998" y="167" width="1" height="13" transform="translate(18.998 365.998) rotate(-90)" fill="url(#Unbenannter_Verlauf_11-10)"/>
          <circle cx="192.498" cy="173.5" r="2" fill="#fff" opacity="0.2"/>
          <circle cx="192.498" cy="173.5" r="1" fill="#fff" opacity="0.8"/>
        </g>
        <circle cx="136" cy="177" r="2" fill="#e52e3d" style="mix-blend-mode: screen"/>
        <circle cx="21" cy="172" r="2" fill="#eb5e8b"/>
        <circle cx="51.5" cy="179.5" r="1.5" fill="#e52e3d" style="mix-blend-mode: screen"/>
        <circle cx="35.5" cy="183.5" r="1.5" fill="#e52e3d" style="mix-blend-mode: screen"/>
        <circle cx="212" cy="175" r="2" fill="#e52e3d" style="mix-blend-mode: screen"/>
        <rect x="11" y="188" width="268" height="2" fill="url(#Unbenannter_Verlauf_4)" style="mix-blend-mode: hard-light"/>
        <g>
          <rect x="78.998" y="181" width="1" height="13" fill="url(#Unbenannter_Verlauf_11-11)"/>
          <rect x="78.998" y="181" width="1" height="13" transform="translate(-108.002 266.998) rotate(-90)" fill="url(#Unbenannter_Verlauf_11-12)"/>
          <circle cx="79.498" cy="187.5" r="2" fill="#fff" opacity="0.2"/>
          <circle cx="79.498" cy="187.5" r="1" fill="#fff" opacity="0.8"/>
        </g>
        <g>
          <rect x="253.998" y="160" width="1" height="13" fill="url(#Unbenannter_Verlauf_11-13)"/>
          <rect x="253.998" y="160" width="1" height="13" transform="translate(87.998 420.998) rotate(-90)" fill="url(#Unbenannter_Verlauf_11-14)"/>
          <circle cx="254.498" cy="166.5" r="2" fill="#fff" opacity="0.2"/>
          <circle cx="254.498" cy="166.5" r="1" fill="#fff" opacity="0.8"/>
        </g>
        <g>
          <rect x="157" y="169" width="1" height="25" fill="url(#Unbenannter_Verlauf_11-15)"/>
          <rect x="157" y="169" width="1" height="25" transform="translate(-24 339) rotate(-90)" fill="url(#Unbenannter_Verlauf_11-16)"/>
          <circle cx="157.5" cy="181.5" r="2.5" fill="#fff" opacity="0.2"/>
          <circle cx="157.5" cy="181.5" r="1.5" fill="#fff" opacity="0.8"/>
        </g>
        <rect width="312" height="400" fill="none"/>
        <circle cx="145" cy="272" r="20" opacity="0.6" fill="url(#Unbenannter_Verlauf_62-4)" style="mix-blend-mode: color"/>
        <path d="M245,400H45s0-66,20-66H225C245,334,245,400,245,400Z" fill="#f6f6f6"/>
        <path d="M194.952,342H71a23.745,23.745,0,0,1,2.221-4h120.23A28.623,28.623,0,0,1,194.952,342ZM184.4,346H79.982q-.524,1.83-.982,3.839V350H185v-.115C184.813,348.531,184.613,347.233,184.4,346Zm12.071,8H65.806c-.287,1.305-.554,2.641-.8,4H196.991C196.829,356.641,196.656,355.305,196.47,354Zm-27.634,8H73.519q-.273,1.99-.507,4H169v-.144Q168.924,363.918,168.836,362Zm10.01,8H63.4q-.22,1.969-.4,3.91V374H179v-.427Q178.93,371.8,178.846,370Zm-21.9,8H71.261c-.1,1.365-.184,2.7-.26,4h85.99C156.979,380.7,156.965,379.366,156.949,378Z" fill="url(#Unbenannter_Verlauf_19)"/>
      </g>
    </g>
  </g>
</svg>
