<svg xmlns="http://www.w3.org/2000/svg" width="66" height="66" viewBox="0 0 66 66">
  <g>
    <g>
      <circle cx="33" cy="33" r="33" fill="#2970ff"/>
      <circle cx="14" cy="40" r="2" fill="#fff" opacity="0.5"/>
      <circle cx="50" cy="35" r="2" fill="#fff" opacity="0.5"/>
      <g>
        <polygon points="42 47 41 47 41 22 20 22 24 18 45 18 45 44 42 47" fill="#fff"/>
        <path d="M44,17H24a1.992,1.992,0,0,0-1.453.633l-3.914,3.914A1.988,1.988,0,0,0,18,23V47a2,2,0,0,0,2,2H40a2,2,0,0,0,2-2V23a2,2,0,0,0-2-2H22l2-2H44V45a2,2,0,0,0,2-2V19A2,2,0,0,0,44,17Z" fill="#94b7ff"/>
      </g>
      <circle cx="35" cy="42" r="2" fill="#fff" opacity="0.5"/>
      <circle cx="26" cy="38" r="3" fill="#fff" opacity="0.5"/>
    </g>
  </g>
</svg>
