<svg xmlns="http://www.w3.org/2000/svg" width="66" height="66" viewBox="0 0 66 66">
  <title>Zeichenfläche 60 Kopie 3</title>
  <g id="Ebene_1" data-name="Ebene 1">
    <circle cx="33" cy="33" r="33" fill="#645dc4"/>
    <g opacity="0.98">
      <path d="M42.32,48.017A3.424,3.424,0,0,1,39,51H27a3.424,3.424,0,0,1-3.32-2.983L21.32,25.983A2.644,2.644,0,0,1,24,23H42a2.644,2.644,0,0,1,2.68,2.983Z" fill="#d8d6f0"/>
    </g>
    <polygon points="43.821 34 45 23 21 23 22.179 34 43.821 34" fill="#d8d6f0" opacity="0.98"/>
    <polygon points="24 21 29 15 43 18 39.729 21.925 24 21" fill="#fff"/>
    <rect x="19" y="21" width="28" height="3" rx="1.5" ry="1.5" fill="#b1aee1"/>
  </g>
</svg>
