<svg xmlns="http://www.w3.org/2000/svg" width="66" height="66" viewBox="0 0 66 66">
  <title>Zeichenfläche 60 Kopie 8</title>
  <g id="Ebene_1" data-name="Ebene 1">
    <g>
      <circle cx="33" cy="33" r="33" fill="#5561d3"/>
      <g>
        <path d="M15.958,50.543a.5.5,0,0,1-.448-.724l4-8a.5.5,0,0,1,.367-.27.509.509,0,0,1,.434.14l4,4a.5.5,0,0,1-.13.8l-8,4A.507.507,0,0,1,15.958,50.543Z" fill="#fff"/>
        <rect x="18.164" y="31.555" width="33.941" height="3.328" transform="translate(-13.199 34.573) rotate(-45)" fill="#8088de"/>
        <rect x="15.81" y="29.202" width="33.941" height="3.328" transform="translate(-12.224 32.22) rotate(-45)" fill="#aab0e9"/>
        <path d="M15.958,50.543a.5.5,0,0,1-.448-.724l1.977-3.954,2.648,2.648L16.181,50.49A.5.5,0,0,1,15.958,50.543Z" fill="#aab0e9"/>
        <path d="M47.957,22.75,43.25,18.043l.354-.354L45.9,15.4a1.5,1.5,0,0,1,2.121,0L50.6,17.982a1.5,1.5,0,0,1,0,2.121Z" fill="#fff"/>
        <rect x="14.957" y="15.043" width="36" height="36" fill="none"/>
      </g>
    </g>
  </g>
</svg>
