<svg xmlns="http://www.w3.org/2000/svg" width="66" height="66" viewBox="0 0 66 66">
  <g>
    <g>
      <circle cx="33" cy="33" r="33" fill="#8851a0"/>
      <g>
        <path d="M42.5,31a5.5,5.5,0,0,1,0,11h-7a5.5,5.5,0,0,1,0-11h7m0-3h-7a8.5,8.5,0,0,0,0,17h7a8.5,8.5,0,0,0,0-17Z" fill="#fff"/>
        <path d="M27,36.5a8.618,8.618,0,0,1,.135-1.5H23.5a5.5,5.5,0,0,1,0-11h7a5.5,5.5,0,0,1,0,11h-.289a5.413,5.413,0,0,0,0,3H30.5a8.5,8.5,0,0,0,0-17h-7a8.5,8.5,0,0,0,0,17h3.64A8.522,8.522,0,0,1,27,36.5Z" fill="#c3a8cf"/>
      </g>
    </g>
  </g>
</svg>
