<svg xmlns="http://www.w3.org/2000/svg" width="66" height="66" viewBox="0 0 66 66">
  <g>
    <circle cx="33" cy="33" r="33" fill="#5462d4"/>
    <g>
      <g>
        <polygon points="30.1 29 34.125 22 27.125 22 23.1 29 27.125 36 34.125 36 30.1 29" fill="#fff"/>
        <polygon points="25.025 22 18.025 22 14 29 18.025 36 25.025 36 21 29 25.025 22" fill="#fff"/>
      </g>
      <g>
        <polygon points="36.225 36 32.2 43 39.2 43 43.225 36 39.2 29 32.2 29 36.225 36" fill="#a9b0e9"/>
        <polygon points="41.3 43 48.3 43 52.325 36 48.3 29 41.3 29 45.325 36 41.3 43" fill="#a9b0e9"/>
      </g>
    </g>
  </g>
</svg>
