<?xml version="1.0" encoding="utf-8"?>
<!-- Generator: Adobe Illustrator 24.0.1, SVG Export Plug-In . SVG Version: 6.00 Build 0)  -->
<svg version="1.1" id="emoji" xmlns="http://www.w3.org/2000/svg" xmlns:xlink="http://www.w3.org/1999/xlink" x="0px" y="0px"
	 viewBox="0 0 72 72" style="enable-background:new 0 0 72 72;" xml:space="preserve">
<style type="text/css">
	.st0{fill:#92D3F5;}
	.st1{fill:#61B2E4;}
	.st2{fill:none;stroke:#000000;stroke-width:2;stroke-linecap:round;stroke-linejoin:round;}
	.st3{font-family:'HelveticaLTStd-BlkCond';}
	.st4{font-size:10px;}
</style>
<g id="color">
	<rect x="18" y="12" class="st0" width="42" height="47.5"/>
	<rect x="12" y="12" class="st1" width="7" height="47.5"/>
</g>
<g id="line">
	<line class="st2" x1="18" y1="13" x2="18" y2="59"/>
	<path class="st2" d="M62.9,54.8c0.7-0.3,1.1-1,1.1-1.8v-44C64,7.9,63.1,7,61.9,7l0,0H16.5c-1.6,0-3.1,0.8-4,2.1l0,0
		c-0.6,0.9-0.3,2,0.5,2.6c0.3,0.2,0.7,0.3,1,0.3h3.8l2.1,0h39.9v48H14.1c-1,0-1.9-0.8-1.9-1.8V10.6"/>
</g>
<text transform="matrix(1 0 0 1 22.1427 30.8649)" class="st3 st4">PubMed</text>
</svg>
