<svg xmlns="http://www.w3.org/2000/svg" xmlns:xlink="http://www.w3.org/1999/xlink" width="320" height="200" viewBox="0 0 320 200">
  <defs>
    <linearGradient id="Unbenannter_Verlauf_17" data-name="Unbenannter Verlauf 17" x1="207.815" y1="133.039" x2="207.815" y2="139.7" gradientUnits="userSpaceOnUse">
      <stop offset="0" stop-color="#333"/>
      <stop offset="1" stop-color="#222"/>
    </linearGradient>
    <clipPath id="clip-path">
      <rect x="74.369" y="91.386" width="127.261" height="89.878" fill="#333b66"/>
    </clipPath>
    <linearGradient id="Unbenannter_Verlauf_85" data-name="Unbenannter Verlauf 85" x1="138" y1="181.049" x2="138" y2="157.325" gradientUnits="userSpaceOnUse">
      <stop offset="0" stop-color="#222"/>
      <stop offset="1" stop-color="#222" stop-opacity="0"/>
    </linearGradient>
    <radialGradient id="Unbenannter_Verlauf_40" data-name="Unbenannter Verlauf 40" cx="156.875" cy="128.307" r="31.309" gradientUnits="userSpaceOnUse">
      <stop offset="0" stop-color="#fafafa"/>
      <stop offset="1" stop-color="#838486"/>
    </radialGradient>
  </defs>
  <g style="isolation: isolate">
    <g>
      <g>
        <g>
          <rect x="46" y="66" width="32" height="124" rx="2" ry="2" fill="#2970ff"/>
          <rect x="50" y="78" width="24" height="14" fill="#2970ff" opacity="0.4" style="mix-blend-mode: multiply"/>
          <rect x="50" y="94" width="24" height="14" fill="#2970ff" opacity="0.4" style="mix-blend-mode: multiply"/>
          <rect x="142" width="40" height="190" rx="1.902" ry="1.902" fill="#4d4dff"/>
          <rect x="144" y="32" width="36" height="4" rx="2" ry="2" fill="#3939b2"/>
          <rect x="144" y="68" width="36" height="4" rx="2" ry="2" fill="#3939b2"/>
          <rect x="114" y="34" width="28" height="156" rx="2" ry="2" fill="#e52e3d"/>
          <rect x="244" y="90" width="28" height="100" rx="2" ry="2" fill="#4d4dff"/>
          <rect x="196" y="24" width="26" height="166" rx="2" ry="2" fill="#5ce5e5"/>
          <rect x="182" y="12" width="14" height="178" rx="1.957" ry="1.957" fill="#2970ff"/>
          <rect x="94" y="16" width="20" height="174" rx="2" ry="2" fill="#999"/>
          <rect x="98" y="30" width="12" height="48" fill="#c6ba1a"/>
          <rect x="126" y="50" width="4" height="14" fill="#fff" opacity="0.4"/>
          <rect x="126" y="68" width="4" height="14" fill="#fff" opacity="0.4"/>
          <g>
            <g>
              <rect x="166" y="52" width="96" height="138" rx="4" ry="4" fill="#ddd"/>
              <rect x="176.268" y="66.995" width="76" height="102" fill="#f6f6f6"/>
            </g>
            <rect x="184" y="160" width="24" height="2" fill="#bbb"/>
            <rect x="184" y="156" width="60" height="2" fill="#bbb"/>
            <rect x="184" y="152" width="60" height="2" fill="#bbb"/>
            <rect x="184" y="148" width="60" height="2" fill="#bbb"/>
            <rect x="184" y="144" width="46" height="2" fill="#bbb"/>
            <rect x="184" y="140" width="60" height="2" fill="#bbb"/>
            <rect x="184" y="136" width="60" height="2" fill="#bbb"/>
            <rect x="184" y="132" width="60" height="2" fill="#bbb"/>
            <rect x="184" y="128" width="60" height="2" fill="#bbb"/>
            <rect x="184" y="124" width="60" height="2" fill="#bbb"/>
            <rect x="184" y="120" width="60" height="2" fill="#bbb"/>
            <rect x="184" y="116" width="60" height="2" fill="#bbb"/>
            <rect x="184" y="112" width="60" height="2" fill="#bbb"/>
            <rect x="198" y="102" width="32" height="2" fill="#bbb"/>
          </g>
          <g>
            <rect x="62" y="82.65" width="152" height="107.35" rx="5.964" ry="5.964" fill="#222"/>
            <path d="M211.164,136.325a3.349,3.349,0,1,1-3.349-3.349A3.348,3.348,0,0,1,211.164,136.325Z" fill="url(#Unbenannter_Verlauf_17)"/>
            <g>
              <rect x="74.369" y="91.386" width="127.261" height="89.878" fill="#333b66"/>
              <g clip-path="url(#clip-path)">
                <g>
                  <g>
                    <polygon points="138.481 100.296 99.538 136.806 126.312 158.711 138.481 100.296" fill="none" stroke="#66f" stroke-linejoin="round" stroke-width="0.4"/>
                    <polygon points="138.481 100.296 104.558 95.885 104.558 114.444 138.481 100.296" fill="none" stroke="#66f" stroke-linejoin="round" stroke-width="0.4"/>
                    <polygon points="104.558 114.444 99.538 136.806 138.481 100.296 104.558 114.444" fill="none" stroke="#66f" stroke-linejoin="round" stroke-width="0.4"/>
                    <polygon points="72 86.699 67.592 111.249 89.954 94.516 72 86.699" fill="none" stroke="#66f" stroke-linejoin="round" stroke-width="0.4"/>
                    <polygon points="69.113 169.968 78.773 187.158 97.865 162.21 69.113 169.968" fill="none" stroke="#66f" stroke-linejoin="round" stroke-width="0.4"/>
                    <polygon points="206.632 164.34 199.026 185.333 182.293 167.078 206.632 164.34" fill="none" stroke="#66f" stroke-linejoin="round" stroke-width="0.4"/>
                    <polyline points="67.592 111.249 50.25 95.885 72 86.699 87.52 66.373 89.954 94.516 72 86.699" fill="none" stroke="#66f" stroke-linejoin="round" stroke-width="0.4"/>
                    <polygon points="72 86.699 63.485 67.97 87.52 66.373 72 86.699" fill="none" stroke="#66f" stroke-linejoin="round" stroke-width="0.4"/>
                    <polygon points="104.558 95.885 89.954 94.516 104.558 114.444 104.558 95.885" fill="none" stroke="#66f" stroke-linejoin="round" stroke-width="0.4"/>
                    <polygon points="104.558 95.885 87.52 66.373 89.954 94.516 104.558 95.885" fill="none" stroke="#66f" stroke-linejoin="round" stroke-width="0.4"/>
                    <polygon points="104.558 95.885 164.19 68.046 138.481 100.296 104.558 95.885" fill="none" stroke="#66f" stroke-linejoin="round" stroke-width="0.4"/>
                    <polygon points="99.538 136.806 67.592 111.249 89.954 94.516 104.558 114.444 99.538 136.806" fill="none" stroke="#66f" stroke-linejoin="round" stroke-width="0.4"/>
                    <polygon points="67.592 111.249 104.558 114.444 89.954 94.516 67.592 111.249" fill="none" stroke="#66f" stroke-linejoin="round" stroke-width="0.4"/>
                    <polygon points="138.481 100.296 182.293 167.078 126.312 158.711 138.481 100.296" fill="none" stroke="#66f" stroke-linejoin="round" stroke-width="0.4"/>
                    <polygon points="97.865 162.21 99.538 136.806 126.312 158.711 97.865 162.21" fill="none" stroke="#66f" stroke-linejoin="round" stroke-width="0.4"/>
                    <polygon points="97.865 162.21 67.592 111.249 99.538 136.806 97.865 162.21" fill="none" stroke="#66f" stroke-linejoin="round" stroke-width="0.4"/>
                    <polygon points="69.113 169.968 67.592 111.249 97.865 162.21 69.113 169.968" fill="none" stroke="#66f" stroke-linejoin="round" stroke-width="0.4"/>
                    <polygon points="69.113 169.968 20.309 163.281 67.592 111.249 69.113 169.968" fill="none" stroke="#66f" stroke-linejoin="round" stroke-width="0.4"/>
                    <polygon points="69.113 169.968 64.448 187.158 78.773 187.158 69.113 169.968" fill="none" stroke="#66f" stroke-linejoin="round" stroke-width="0.4"/>
                    <polygon points="64.448 187.158 20.309 163.281 69.113 169.968 64.448 187.158" fill="none" stroke="#66f" stroke-linejoin="round" stroke-width="0.4"/>
                    <polygon points="64.448 187.158 66.477 206.173 44.711 194.207 64.448 187.158" fill="none" stroke="#66f" stroke-linejoin="round" stroke-width="0.4"/>
                    <polygon points="78.773 187.158 66.477 206.173 97.865 206.173 78.773 187.158" fill="none" stroke="#66f" stroke-linejoin="round" stroke-width="0.4"/>
                    <polygon points="97.865 162.21 129.76 209.419 126.312 158.711 97.865 162.21" fill="none" stroke="#66f" stroke-linejoin="round" stroke-width="0.4"/>
                    <polygon points="129.76 209.419 78.773 187.158 97.865 162.21 129.76 209.419" fill="none" stroke="#66f" stroke-linejoin="round" stroke-width="0.4"/>
                    <polygon points="182.293 167.078 129.76 209.419 126.312 158.711 182.293 167.078" fill="none" stroke="#66f" stroke-linejoin="round" stroke-width="0.4"/>
                    <polygon points="199.026 185.333 129.76 209.419 182.293 167.078 199.026 185.333" fill="none" stroke="#66f" stroke-linejoin="round" stroke-width="0.4"/>
                    <polygon points="199.026 185.333 219.13 194.089 206.632 164.34 199.026 185.333" fill="none" stroke="#66f" stroke-linejoin="round" stroke-width="0.4"/>
                    <polygon points="138.481 100.296 180.061 107.395 182.293 167.078 138.481 100.296" fill="none" stroke="#66f" stroke-linejoin="round" stroke-width="0.4"/>
                    <polygon points="182.293 167.078 211.703 121.391 180.061 107.395 182.293 167.078" fill="none" stroke="#66f" stroke-linejoin="round" stroke-width="0.4"/>
                    <polygon points="206.632 164.34 211.703 121.391 182.293 167.078 206.632 164.34" fill="none" stroke="#66f" stroke-linejoin="round" stroke-width="0.4"/>
                    <polygon points="206.632 164.34 251.255 108.409 211.703 121.391 206.632 164.34" fill="none" stroke="#66f" stroke-linejoin="round" stroke-width="0.4"/>
                    <polyline points="180.061 107.395 238.071 92.994 211.703 121.391" fill="none" stroke="#66f" stroke-linejoin="round" stroke-width="0.4"/>
                    <polygon points="164.19 68.046 180.061 107.395 138.481 100.296 164.19 68.046" fill="none" stroke="#66f" stroke-linejoin="round" stroke-width="0.4"/>
                    <polygon points="180.061 107.395 204.604 77.402 164.19 68.046 180.061 107.395" fill="none" stroke="#66f" stroke-linejoin="round" stroke-width="0.4"/>
                  </g>
                  <g>
                    <circle cx="126.312" cy="158.711" r="4.438" fill="#333b66"/>
                    <path d="M126.312,154.523a4.189,4.189,0,1,1-4.189,4.188,4.193,4.193,0,0,1,4.189-4.188m0-.5A4.689,4.689,0,1,0,131,158.711a4.688,4.688,0,0,0-4.688-4.688Z" fill="#66f"/>
                  </g>
                  <g>
                    <path d="M138.481,103.527a3.231,3.231,0,1,1,3.232-3.231A3.235,3.235,0,0,1,138.481,103.527Z" fill="#333b66"/>
                    <path d="M138.481,97.315A2.982,2.982,0,1,1,135.5,100.3a2.985,2.985,0,0,1,2.981-2.981m0-.5a3.482,3.482,0,1,0,3.482,3.481,3.482,3.482,0,0,0-3.482-3.481Z" fill="#66f"/>
                  </g>
                  <g>
                    <path d="M99.538,140.062a3.256,3.256,0,1,1,3.255-3.256A3.26,3.26,0,0,1,99.538,140.062Z" fill="#333b66"/>
                    <path d="M99.538,133.8a3.006,3.006,0,1,1-3.006,3.006,3.009,3.009,0,0,1,3.006-3.006m0-.5a3.506,3.506,0,1,0,3.506,3.506,3.506,3.506,0,0,0-3.506-3.506Z" fill="#66f"/>
                  </g>
                  <g>
                    <path d="M104.558,120.636a6.192,6.192,0,1,1,6.192-6.193A6.2,6.2,0,0,1,104.558,120.636Z" fill="#333b66"/>
                    <path d="M104.558,108.5a5.942,5.942,0,1,1-5.942,5.942,5.949,5.949,0,0,1,5.942-5.942m0-.5A6.442,6.442,0,1,0,111,114.444,6.442,6.442,0,0,0,104.558,108Z" fill="#66f"/>
                  </g>
                  <g>
                    <path d="M182.293,170.121a3.043,3.043,0,1,1,3.042-3.043A3.046,3.046,0,0,1,182.293,170.121Z" fill="#333b66"/>
                    <path d="M182.293,164.285a2.793,2.793,0,1,1-2.793,2.793,2.8,2.8,0,0,1,2.793-2.793m0-.5a3.293,3.293,0,1,0,3.292,3.293,3.293,3.293,0,0,0-3.292-3.293Z" fill="#66f"/>
                  </g>
                  <circle cx="180.061" cy="107.395" r="2.395" fill="#4d4dff"/>
                  <g>
                    <circle cx="97.865" cy="162.21" r="1.96" fill="#333b66"/>
                    <path d="M97.865,160.5a1.71,1.71,0,1,1-1.71,1.71,1.712,1.712,0,0,1,1.71-1.71m0-.5a2.21,2.21,0,1,0,2.21,2.21,2.209,2.209,0,0,0-2.21-2.21Z" fill="#66f"/>
                  </g>
                  <circle cx="89.954" cy="94.516" r="1.369" fill="#4d4dff"/>
                </g>
              </g>
            </g>
          </g>
          <rect x="104" y="127" width="19" height="2" fill="#5ce5e5"/>
          <rect x="104" y="130" width="14" height="1" fill="#5ce5e5"/>
          <rect x="74.369" y="157.264" width="127.261" height="24" fill="url(#Unbenannter_Verlauf_85)"/>
          <rect x="78" y="170" width="37" height="2" fill="#e52e3d"/>
          <rect x="115" y="170" width="83" height="2" fill="#858585"/>
          <circle cx="115" cy="171" r="2" fill="#e52e3d"/>
          <polygon points="86.33 176.5 82 174 82 179 86.33 176.5" fill="#fff"/>
          <polygon points="92.598 176.5 90 175 90 178 92.598 176.5" fill="#fff"/>
          <g>
            <path d="M178,99H146a6,6,0,0,0-6,6v79a6,6,0,0,0,6,6h32a6,6,0,0,0,6-6V105a6,6,0,0,0-6-6Z" fill="#222"/>
            <path d="M178,101a4,4,0,0,1,4,4v79a4,4,0,0,1-4,4H146a4,4,0,0,1-4-4V105a4,4,0,0,1,4-4h32" fill="#fff"/>
            <rect x="142" y="112" width="40" height="1" fill="#bbb" opacity="0.5"/>
            <path d="M151,100h22a0,0,0,0,1,0,0v2a2,2,0,0,1-2,2H153a2,2,0,0,1-2-2v-2A0,0,0,0,1,151,100Z" fill="#222"/>
            <rect x="143" y="106" width="38" height="4" rx="1" ry="1" fill="#e6e6e6"/>
            <rect x="144" y="107" width="22" height="2" fill="#ccc"/>
            <g>
              <polygon points="161.899 121.177 158.788 122.348 158.364 122.348 158.384 121.904 158.101 121.722 157.556 121.803 157.232 122.025 156.99 122.348 157.192 122.571 157.414 122.692 157.434 122.894 156.97 123.076 156.444 123.217 154.808 123.217 154.303 123.359 153.253 123.924 152.283 125.338 152.606 127.601 163.434 126.126 161.899 121.177" fill="#999"/>
              <path d="M171.613,120.376l-.34.094-.728-.849-.121-.363-.727-.728h-.364l-.969-.727-.849.121.606.485v.243l-.485.121-.363-.121-.364-.364-.364-.121-1.7.606-1.333.363h-.97l-.121-.363v-.243l-.889-.02-.363.323.06.182.3.243-.181.181-.728.283-.929.121.162.667.1.748h.383l.606-.566.263-.061.424.606-.02.364-.262.283-.829.02-.323.323.343,1.96-1.656.262-1.111.263-.263.222-.04.223.081.2.181.1-.02.323-.283.242-.464.182h-.728l-.262-.3v-.242l.384-.243v-.242l-.4-.263h-.788l-1.192.263-.4.06-.142-.222v-.97l.243-.666.464-.505.425.141.3.02.262-.161.162-.384-.02-.424-.3-.283-.182.1-.081.1-.2-.02-.141-.2v-.384l.121-.2.667-1.212.121-.223-.041-.222-.121-.121-.3.2-.162-.121V119.3l.445-.444.444.04.223-.1.262-.626-.081-.2-.3.1-.363.161-.142.182.081-.384-.263.061-1.131.869-.767.808-.485.666-.263.142-.1.3-.5.532a12,12,0,1,0,19.916-1.03Z" fill="url(#Unbenannter_Verlauf_40)"/>
              <rect x="166.04" y="129.5" width="1.939" height="1.939" transform="translate(-33.85 62.87) rotate(-19.397)" fill="#777" opacity="0.5"/>
              <rect x="166.861" y="134.293" width="1.063" height="1.939" transform="translate(11.115 -12.702) rotate(4.495)" fill="#777" opacity="0.5"/>
              <rect x="163.657" y="124.126" width="1.939" height="1.939" transform="translate(-32.201 61.773) rotate(-19.397)" fill="#777" opacity="0.5"/>
              <rect x="162.424" y="119.742" width="1.556" height="1.556" transform="translate(-34.09 73.236) rotate(-22.967)" fill="#777" opacity="0.5"/>
              <rect x="170.545" y="122.742" width="1.556" height="1.556" transform="translate(-34.617 76.643) rotate(-22.967)" fill="#777" opacity="0.5"/>
              <rect x="168.188" y="118.955" width="1.301" height="1.556" transform="translate(-38.13 117.241) rotate(-34.653)" fill="#777" opacity="0.5"/>
              <rect x="157.232" y="132.571" width="1.939" height="1.939" fill="#777" opacity="0.5"/>
              <rect x="159.076" y="136.959" width="1.708" height="1.708" transform="translate(-26.624 38.982) rotate(-12.838)" fill="#777" opacity="0.5"/>
              <rect x="172.39" y="127.171" width="0.957" height="1.708" fill="#777" opacity="0.5"/>
              <polygon points="171.91 133.9 171.91 132.192 172.867 132.192 171.91 133.9" fill="#777" opacity="0.5"/>
              <rect x="155.98" y="127.359" width="1.939" height="1.939" transform="translate(-12.948 17.711) rotate(-6.203)" fill="#777" opacity="0.5"/>
              <rect x="151.441" y="131.035" width="0.835" height="1.939" transform="translate(-27.027 39.884) rotate(-13.752)" fill="#777" opacity="0.5"/>
              <rect x="150.875" y="126.268" width="0.835" height="1.939" fill="#777" opacity="0.5"/>
              <rect x="151.966" y="121.975" width="0.835" height="1.312" transform="translate(81.731 -59.762) rotate(30)" fill="#777" opacity="0.5"/>
              <rect x="153.859" y="118.698" width="0.334" height="1.567" transform="matrix(0.866, 0.5, -0.5, 0.866, 80.376, -61.005)" fill="#777" opacity="0.5"/>
              <polygon points="168.303 137.561 167.727 137.364 166.045 138.242 166.091 138.455 168.303 137.561" fill="#777" opacity="0.5"/>
              <polygon points="161.652 139.106 162.53 139.061 162.955 139.439 161.727 139.318 161.652 139.106" fill="#777" opacity="0.5"/>
              <polygon points="153.727 135.712 155.485 137.273 155.379 137.485 153.576 135.879 153.727 135.712" fill="#777" opacity="0.5"/>
            </g>
            <rect x="148" y="142" width="28" height="2" fill="#222" opacity="0.5"/>
            <rect x="145" y="146" width="15" height="1" fill="#2970ff" opacity="0.5"/>
            <rect x="163" y="149" width="11" height="1" fill="#2970ff" opacity="0.5"/>
            <rect x="154" y="154" width="11" height="1" fill="#2970ff" opacity="0.5"/>
            <rect x="145" y="157" width="13" height="1" fill="#2970ff" opacity="0.5"/>
            <rect x="169" y="160" width="10" height="1" fill="#2970ff" opacity="0.5"/>
            <rect x="145" y="163" width="6" height="1" fill="#2970ff" opacity="0.5"/>
            <rect x="155" y="166" width="10" height="1" fill="#2970ff" opacity="0.5"/>
            <rect x="150" y="178" width="14" height="1" fill="#2970ff" opacity="0.5"/>
            <rect x="168" y="181" width="7" height="1" fill="#2970ff" opacity="0.5"/>
            <rect x="173" y="146" width="6" height="1" fill="#2970ff" opacity="0.5"/>
            <rect x="161" y="146" width="11" height="1" fill="#222" opacity="0.5"/>
            <rect x="145" y="154" width="8" height="1" fill="#222" opacity="0.3"/>
            <rect x="166" y="154" width="13" height="1" fill="#222" opacity="0.3"/>
            <rect x="159" y="157" width="16" height="1" fill="#222" opacity="0.3"/>
            <rect x="145" y="160" width="23" height="1" fill="#222" opacity="0.3"/>
            <rect x="152" y="163" width="25" height="1" fill="#222" opacity="0.3"/>
            <rect x="145" y="166" width="9" height="1" fill="#222" opacity="0.3"/>
            <rect x="166" y="166" width="13" height="1" fill="#222" opacity="0.3"/>
            <rect x="145" y="169" width="16" height="1" fill="#222" opacity="0.3"/>
            <rect x="145" y="172" width="34" height="1" fill="#222" opacity="0.3"/>
            <rect x="145" y="175" width="32" height="1" fill="#222" opacity="0.3"/>
            <rect x="145" y="178" width="4" height="1" fill="#222" opacity="0.3"/>
            <rect x="165" y="178" width="14" height="1" fill="#222" opacity="0.3"/>
            <rect x="145" y="181" width="22" height="1" fill="#222" opacity="0.3"/>
            <rect x="150" y="149" width="12" height="1" fill="#222" opacity="0.5"/>
            <rect x="156" y="186" width="14" height="1" rx="0.5" ry="0.5" fill="#222"/>
          </g>
          <rect x="93" y="175" width="1" height="3" fill="#fff"/>
          <rect x="98" y="175" width="2" height="3" fill="#fff"/>
          <path d="M103,174.5c.828,0,1.5.9,1.5,2s-.672,2-1.5,2" fill="none" stroke="#fff" stroke-miterlimit="10"/>
          <g>
            <polygon points="189 177 189 178 190 178 190 179 191 179 191 177 189 177" fill="#fff"/>
            <polygon points="193 175 193 174 192 174 192 176 194 176 194 175 193 175" fill="#fff"/>
            <polygon points="190 175 189 175 189 176 191 176 191 174 190 174 190 175" fill="#fff"/>
            <polygon points="192 177 192 179 193 179 193 178 194 178 194 177 192 177" fill="#fff"/>
          </g>
          <polygon points="100 175 100 178 102 179 102 174 100 175" fill="#fff"/>
        </g>
        <rect y="190" width="320" height="10" fill="#ca9e67"/>
      </g>
    </g>
  </g>
</svg>
