<?xml version="1.0" encoding="utf-8"?>
<!-- Generator: Adobe Illustrator 24.1.0, SVG Export Plug-In . SVG Version: 6.00 Build 0)  -->
<svg version="1.1" id="f61e7f2c-3df8-44b9-b514-d2b672d0e0d5"
	 xmlns="http://www.w3.org/2000/svg" xmlns:xlink="http://www.w3.org/1999/xlink" x="0px" y="0px" viewBox="0 0 1101 666.1"
	 style="enable-background:new 0 0 1101 666.1;" xml:space="preserve">
<style type="text/css">
	.st0{opacity:0.1;fill:#6C63FF;enable-background:new    ;}
	.st1{fill:#E6E6E6;}
	.st2{fill:#FFFFFF;}
	.st3{fill:#BDBDC6;}
	.st4{fill:#1E50A0;}
	.st5{fill:#2F2E41;}
	.st6{fill:#FADCBC;}
	.st7{fill:#8967AA;}
	.st8{fill:#FFB9B9;}
	.st9{fill:#3F3D56;}
	.st10{fill:#6C63FF;}
	.st11{fill:#FFB8B8;}
	.st12{fill:#D0CDE1;}
	.st13{fill:#326599;}
	.st14{fill:#999999;}
	.st15{fill:#00008B;}
	.st16{clip-path:url(#SVGID_1_);}
	.st17{display:none;}
	.st18{fill:#FF3300;}
	.st19{fill:none;stroke:#000000;stroke-width:4;stroke-miterlimit:10;}
	.st20{fill:#E6ECF8;}
	.st21{opacity:0.1;enable-background:new    ;}
	.st22{fill:#F9FAFB;}
	.st23{opacity:0.8;fill:#1E50A0;enable-background:new    ;}
	.st24{opacity:0.3;fill:#6C63FF;enable-background:new    ;}
	.st25{opacity:0.9;fill:#1E50A0;enable-background:new    ;}
</style>
<path class="st0" d="M616,112c-26,7.7-51.9,17.7-71.3,36c-28.5,27-39.7,71.5-28.4,112.8c9.6,35,33.3,65.3,52,97.2
	c23,39.3,38.9,81.9,53.3,124.5c7.7,22.9,15.4,46.5,30.3,66c20.7,27.1,53.9,43.2,86,45.4s62.8-8.6,87.6-26.6
	c13.2-9.5,25.1-21.6,30.5-37.4c5.7-16.7,3.5-36.1,9.3-52.8c5.4-15.4,17.2-27.1,29.9-36.7c16.7-12.6,35.4-22.3,55.5-28.9
	c22.9-7.5,47.4-10.8,70.3-18.2c23-7.4,45.1-19.6,57.1-40.4c11.2-19.5,12.2-44.2,11.7-67.9c-0.7-38.9-4.6-78.1-11.5-117.1
	c-4.6-26.3-10.8-52.9-23.7-77c-24.7-46.2-74.4-79.3-123.9-82.6c-41-2.7-78.9,13.5-113,32.9c-31,17.7-62,43.9-98.2,51.3
	C685.1,99.8,650,102,616,112z"/>
<rect x="36.1" y="331.2" class="st1" width="251" height="160.7"/>
<rect x="43.2" y="360.3" class="st2" width="236.6" height="122.1"/>
<rect x="36" y="331.1" class="st3" width="251" height="10.7"/>
<rect x="64.7" y="405.2" class="st1" width="36.5" height="63.7"/>
<rect x="51.4" y="345.7" class="st4" width="219.4" height="8.5"/>
<rect x="168.7" y="367" class="st1" width="89.7" height="31.4"/>
<rect x="116.5" y="440.3" class="st1" width="94.5" height="28.6"/>
<rect x="224.3" y="403.2" class="st1" width="34.1" height="64.2"/>
<path class="st5" d="M769.4,332.1l-272.3-2.5c0.7-39.7,9.9-78.6,30.1-113.5c13.2-22.9,13-47.8,9.8-68.8c-4.9-32.4,6.5-65.5,32-86.1
	c19.5-15.8,44-23.9,69-22.8l5.3,0.2c35,1.5,66.9,20.6,84.6,50.9c8.8,15.9,12.4,34.2,10.2,52.2c-1.7,17,2.4,34.1,12.1,51.4
	C766.7,231.1,770.4,279.7,769.4,332.1z"/>
<circle class="st6" cx="635.6" cy="164.9" r="72"/>
<path class="st6" d="M698.3,297.3l-118.5-7c11.6-26.7,16.3-52.3,11.6-76.7h88.3C679.5,232.4,688.8,264.7,698.3,297.3z"/>
<polygon class="st7" points="772.7,650.6 512.4,666.1 539.1,283.6 584.5,271.8 633.3,292.7 686.7,260.2 719.2,269.8 "/>
<path class="st1" d="M465.7,666.8c28.4-145.7,46.4-289.6,30.5-363.8l92.9-40.4l-16.4,404.3"/>
<path class="st1" d="M455.1,563.1l-67.4-41.8l57.5-168.3c6.4-17.4,18.7-32,34.7-41.2l19.4-11.2l13.2,171.6L455.1,563.1z"/>
<path class="st1" d="M664.4,665.1c0.8-155.5,5.7-314.9,19.9-409.6l102.2,41.8l-9.3,125.5c-20.9,45.9-6.9,140.4,20.3,243"/>
<polygon class="st1" points="919.1,534.4 856.4,513.5 772.7,418.2 786.6,297.3 926.1,492.5 "/>
<path class="st8" d="M722.5,624.8c2.1,9.4,11.5,15.3,20.8,13.1l53.3-12.1l-7.7-34L735.6,604C726.2,606.1,720.3,615.4,722.5,624.8
	L722.5,624.8z"/>
<path class="st5" d="M698.3,146.3c-40-16.5-79.5-17.6-118.5-2.3l-16.3-58.1h148.7L698.3,146.3z"/>
<path class="st1" d="M770.4,585.5l30.2,55.8c50.8-14.2,94.8-58.8,137.1-111.5l-11.6-37.2l-72,18.6L770.4,585.5z"/>
<path class="st9" d="M748.3,470.5H739c0-131.5-27.1-223.1-53.4-223.1l-2.3-9.3c23.7,0,38.7,38.1,47.2,70.1
	C742,351.6,748.3,409.2,748.3,470.5z"/>
<path class="st9" d="M534.5,437.9h-9.3c0-120.4,27.3-195.2,67.4-195.2l-2.3,9.3C562.5,252,534.5,309.5,534.5,437.9z"/>
<ellipse transform="matrix(0.1602 -0.9871 0.9871 0.1602 157.8472 1131.0981)" class="st9" cx="743.6" cy="472.8" rx="23.2" ry="23.2"/>
<path class="st9" d="M497.3,493.7H488c0-33.3,18.8-60.4,41.8-60.4v9.3C511.9,442.6,497.3,465.5,497.3,493.7z"/>
<path class="st9" d="M571.7,493.7h-9.3c0-28.2-14.6-51.1-32.5-51.1v-9.3C552.9,433.3,571.7,460.4,571.7,493.7z"/>
<circle class="st9" cx="567" cy="496" r="9.3"/>
<path class="st8" d="M443.5,542.7l3.4,34.7l54.3-5.4c9.6-1,16.6-9.5,15.6-19.1c-1-9.6-9.5-16.5-19-15.6L443.5,542.7z"/>
<path class="st1" d="M384.7,531.4c0.2,24.6,20.2,44.5,44.8,44.5h8.9l6.5-54.2l-52.6-13.3L384.7,531.4z"/>
<path class="st5" d="M537.1,610.3c1.1-4.9,1.9-7.6,1.9-7.6l-0.6-4l-6-40.5l-2.5-17.1c21.7-9.1,27.2-50.7,27.2-50.7l0.8-0.5l3.7-2.2
	v0l13.3-8l0.3-0.2l5.4,3.6l10.9,7.3c38.2,28.1,77.2,27.6,101.2,23.2c14.7-2.7,23.8-6.9,23.8-6.9l26.4-8.8l0.8-0.3l0.8,0.1L760,500
	l0.3,0l1.3,0.2L758,525l-5.2,36c13.7,7.3,25.9,20.9,36.6,37.7c2.4,3.7,4.6,7.6,6.9,11.6c2.9,5.2,5.6,10.6,8.2,16.2
	c0.3,0.7,0.6,1.3,0.9,2c1,2.2,2,4.4,3,6.6H532.3c0.4-2.2,0.7-4.3,1.1-6.3c0-0.1,0-0.1,0-0.2c0.1-0.7,0.2-1.3,0.4-2
	C535,619.8,536.2,614.3,537.1,610.3z"/>
<circle class="st10" cx="570.7" cy="487.6" r="9.1"/>
<circle class="st10" cx="751.9" cy="496.6" r="9.1"/>
<path class="st11" d="M780,495.7c0,0-82.4-15.4-87.9,11.8s91.5,15.4,91.5,15.4L780,495.7z"/>
<path class="st11" d="M486.4,571.8l25.4,19.9c0,0,18.1,56.2,45.3,39.9s-25.4-74.3-25.4-74.3l-30.8-10.9L486.4,571.8z"/>
<path class="st9" d="M872.7,616.5v6.1c0,1.7-0.3,3.3-0.9,4.9c-0.3,0.7-0.6,1.4-1,2c-2.4,4.1-6.8,6.6-11.5,6.6H412.7
	c-4.7,0-9.1-2.5-11.5-6.6c-0.4-0.6-0.7-1.3-1-2c-0.6-1.6-0.9-3.2-0.9-4.9v-6.1c0-7.4,6-13.4,13.4-13.4c0,0,0,0,0,0h25.7v-2.8
	c0-0.3,0.2-0.6,0.6-0.6c0,0,0,0,0,0h13.4c0.3,0,0.6,0.2,0.6,0.6c0,0,0,0,0,0v2.8h8.4v-2.8c0-0.3,0.2-0.6,0.6-0.6c0,0,0,0,0,0h13.4
	c0.3,0,0.6,0.2,0.6,0.6c0,0,0,0,0,0v2.8h8.4v-2.8c0-0.3,0.2-0.6,0.6-0.6c0,0,0,0,0,0h13.4c0.3,0,0.6,0.2,0.6,0.6c0,0,0,0,0,0v2.8
	h8.4v-2.8c0-0.3,0.2-0.6,0.6-0.6c0,0,0,0,0,0h13.4c0.3,0,0.6,0.2,0.6,0.6c0,0,0,0,0,0v2.8h8.4v-2.8c0-0.3,0.2-0.6,0.6-0.6
	c0,0,0,0,0,0h13.4c0.3,0,0.6,0.2,0.6,0.6c0,0,0,0,0,0v2.8h8.4v-2.8c0-0.3,0.2-0.6,0.6-0.6c0,0,0,0,0,0h13.4c0.3,0,0.6,0.2,0.6,0.6
	c0,0,0,0,0,0v2.8h8.4v-2.8c0-0.3,0.2-0.6,0.6-0.6c0,0,0,0,0,0h105.2c0.3,0,0.6,0.2,0.6,0.6c0,0,0,0,0,0v2.8h8.4v-2.8
	c0-0.3,0.2-0.6,0.6-0.6c0,0,0,0,0,0h13.4c0.3,0,0.6,0.3,0.6,0.6v2.8h8.4v-2.8c0-0.3,0.2-0.6,0.6-0.6c0,0,0,0,0,0h13.4
	c0.3,0,0.6,0.2,0.6,0.6c0,0,0,0,0,0v2.8h8.4v-2.8c0-0.3,0.2-0.6,0.6-0.6c0,0,0,0,0,0h13.4c0.3,0,0.6,0.2,0.6,0.6c0,0,0,0,0,0v2.8
	h8.4v-2.8c0-0.3,0.2-0.6,0.6-0.6c0,0,0,0,0,0h13.4c0.3,0,0.6,0.3,0.5,0.6v2.8h8.4v-2.8c0-0.3,0.2-0.6,0.6-0.6c0,0,0,0,0,0h13.4
	c0.3,0,0.6,0.2,0.6,0.6c0,0,0,0,0,0v2.8h8.4v-2.8c0-0.3,0.2-0.6,0.6-0.6c0,0,0,0,0,0h13.4c0.3,0,0.6,0.2,0.6,0.6c0,0,0,0,0,0v2.8
	h39.2C866.6,603,872.7,609.1,872.7,616.5C872.7,616.5,872.7,616.5,872.7,616.5z"/>
<rect x="269.5" y="627.4" class="st9" width="733" height="13.8"/>
<path class="st9" d="M594.8,360.8H427.7c-6.2,0-11.3,5-11.3,11.3V600c0,6.2,5,11.3,11.3,11.3h409c6.2,0,11.3-5,11.3-11.3V372.1
	c0-6.2-5-11.3-11.3-11.3l0,0H670.3"/>
<circle class="st12" cx="632.2" cy="484.3" r="25"/>
<rect x="26" y="663.6" class="st9" width="189" height="2.3"/>
<path class="st9" d="M136.1,590.7c-19.9,32.5-13.1,72.9-13.1,72.9s39.1-12.3,59-44.8s13.1-72.9,13.1-72.9S156.1,558.2,136.1,590.7z"
	/>
<path class="st7" d="M122.3,663.9l-1.1-0.2c-0.4-0.1-41.2-6.8-65.6-36c-24.4-29.2-23.8-70.5-23.8-70.9l0-1.1l1.1,0.2
	c0.4,0.1,41.2,6.8,65.6,36l0,0c24.4,29.2,23.8,70.5,23.8,70.9L122.3,663.9z"/>
<path class="st9" d="M123.9,665l-1.1-0.3c-0.4-0.1-39.7-12.8-59.6-45.2C43.3,587,49.9,546.2,50,545.8l0.2-1.1l1.1,0.3
	c0.4,0.1,39.7,12.8,59.6,45.2l0,0c19.9,32.5,13.3,73.2,13.2,73.6L123.9,665z M51.8,547.3c-0.9,6.8-4.5,42.3,13.1,71.1
	c17.6,28.7,50.9,41.7,57.4,44c0.9-6.8,4.5-42.3-13.1-71.1l0,0C91.6,562.5,58.3,549.6,51.8,547.3L51.8,547.3z"/>
<circle class="st9" cx="124.3" cy="536.3" r="22"/>
<path class="st13" d="M111.3,398.4L111.3,398.4c3.2-13.2,20,2.6,20,2.6v-22.6c0,0-16.9-14.2-20-1.1l0,0V398.4z"/>
<path d="M111.3,398.4L111.3,398.4c-1.8-11-8.2-8.3-8.2-8.3l-0.2-23.1c0,0,4.8-1.7,8.4,9.5l0,0L111.3,398.4z"/>
<path class="st14" d="M111.3,398.5L111.3,398.5c-0.5-13.6-4.2-12.7-4.2-12.7l-0.4-21c0,0,4.1,2.1,4.7,10.5l0,0L111.3,398.5z"/>
<path class="st15" d="M74.5,381.6c0,1.6-0.5,2.8-1.5,3.6c-1,0.8-2.4,1.2-4.2,1.2h-2.1v7H63v-16.7h5.8c1.5-0.1,3,0.3,4.2,1.2
	C74,378.8,74.5,380,74.5,381.6z M70.8,382.1c0.1-0.7-0.2-1.4-0.7-1.8c-0.5-0.4-1.2-0.6-1.9-0.6h-1.6v5h1.7c0.7,0.1,1.4-0.2,1.9-0.7
	C70.6,383.4,70.8,382.7,70.8,382.1z"/>
<path class="st15" d="M87.1,393.4h-3.3v-1.3l-1.4,0.8c-0.4,0.2-0.8,0.4-1.2,0.5c-0.4,0.1-0.9,0.2-1.4,0.2c-1,0.1-2-0.3-2.7-1.1
	c-0.7-0.8-1-1.8-1-2.8v-7.9h3.3v7.1c0,0.4,0.2,0.8,0.5,1.1c0.4,0.4,0.9,0.5,1.4,0.5c0.5,0,1-0.1,1.5-0.4c0.3-0.2,0.7-0.4,1-0.7v-7.7
	h3.3V393.4z"/>
<path class="st15" d="M101.3,387.4c0.1,1.6-0.5,3.2-1.6,4.4c-1,1.2-2.6,1.8-4.1,1.8c-0.6,0-1.2-0.1-1.8-0.2
	c-0.5-0.1-0.9-0.3-1.4-0.6l-1.9,0.8l-0.8-0.4v-16.4h3.3v5.6l1.3-0.6c0.3-0.1,0.5-0.2,0.8-0.3c0.3-0.1,0.7-0.2,1-0.2
	c1.5-0.1,2.9,0.6,3.8,1.7C100.8,384.2,101.3,385.8,101.3,387.4z M97.9,387.6c0-0.9-0.3-1.8-0.8-2.5c-0.5-0.7-1.2-1.1-2-1.1
	c-0.5,0-0.9,0.1-1.4,0.2c-0.3,0.1-0.6,0.3-0.8,0.6v5.5c0.2,0.2,0.5,0.4,0.8,0.5c0.4,0.1,0.8,0.2,1.3,0.2c1.1,0,1.8-0.3,2.2-0.8
	C97.8,389.5,98,388.5,97.9,387.6L97.9,387.6z"/>
<path class="st13" d="M74.5,381.6c0,1.6-0.5,2.8-1.5,3.6c-1,0.8-2.4,1.2-4.2,1.2h-2.1v7H63v-16.7h5.8c1.5-0.1,3,0.3,4.2,1.2
	C74,378.8,74.5,380,74.5,381.6z M70.8,382.1c0.1-0.7-0.2-1.4-0.7-1.8c-0.5-0.4-1.2-0.6-1.9-0.6h-1.6v5h1.7c0.7,0.1,1.4-0.2,1.9-0.7
	C70.6,383.4,70.8,382.7,70.8,382.1z"/>
<path class="st13" d="M87.1,393.4h-3.3v-1.3l-1.4,0.8c-0.4,0.2-0.8,0.4-1.2,0.5c-0.4,0.1-0.9,0.2-1.4,0.2c-1,0.1-2-0.3-2.7-1.1
	c-0.7-0.8-1-1.8-1-2.8v-7.9h3.3v7.1c0,0.4,0.2,0.8,0.5,1.1c0.4,0.4,0.9,0.5,1.4,0.5c0.5,0,1-0.1,1.5-0.4c0.3-0.2,0.7-0.4,1-0.7v-7.7
	h3.3V393.4z"/>
<path class="st13" d="M101.3,387.4c0.1,1.6-0.5,3.2-1.6,4.4c-1,1.2-2.6,1.8-4.1,1.8c-0.6,0-1.2-0.1-1.8-0.2
	c-0.5-0.1-0.9-0.3-1.4-0.6l-1.9,0.8l-0.8-0.4v-16.4h3.3v5.6l1.3-0.6c0.3-0.1,0.5-0.2,0.8-0.3c0.3-0.1,0.7-0.2,1-0.2
	c1.5-0.1,2.9,0.6,3.8,1.7C100.8,384.2,101.3,385.8,101.3,387.4z M97.9,387.6c0-0.9-0.3-1.8-0.8-2.5c-0.5-0.7-1.2-1.1-2-1.1
	c-0.5,0-0.9,0.1-1.4,0.2c-0.3,0.1-0.6,0.3-0.8,0.6v5.5c0.2,0.2,0.5,0.4,0.8,0.5c0.4,0.1,0.8,0.2,1.3,0.2c1.1,0,1.8-0.3,2.2-0.8
	C97.8,389.5,98,388.5,97.9,387.6L97.9,387.6z"/>
<path class="st15" d="M144.8,388.1h-8.6c0.1,0.8,0.5,1.5,1.1,2c0.6,0.4,1.3,0.6,2.1,0.6c0.7,0,1.4-0.1,2.1-0.3
	c0.7-0.1,1.3-0.4,1.9-0.7v2.9c-0.6,0.4-1.2,0.6-1.9,0.7c-0.7,0.2-1.4,0.2-2.1,0.3c-2.1,0-3.7-0.6-4.8-1.7c-1.2-1.2-1.8-2.8-1.7-4.5
	c-0.1-1.7,0.6-3.4,1.8-4.6c1.2-1.2,2.8-1.8,4.4-1.7c1.6-0.1,3.2,0.6,4.2,1.9C144.3,384.2,144.8,385.9,144.8,388.1z M141.7,386.5
	c-0.1-0.7-0.5-1.4-1-2c-0.5-0.4-1.2-0.7-1.9-0.7c-0.7-0.1-1.4,0.2-1.9,0.7c-0.5,0.5-0.7,1.2-0.8,1.9H141.7z"/>
<path class="st15" d="M157.5,393.4h-2.5l-0.7-1.1l-1.7,0.9c-0.2,0.1-0.4,0.2-0.6,0.2c-0.2,0-0.5,0.1-0.7,0.1c-1.5,0.1-3-0.6-3.9-1.7
	c-0.9-1.3-1.4-2.8-1.3-4.3c-0.1-1.6,0.5-3.3,1.6-4.5c1.1-1.1,2.7-1.7,4.3-1.7c0.4,0,0.9,0,1.3,0.1c0.4,0.1,0.8,0.2,1.1,0.4v-5.1h3.3
	L157.5,393.4z M154.2,389.8v-5.2c-0.2-0.3-0.6-0.5-0.9-0.6c-0.4-0.2-0.9-0.2-1.4-0.2c-0.8-0.1-1.5,0.2-2,0.8
	c-0.5,0.7-0.7,1.6-0.7,2.5c-0.1,0.9,0.2,1.9,0.7,2.6c0.5,0.6,1.2,0.9,1.9,0.9c0.5,0,0.9-0.1,1.4-0.3
	C153.6,390.3,153.9,390.1,154.2,389.8z"/>
<path class="st13" d="M144.8,388.1h-8.6c0.1,0.8,0.5,1.5,1.1,2c0.6,0.4,1.3,0.6,2.1,0.6c0.7,0,1.4-0.1,2.1-0.3
	c0.7-0.1,1.3-0.4,1.9-0.7v2.9c-0.6,0.4-1.2,0.6-1.9,0.7c-0.7,0.2-1.4,0.2-2.1,0.3c-2.1,0-3.7-0.6-4.8-1.7c-1.2-1.2-1.8-2.8-1.7-4.5
	c-0.1-1.7,0.6-3.4,1.8-4.6c1.2-1.2,2.8-1.8,4.4-1.7c1.6-0.1,3.2,0.6,4.2,1.9C144.3,384.2,144.8,385.9,144.8,388.1z M141.7,386.5
	c-0.1-0.7-0.5-1.4-1-2c-0.5-0.4-1.2-0.7-1.9-0.7c-0.7-0.1-1.4,0.2-1.9,0.7c-0.5,0.5-0.7,1.2-0.8,1.9H141.7z"/>
<path class="st13" d="M157.5,393.4h-2.5l-0.7-1.1l-1.7,0.9c-0.2,0.1-0.4,0.2-0.6,0.2c-0.2,0-0.5,0.1-0.7,0.1c-1.5,0.1-3-0.6-3.9-1.7
	c-0.9-1.3-1.4-2.8-1.3-4.3c-0.1-1.6,0.5-3.3,1.6-4.5c1.1-1.1,2.7-1.7,4.3-1.7c0.4,0,0.9,0,1.3,0.1c0.4,0.1,0.8,0.2,1.1,0.4v-5.1h3.3
	L157.5,393.4z M154.2,389.8v-5.2c-0.2-0.3-0.6-0.5-0.9-0.6c-0.4-0.2-0.9-0.2-1.4-0.2c-0.8-0.1-1.5,0.2-2,0.8
	c-0.5,0.7-0.7,1.6-0.7,2.5c-0.1,0.9,0.2,1.9,0.7,2.6c0.5,0.6,1.2,0.9,1.9,0.9c0.5,0,0.9-0.1,1.4-0.3
	C153.6,390.3,153.9,390.1,154.2,389.8z"/>
<path class="st2" d="M129.4,391.9h-3.2l-1.6-7.9l-2.9,6.8h-1.4l-2.6-6.5l-1.6,7.6H113l3.2-14.2h1.2l3.8,8.4l3.8-8.4h1.3L129.4,391.9
	z"/>
<rect x="116.5" y="405.2" class="st1" width="94.5" height="28.6"/>
<rect x="111.5" y="98.5" class="st1" width="251" height="160.7"/>
<rect x="121.2" y="126.7" class="st2" width="231.1" height="122.1"/>
<rect x="111.4" y="98.4" class="st3" width="251" height="10.7"/>
<rect x="140.2" y="201.1" class="st1" width="58" height="35.1"/>
<rect x="126.8" y="113" class="st4" width="219.4" height="8.5"/>
<rect x="211.5" y="165.4" class="st1" width="127.8" height="70.6"/>
<rect x="211.2" y="138.4" class="st1" width="128.1" height="18.2"/>
<g id="g10" transform="matrix(0.31999998,0,0,0.31999998,-28.228901,-104.16556)">
	<g id="g313" transform="matrix(1.6717462,0,0,1.6717462,-189.56411,-422.43872)">
		<g>
			<defs>
				<polyline id="SVGID_3_" points="536.6,707.4 1082.1,707.4 1082.1,807.4 432.1,807.4 432.1,707.4 536.6,707.4 				"/>
			</defs>
			<clipPath id="SVGID_1_">
				<use xlink:href="#SVGID_3_"  style="overflow:visible;"/>
			</clipPath>
			<g id="g315" class="st16">
				<g id="g321" transform="matrix(3.125,0,0,3.125,170.83334,452.08334)">
					<path id="path323" class="st17" d="M156.7,87.8l-0.2,6.4l-0.6,0.5l-5.7-6.8l0.1,4.8c0,1,0.4,1.3,1.6,1.4v0.4h-4.1V94
						c1.1-0.1,1.4-0.4,1.5-1.4l0.2-4.1c0-1.4-0.3-1.8-1.4-2.1V86h2.3l5.4,6.5l-0.1-4.7c0-1-0.3-1.3-1.5-1.4V86h3.9v0.3
						C157,86.5,156.7,86.8,156.7,87.8 M166.8,94.3h-7V94c1.1-0.1,1.4-0.4,1.4-1.3v-4.8c0-1.1-0.2-1.3-1.1-1.5V86h6.3l0.2,1.9
						l-0.3,0.1c-0.1-0.5-0.4-0.8-0.8-1.1c-0.4-0.3-0.9-0.4-1.4-0.3l-1.5-0.1v3.2l1.2,0c0.9-0.1,1.1-0.3,1.4-1.2h0.3v3.1h-0.3
						c-0.3-0.9-0.5-1.2-1.4-1.2l-1.2-0.1v2.3c0,1,0.2,1.2,1.6,1.2c1.3,0,1.9-0.3,2.6-1.7l0.3,0.1L166.8,94.3z M180.4,87.7l-2.2,5.8
						c-0.1,0.4-0.3,0.7-0.6,1l-2.3-6.4l-2.3,5.5c-0.1,0.3-0.3,0.6-0.5,0.9l-2.6-7.4c-0.2-0.5-0.4-0.6-1-0.8V86h3.1v0.3
						c-0.4,0.1-0.7,0.3-0.7,0.5c0,0.2,0,0.3,0.1,0.5l1.6,4.8l1.7-4.1c0.1-0.3,0.2-0.6,0.2-0.9c0-0.4-0.2-0.7-1-0.8V86h3.3v0.3
						c-0.6,0.1-0.8,0.3-0.8,0.7c0,0.1,0,0.3,0.1,0.4l1.7,4.8l1.2-3.8c0.2-0.4,0.3-0.8,0.3-1.3c0-0.3-0.2-0.6-0.9-0.8V86h3.2v0.3
						c-0.4,0.1-0.7,0.2-1,0.5C180.6,87.1,180.5,87.4,180.4,87.7 M194.6,94.3h-7V94c1.1-0.1,1.4-0.4,1.4-1.3v-4.8
						c0-1.1-0.2-1.3-1.1-1.5V86h6.3l0.2,1.9l-0.3,0.1c-0.1-0.5-0.4-0.8-0.8-1.1c-0.4-0.3-0.9-0.4-1.4-0.3l-1.5-0.1v3.2l1.2,0
						c0.9-0.1,1.1-0.3,1.4-1.2h0.3v3.1H193c-0.3-0.9-0.5-1.2-1.4-1.2l-1.2-0.1v2.3c0,1,0.2,1.2,1.6,1.2c1.3,0,1.9-0.3,2.6-1.7
						l0.3,0.1L194.6,94.3z M206.2,87.8l-0.2,6.4l-0.6,0.5l-5.7-6.8l0.1,4.8c0,1,0.4,1.3,1.6,1.4v0.3h-4.1V94
						c1.1-0.1,1.4-0.4,1.5-1.4l0.2-4.1c0-1.4-0.3-1.8-1.4-2.1V86h2.3l5.4,6.5l-0.1-4.7c0-1-0.3-1.3-1.5-1.4V86h3.9v0.3
						C206.5,86.5,206.3,86.8,206.2,87.8 M217.7,91.9v0.8l0.2,1.3c-0.2,0-0.3,0-0.5-0.1c-0.2,0-0.1,0-1.4,0.3c-0.6,0.2-1.3,0.2-2,0.2
						c-1.2,0.1-2.3-0.2-3.3-1c-0.5-0.4-0.9-0.9-1.1-1.5c-0.3-0.6-0.4-1.2-0.4-1.8c0-2.6,1.8-4.4,5-4.4c1.1,0,2.1,0.2,3.1,0.6l0.1,2
						l-0.3,0.2c-1-1.7-1.7-2.1-3.2-2.1c-1.9,0-3.2,1.5-3.2,3.7c0,0.5,0,1,0.2,1.4c0.2,0.5,0.4,0.9,0.8,1.2c0.3,0.4,0.7,0.6,1.2,0.8
						c0.5,0.2,0.9,0.3,1.4,0.3c1.2,0,2-0.5,2-1.4V92c0-0.9-0.3-1.2-1.5-1.4v-0.4h4v0.3C217.9,90.8,217.7,91.1,217.7,91.9
						 M227.5,94.3h-6.9V94c1.1-0.1,1.4-0.4,1.4-1.3V88c0-1.1-0.2-1.4-1-1.7V86h3.8v0.3c-1.1,0.1-1.5,0.4-1.5,1.3v4.8
						c0,0.9,0.4,1.3,1.6,1.3c1.2,0,1.8-0.6,2.4-2.3l0.3,0.1L227.5,94.3z M235.1,90.9h-2.8l1.4-3.9L235.1,90.9z M238.3,94.3V94
						c-0.5-0.2-0.7-0.4-0.9-0.8l-2.9-7.3h-1.1l-2.7,6.7c-0.4,1-0.6,1.1-1.4,1.3v0.3h3.3V94c-0.7-0.1-0.8-0.2-0.9-0.3
						c-0.1-0.1-0.2-0.2-0.2-0.4c0-0.2,0.1-0.5,0.2-0.7l0.3-1h3.4l0.6,1.4c0.1,0.2,0.1,0.3,0.1,0.5c0,0.3-0.2,0.5-0.7,0.6v0.3
						L238.3,94.3z M248.7,87.8l-0.2,6.4l-0.6,0.5l-5.7-6.8l0.1,4.8c0,1,0.4,1.3,1.6,1.4v0.3h-4.1V94c1.1-0.1,1.4-0.4,1.5-1.4
						l0.2-4.1c0-1.4-0.3-1.8-1.4-2.1V86h2.3l5.4,6.5l-0.1-4.7c0-1-0.3-1.3-1.5-1.4V86h3.9v0.3C249,86.5,248.7,86.8,248.7,87.8
						 M259.6,90.3c0,0.5-0.1,0.9-0.3,1.4c-0.2,0.4-0.4,0.8-0.8,1.1c-0.3,0.3-0.7,0.6-1.2,0.7c-0.4,0.2-0.9,0.2-1.4,0.2
						c-1,0-1.4-0.5-1.4-1.4v-5.7c1-0.1,2,0.1,2.9,0.5c0.4,0.2,0.8,0.5,1.2,0.8C259.3,88.6,259.6,89.4,259.6,90.3 M261.1,90.2
						c0-0.8-0.2-1.5-0.6-2.1c-0.4-0.6-1-1.1-1.7-1.4c-1-0.5-2.1-0.7-3.3-0.6c-0.5,0-1.2,0-2.2,0.1l-1.2,0.1v0.3
						c0.9,0.1,1.1,0.3,1.1,1.4v4.5c0,1.1-0.3,1.4-1.5,1.5v0.3h2.5c0.9,0.1,1.6,0.1,2.1,0.1C259.2,94.3,261.1,92.7,261.1,90.2
						 M125.7,112.2c0.7-0.3,1.4-0.7,1.8-1.3s0.7-1.4,0.7-2.1l0-5.9c0-0.9-0.3-1.2-1.4-1.4v-0.3h4.2v0.4c-1,0.1-1.3,0.4-1.3,1.3
						l-0.1,5.5c0,0.5,0,1-0.2,1.5c-0.2,0.5-0.4,0.9-0.8,1.3c-0.3,0.4-0.7,0.7-1.2,0.9c-0.5,0.2-1,0.4-1.5,0.4L125.7,112.2z
						 M140.4,105.5c0,2.1-1.2,3.5-2.9,3.5c-1.9,0-3.3-1.7-3.3-3.9c0-2.1,1.2-3.6,2.9-3.6C139,101.5,140.4,103.3,140.4,105.5
						 M141.9,105.3c0-0.3,0-0.6-0.1-0.9c-0.1-0.3-0.1-0.6-0.3-0.9c-0.1-0.3-0.3-0.5-0.4-0.8s-0.4-0.5-0.6-0.7
						c-0.2-0.2-0.5-0.4-0.7-0.5s-0.5-0.3-0.8-0.4s-0.6-0.2-0.9-0.2c-0.3,0-0.6,0-0.9,0c-2.8,0-4.6,1.8-4.6,4.4
						c0,0.6,0.1,1.2,0.4,1.7c0.2,0.5,0.6,1,1,1.4c0.4,0.4,0.9,0.7,1.5,0.9c0.6,0.2,1.1,0.3,1.7,0.2
						C140,109.6,141.9,107.8,141.9,105.3 M151.9,102.9l-0.1,3c-0.1,2-0.3,2.2-0.9,2.8c-0.8,0.6-1.7,0.9-2.6,0.8
						c-0.8,0-1.5-0.2-2.2-0.5c-0.3-0.2-0.6-0.4-0.8-0.7c-0.4-0.6-0.6-1.4-0.5-2.1v-3.2c0-1-0.2-1.3-1-1.6v-0.4h3.9v0.4
						c-1.2,0.1-1.5,0.4-1.5,1.5v3.2c-0.1,0.8,0.2,1.5,0.8,2.1c0.5,0.4,1.1,0.7,1.8,0.7c0.7,0,1.3-0.2,1.8-0.7
						c0.5-0.5,0.7-1.2,0.6-1.9V106l-0.1-3.1c0-1-0.3-1.3-1.4-1.5v-0.3h3.5v0.3C152.1,101.7,152,101.9,151.9,102.9 M160.1,103.6
						c0,0.7-0.3,1.3-0.9,1.7c-0.3,0.1-0.5,0.1-0.8,0.1c-0.4,0-0.7-0.1-1-0.2v-3.5c1.4,0,1.6,0.1,2.1,0.5
						C159.9,102.6,160.1,103.1,160.1,103.6 M164,109.4v-0.2c-0.7,0-1.3-0.3-1.8-0.7c-0.9-0.9-1.7-1.8-2.4-2.9
						c0.5-0.4,0.9-0.8,1.2-1.3c0.2-0.4,0.3-0.8,0.3-1.3c0-1.3-0.9-2-2.5-2c-0.6,0-1.2,0.1-1.8,0.2l-2.3-0.1v0.3
						c1,0.3,1.2,0.6,1.2,1.6v4.7c0,0.9-0.3,1.2-1.4,1.3v0.3h4.1v-0.3c-1-0.1-1.3-0.5-1.3-1.3v-1.8c0.3,0,0.5,0,0.6,0
						c0.1,0,0.3,0,0.6,0c0.5,1,1.1,1.9,1.9,2.7c0.6,0.6,1.3,1,2.2,1C163.2,109.6,163.6,109.5,164,109.4 M173.9,102.9l-0.2,6.4
						l-0.6,0.5l-5.7-6.8l0.1,4.8c0,1,0.4,1.3,1.6,1.4v0.3h-4.1v-0.3c1.1-0.1,1.4-0.4,1.5-1.4l0.2-4.1c0-1.4-0.3-1.8-1.4-2.1v-0.4
						h2.3l5.4,6.5l-0.1-4.7c0-1-0.3-1.3-1.5-1.4v-0.4h3.9v0.4C174.2,101.6,174,101.9,173.9,102.9 M181.9,106h-2.8l1.4-3.9L181.9,106
						z M185.1,109.4v-0.3c-0.5-0.2-0.7-0.4-0.9-0.8l-2.9-7.3h-1.1l-2.7,6.7c-0.4,1-0.6,1.1-1.4,1.3v0.3h3.3v-0.3
						c-0.7-0.1-0.8-0.2-0.9-0.3c-0.1-0.1-0.2-0.2-0.2-0.4c0-0.2,0.1-0.5,0.2-0.7l0.3-1h3.4l0.6,1.4c0.1,0.2,0.1,0.3,0.1,0.5
						c0,0.3-0.2,0.4-0.7,0.6v0.4H185.1z M193.8,109.4H187v-0.3c1.1-0.1,1.4-0.4,1.4-1.3v-4.6c0-1.1-0.2-1.4-1-1.7v-0.3h3.8v0.3
						c-1.1,0.1-1.5,0.4-1.5,1.3v4.8c0,0.9,0.4,1.3,1.6,1.3c1.2,0,1.8-0.6,2.4-2.3l0.3,0.1L193.8,109.4z M221.1,109.4v-0.3
						c0.6-0.1,0.8-0.3,0.8-0.9V108l-0.5-5.4l-3,7.1l-3-7L215,107c0,0.3-0.1,0.6-0.1,0.9c0,0.8,0.3,1.1,1.2,1.2v0.4h-3.5v-0.4
						c0.9-0.2,1.2-0.5,1.4-1.3l0.7-4.3c0.1-0.6,0.1-1,0.1-1.2c0-0.5-0.4-0.8-1.2-0.8v-0.3h2.5l2.6,6l2.6-6h2.5v0.3
						c-0.8,0-1.1,0.2-1.1,0.8c0,0.1,0,0.2,0,0.3l0.6,5.6c0.1,0.6,0.3,0.8,0.9,0.8v0.4C224.2,109.4,221.1,109.4,221.1,109.4z
						 M233.1,109.4h-7v-0.3c1.1-0.1,1.4-0.4,1.4-1.3v-4.8c0-1.1-0.2-1.3-1.1-1.5v-0.3h6.3l0.2,1.9l-0.3,0.1
						c-0.1-0.5-0.4-0.8-0.8-1.1c-0.4-0.3-0.9-0.4-1.4-0.3l-1.5,0v3.2l1.2-0.1c0.9,0,1.1-0.3,1.4-1.2h0.3v3.1h-0.3
						c-0.3-0.9-0.5-1.2-1.4-1.2l-1.2-0.1v2.3c0,1,0.2,1.2,1.6,1.2c1.3,0,1.9-0.3,2.6-1.7l0.3,0.1L233.1,109.4z M243.6,105.4
						c0,0.5-0.1,0.9-0.3,1.4c-0.2,0.4-0.4,0.8-0.8,1.1c-0.3,0.3-0.7,0.6-1.2,0.7c-0.4,0.2-0.9,0.2-1.4,0.2c-1,0-1.4-0.5-1.4-1.4
						v-5.7c1-0.1,2,0.1,2.9,0.5c0.4,0.2,0.8,0.5,1.2,0.8C243.3,103.7,243.6,104.5,243.6,105.4 M245,105.3c0-0.8-0.2-1.5-0.6-2.1
						c-0.4-0.6-1-1.1-1.7-1.4c-1-0.5-2.1-0.7-3.3-0.6c-0.5,0-1.2,0-2.2,0.1l-1.2,0.1v0.3c0.9,0.1,1.1,0.3,1.1,1.4v4.5
						c0,1.1-0.3,1.4-1.5,1.5v0.3h2.5c0.9,0.1,1.6,0.1,2.1,0.1C243.1,109.4,245,107.8,245,105.3 M247.2,109.4v-0.3
						c1.1-0.1,1.5-0.4,1.5-1.3v-4.9c0-1-0.3-1.2-1.4-1.4v-0.3h4.2v0.3c-1.1,0.1-1.5,0.4-1.5,1.4v4.9c0,1,0.3,1.3,1.5,1.3v0.4
						L247.2,109.4z M261.1,109.2c-0.8,0.3-1.7,0.4-2.6,0.4c-1.1,0.1-2.1-0.2-3-0.9c-0.5-0.4-0.9-0.9-1.2-1.5
						c-0.3-0.6-0.4-1.2-0.4-1.9c0-2.6,1.8-4.3,4.7-4.3c1,0,1.9,0.2,2.7,0.6v2l-0.3,0.1c-0.2-0.6-0.6-1.1-1-1.6
						c-0.5-0.4-1-0.5-1.6-0.5c-1.8,0-3,1.5-3,3.6c0,2.2,1.5,3.9,3.1,3.9c0.7,0,1.2-0.2,1.8-0.6c0.5-0.4,0.9-0.9,1.1-1.5l0.3,0.1
						L261.1,109.2z M264,109.4v-0.3c1.1-0.1,1.5-0.4,1.5-1.3v-4.9c0-1-0.3-1.2-1.4-1.4v-0.4h4.2v0.4c-1.1,0.1-1.5,0.4-1.5,1.4v4.9
						c0,1,0.3,1.3,1.5,1.3v0.4L264,109.4z M279.4,102.9l-0.2,6.4l-0.6,0.5l-5.7-6.8l0.1,4.8c0,1,0.4,1.3,1.6,1.4v0.3h-4.1v-0.3
						c1.1-0.1,1.4-0.4,1.5-1.4l0.2-4.1c0-1.4-0.3-1.8-1.4-2.1v-0.4h2.3l5.4,6.5l-0.1-4.7c0-1-0.3-1.3-1.5-1.4v-0.4h3.9v0.4
						C279.7,101.6,279.4,101.9,279.4,102.9 M289.3,109.4h-7v-0.3c1.1-0.1,1.4-0.4,1.4-1.3v-4.8c0-1.1-0.2-1.3-1.1-1.5v-0.4h6.3
						l0.2,1.9l-0.3,0.1c-0.1-0.5-0.4-0.8-0.8-1.1c-0.4-0.3-0.9-0.4-1.4-0.3l-1.5,0v3.2l1.2,0c0.9-0.1,1.1-0.3,1.4-1.2h0.3v3.1h-0.3
						c-0.3-0.9-0.5-1.2-1.4-1.2l-1.2-0.1v2.3c0,1,0.2,1.2,1.6,1.2c1.3,0,1.9-0.3,2.6-1.7l0.3,0.1L289.3,109.4z M125.8,87.2l0-0.5
						l1.2,0.1h3.5l1.2-0.1l-0.1,0.5l-0.1,1.5l-0.4-0.1l-0.3-1.1l-0.1-0.1H129l-0.3,6.2l0.1,0.1l0.9,0.4l0,0.2h-3l0.1-0.2l0.9-0.4
						l0.1-0.1l0.3-6.2h-1.6l-0.1,0.1l-0.4,1.1l-0.4,0.1C125.7,88.8,125.8,87.2,125.8,87.2z M135.1,90.8c0-0.2,0-0.4,0-0.6
						c0-0.2,0-0.3-0.1-0.5l-0.2-0.1l-1.4,0.8l-0.1,2c0,0.1,0,0.3,0,0.4c0,0.1,0,0.3,0,0.5v0.5c0,0.1,0,0.3,0,0.4h-0.9l0.4-6.8
						l-0.6-1.2l1.4-0.3l0.1,0.1c-0.1,0.3-0.1,0.6-0.1,0.9c0,0.3-0.1,0.7-0.1,1l-0.1,2.1l0.1,0.1c0.3-0.4,0.6-0.7,1-1
						c0.2-0.2,0.5-0.3,0.8-0.3c0.5,0,0.7,0.3,0.6,0.9l-0.2,3.5l0,0.1l0.7-0.1c0,0.3-0.2,0.6-0.5,0.8c-0.3,0.2-0.6,0.3-0.9,0.3h-0.2
						L135.1,90.8z M138.7,94.3c-0.4,0-0.8-0.1-1-0.5c-0.3-0.5-0.4-1-0.3-1.6c0-0.5,0.1-0.9,0.2-1.4c0.1-0.4,0.2-0.8,0.4-1.1
						c0.2-0.3,0.4-0.5,0.7-0.7c0.2-0.2,0.5-0.3,0.8-0.3c0.7,0,1.1,0.3,1.1,1c0,0.3-0.1,0.5-0.2,0.7c-0.1,0.2-0.3,0.4-0.6,0.6
						c-0.2,0.2-0.5,0.3-0.8,0.5c-0.3,0.1-0.6,0.3-0.8,0.4v0.2c0,0.3,0,0.5,0,0.8c0,0.2,0.1,0.3,0.1,0.5c0.1,0.1,0.2,0.2,0.3,0.2
						c0.1,0.1,0.3,0.1,0.4,0.1c0.1,0,0.2,0,0.3,0c0.1,0,0.2-0.1,0.3-0.1l0.6-0.3l0,0.1c-0.2,0.3-0.4,0.6-0.7,0.8
						C139.3,94.2,139,94.3,138.7,94.3L138.7,94.3z M138.8,89.5c-0.2,0.3-0.3,0.5-0.4,0.8c-0.1,0.4-0.2,0.8-0.2,1.2
						c0.4-0.2,0.8-0.4,1.2-0.8c0.2-0.2,0.3-0.5,0.3-0.8c0-0.1,0-0.2-0.1-0.3c-0.1-0.1-0.2-0.1-0.3-0.1
						C139.3,89.5,138.8,89.5,138.8,89.5z"/>
					<path id="path325" class="st17" d="M199.5,107.5c0-0.5,0.1-1,0.2-1.4c0.1-0.4,0.3-0.8,0.5-1.2c0.2-0.3,0.5-0.6,0.8-0.8
						c0.4-0.2,0.7-0.3,1.2-0.3c0.5,0,0.9,0.2,1.2,0.5c0.3,0.5,0.5,1.1,0.4,1.7c0,0.5-0.1,1-0.2,1.4c-0.1,0.4-0.3,0.8-0.5,1.2
						c-0.2,0.3-0.5,0.6-0.8,0.8c-0.4,0.2-0.7,0.3-1.2,0.3c-0.5,0-0.9-0.2-1.2-0.5C199.6,108.7,199.5,108.1,199.5,107.5L199.5,107.5z
						 M200.4,107.3c0,0.3,0,0.6,0.1,0.8c0,0.2,0.1,0.4,0.2,0.5c0.1,0.1,0.2,0.2,0.4,0.3c0.2,0.1,0.4,0.1,0.5,0.1h0.6
						c0.1-0.2,0.2-0.3,0.3-0.5c0.1-0.2,0.2-0.4,0.2-0.7c0.1-0.3,0.1-0.5,0.1-0.8c0-0.3,0-0.6,0-0.9c0-0.3,0-0.6-0.1-0.8
						c0-0.2-0.1-0.4-0.2-0.5c-0.1-0.1-0.2-0.2-0.4-0.3c-0.2-0.1-0.4-0.1-0.5-0.1h-0.6c-0.1,0.1-0.2,0.3-0.3,0.5
						c-0.1,0.2-0.2,0.4-0.2,0.7c-0.1,0.3-0.1,0.5-0.1,0.8C200.4,106.7,200.4,107,200.4,107.3L200.4,107.3L200.4,107.3z M204.5,104h1
						l0.1-1.3c0-0.6,0.2-1.1,0.6-1.5c0.4-0.4,0.8-0.5,1.4-0.5c0.3,0,0.5,0,0.8,0.1c0.2,0.1,0.4,0.1,0.6,0.2l-0.3,0.8
						c-0.2-0.1-0.4-0.3-0.7-0.4c-0.2-0.1-0.5-0.2-0.8-0.3c-0.1,0-0.2,0.1-0.3,0.1c-0.1,0.1-0.1,0.2-0.2,0.3
						c-0.1,0.2-0.1,0.3-0.1,0.5c0,0.2-0.1,0.5-0.1,0.8l-0.1,1.1h1.3l-0.1,0.7h-1.3l-0.3,4.9c0,0.8-0.2,1.6-0.7,2.2
						c-0.4,0.5-0.9,0.7-1.5,0.7c-0.2,0-0.5,0-0.7-0.1c-0.2,0-0.4-0.1-0.7-0.2l0.4-0.9c0.2,0.2,0.5,0.3,0.7,0.4
						c0.2,0.1,0.5,0.2,0.7,0.3c0.1-0.1,0.2-0.1,0.3-0.3c0.1-0.1,0.2-0.3,0.2-0.5c0.1-0.2,0.1-0.5,0.2-0.7c0-0.3,0.1-0.7,0.1-1l0.3-5
						h-1L204.5,104z"/>
					<path id="path327" class="st18" d="M97.3,91.8c-0.1,0-0.1,0-0.1,0.1s0,0.1,0.1,0.1h0.6c0.1,0,0.1,0,0.1-0.1
						c0-0.1,0-0.1-0.1-0.1c-0.1,0-0.1-0.1-0.1-0.2v-1.4c0-0.1,0-0.2-0.1-0.2h-0.4c-0.1,0-0.1,0-0.1,0.1c0,0.1,0,0.1,0.1,0.1
						c0.1,0,0.1,0.1,0.1,0.2v1.2C97.4,91.7,97.4,91.8,97.3,91.8C97.3,91.8,97.3,91.8,97.3,91.8z M99.7,91.8c-0.1,0-0.1,0-0.1,0.1
						s0,0.1,0.1,0.1h0.6c0.1,0,0.1,0,0.1-0.1c0-0.1,0-0.1-0.1-0.1c-0.1,0-0.1-0.1-0.1-0.2v-1.4c0-0.1,0-0.2-0.1-0.2h-0.4
						c-0.1,0-0.1,0-0.1,0.1c0,0.1,0,0.1,0.1,0.1c0.1,0,0.1,0.1,0.1,0.2v1.2C99.8,91.7,99.8,91.8,99.7,91.8z M95,98.5
						c-0.1,0-0.2,0.1-0.2,0.2c0,0.2,0.2,0.4,0.6,0.4c0.4,0,0.7-0.2,0.7-0.6c0-0.2-0.1-0.4-0.3-0.5c0,0-0.1-0.1,0-0.1
						c0.1-0.1,0.2-0.3,0.2-0.4c0-0.1-0.1-0.2-0.2-0.3c-0.1-0.1-0.2-0.1-0.4-0.1c-0.3,0-0.5,0.2-0.5,0.4c0,0.1,0,0.2,0.2,0.2
						c0.1,0,0.1,0,0.1-0.1c0-0.1,0-0.1,0-0.2c0-0.1,0.1-0.1,0.1-0.1c0.1,0,0.2,0.1,0.2,0.3c0,0.2,0,0.3-0.2,0.4
						c-0.1,0-0.2,0-0.2,0.1c0,0.1,0.1,0.1,0.2,0.1c0.2,0,0.3,0.2,0.3,0.5c0,0.3-0.1,0.4-0.3,0.4c-0.1,0-0.2-0.1-0.2-0.2
						c0-0.1,0-0.1,0-0.1S95.1,98.5,95,98.5C95,98.5,95,98.5,95,98.5z M98.7,103.1c-0.2,0-0.3,0.1-0.5,0.2c-0.1,0.1-0.2,0.3-0.2,0.5
						c0,0.4,0.2,0.6,0.5,0.6c0.1,0,0.1,0,0.2,0c0.1,0,0.1,0,0.1,0.1c0,0.2-0.1,0.3-0.3,0.4c-0.1,0.1-0.2,0.1-0.2,0.2
						c0,0.1,0.1,0.1,0.1,0.1c0.2-0.1,0.4-0.2,0.5-0.3c0.3-0.2,0.4-0.6,0.4-0.9C99.3,103.4,99,103.1,98.7,103.1
						C98.7,103.1,98.7,103.1,98.7,103.1z M98.7,104.1c-0.2,0-0.3-0.2-0.3-0.4c0-0.3,0.1-0.4,0.3-0.4c0.1,0,0.3,0.1,0.3,0.5
						C98.9,104.1,98.8,104.1,98.7,104.1z M98.1,91.4c0,0.2,0.1,0.3,0.2,0.4c0.1,0.1,0.3,0.2,0.4,0.2h0c0.2,0,0.3-0.1,0.5-0.2
						c0.1-0.1,0.2-0.3,0.2-0.5c0-0.2-0.1-0.3-0.2-0.4c0,0,0-0.1,0-0.1c0.1-0.1,0.1-0.2,0.1-0.3c0-0.2-0.2-0.5-0.5-0.5h0
						c-0.1,0-0.3,0-0.4,0.1c-0.1,0.1-0.2,0.2-0.2,0.3c0,0.1,0,0.2,0.1,0.3c0,0,0,0.1,0,0.1C98.2,91.1,98.1,91.2,98.1,91.4L98.1,91.4
						z M98.8,90.2c0.1,0,0.2,0.1,0.2,0.3c0,0.2-0.1,0.3-0.2,0.3s-0.2-0.1-0.2-0.3C98.6,90.3,98.7,90.2,98.8,90.2L98.8,90.2z
						 M98.8,91c0.1,0,0.3,0.1,0.3,0.4c0,0.3-0.1,0.4-0.3,0.4v0c-0.2,0-0.3-0.1-0.3-0.4C98.5,91.1,98.6,91,98.8,91z M103.9,98.4
						c0,0.2,0.1,0.3,0.2,0.4c0.1,0.1,0.3,0.2,0.4,0.2h0v0c0.2,0,0.3,0,0.5-0.2c0.1-0.1,0.2-0.3,0.2-0.4c0-0.2-0.1-0.3-0.2-0.4
						c0,0,0-0.1,0-0.1c0.1-0.1,0.1-0.2,0.1-0.3c0-0.2-0.2-0.4-0.5-0.5v0h0l0,0c-0.1,0-0.3,0-0.4,0.1c-0.1,0.1-0.2,0.2-0.2,0.3
						c0,0.1,0,0.2,0.1,0.3c0,0,0,0.1,0,0.1C104,98.1,103.9,98.2,103.9,98.4C103.9,98.4,103.9,98.4,103.9,98.4z M104.5,97.2
						c0.1,0,0.2,0.1,0.2,0.3c0,0.2-0.1,0.3-0.2,0.3s-0.2-0.1-0.2-0.3C104.4,97.3,104.5,97.2,104.5,97.2L104.5,97.2z M104.5,98
						c0.1,0,0.3,0.1,0.3,0.4c0,0.3-0.1,0.4-0.3,0.4c-0.2,0-0.3-0.1-0.3-0.4C104.3,98.1,104.4,98,104.5,98z M108.1,98.4
						c0-0.2-0.1-0.3-0.2-0.4c0,0,0-0.1,0-0.1c0.1-0.1,0.1-0.2,0.1-0.3c0-0.2-0.2-0.5-0.5-0.5v0h0l0,0c-0.1,0-0.3,0-0.4,0.1
						c-0.1,0.1-0.2,0.2-0.2,0.3c0,0.1,0,0.2,0.1,0.3c0,0,0,0.1,0,0.1c-0.2,0.1-0.2,0.3-0.3,0.5c0,0.2,0.1,0.3,0.2,0.4
						c0.1,0.1,0.3,0.2,0.4,0.2h0v0c0.2,0,0.3,0,0.5-0.2C108.1,98.7,108.1,98.6,108.1,98.4z M107.5,97.2c0.1,0,0.2,0.1,0.2,0.3
						c0,0.2-0.1,0.3-0.2,0.3c-0.1,0-0.2-0.1-0.2-0.3C107.3,97.3,107.4,97.2,107.5,97.2C107.5,97.2,107.5,97.2,107.5,97.2z
						 M107.5,98.9c-0.2,0-0.3-0.1-0.3-0.4c0-0.3,0.1-0.4,0.3-0.4c0.2,0,0.3,0.1,0.3,0.4C107.8,98.7,107.6,98.9,107.5,98.9z M93,98
						c0,0,0-0.1,0-0.1c0.1-0.1,0.1-0.2,0.1-0.3c0-0.2-0.2-0.4-0.5-0.5v0h0c-0.1,0-0.3,0-0.4,0.1c-0.1,0.1-0.2,0.2-0.2,0.3
						c0,0.1,0,0.2,0.1,0.3c0,0,0,0.1,0,0.1c-0.2,0.1-0.2,0.3-0.3,0.5c0,0.2,0.1,0.3,0.2,0.4c0.1,0.1,0.3,0.2,0.4,0.2c0,0,0,0,0,0
						c0.2,0,0.3,0,0.5-0.2c0.1-0.1,0.2-0.3,0.2-0.5C93.3,98.2,93.2,98.1,93,98z M92.6,97.2c0.1,0,0.2,0.1,0.2,0.3
						c0,0.2-0.1,0.3-0.2,0.3c-0.1,0-0.2-0.1-0.2-0.3C92.5,97.3,92.6,97.2,92.6,97.2C92.6,97.2,92.6,97.2,92.6,97.2z M92.6,98.9
						c-0.2,0-0.3-0.1-0.3-0.4c0-0.3,0.1-0.4,0.3-0.4c0.2,0,0.3,0.1,0.3,0.4C92.9,98.7,92.8,98.9,92.6,98.9L92.6,98.9z M102,104
						c0,0,0-0.1,0-0.1c0.1-0.1,0.1-0.2,0.1-0.3c0-0.2-0.2-0.5-0.5-0.5h0c-0.1,0-0.3,0-0.4,0.1c-0.1,0.1-0.2,0.2-0.2,0.3
						c0,0.1,0,0.2,0.1,0.3c0,0,0,0.1,0,0.1c-0.2,0.1-0.2,0.3-0.3,0.5c0,0.2,0.1,0.3,0.2,0.4s0.3,0.2,0.4,0.2h0
						c0.2,0,0.3-0.1,0.5-0.2c0.1-0.1,0.2-0.3,0.2-0.5C102.3,104.3,102.2,104.1,102,104L102,104z M101.6,103.3c0.1,0,0.2,0.1,0.2,0.3
						c0,0.2-0.1,0.3-0.2,0.3c-0.1,0-0.2-0.1-0.2-0.3C101.5,103.4,101.5,103.3,101.6,103.3z M101.6,104.9c-0.2,0-0.3-0.1-0.3-0.4
						c0-0.3,0.1-0.4,0.3-0.4s0.3,0.1,0.3,0.4C101.9,104.8,101.8,104.9,101.6,104.9z M103.1,98.9c-0.1,0-0.1,0-0.1,0.1
						c0,0.1,0,0.1,0.1,0.1h0.6c0.1,0,0.1,0,0.1-0.1c0-0.1,0-0.1-0.1-0.1c-0.1,0-0.1-0.1-0.1-0.2v-1.4c0-0.1,0-0.2-0.1-0.2h-0.4
						c-0.1,0-0.1,0-0.1,0.1c0,0.1,0,0.1,0.1,0.1c0.1,0,0.1,0.1,0.1,0.2v1.2C103.2,98.7,103.2,98.8,103.1,98.9L103.1,98.9z
						 M106.4,98.1c0.1-0.1,0.2-0.3,0.2-0.5c0-0.2-0.1-0.3-0.2-0.4c-0.1-0.1-0.3-0.1-0.4-0.1c-0.4,0-0.5,0.2-0.5,0.4
						c0,0.2,0.1,0.3,0.2,0.3c0.1,0,0.2-0.1,0.2-0.2c0-0.1,0-0.1,0-0.2c0-0.1,0.1-0.1,0.2-0.1c0.2,0,0.3,0.2,0.2,0.4
						c0,0.1-0.1,0.3-0.2,0.4c-0.1,0.1-0.4,0.3-0.6,0.5c-0.2,0.2-0.2,0.2-0.2,0.3c0,0.1,0.1,0.1,0.2,0.1h0.9c0.1,0,0.1,0,0.1-0.1
						c0-0.1,0-0.2,0-0.3c0-0.1,0-0.1-0.1-0.1c-0.1,0-0.1,0.1-0.1,0.1c0,0-0.1,0-0.2,0h-0.3C105.7,98.6,106.2,98.3,106.4,98.1z
						 M93.6,98.6c-0.2,0.2-0.2,0.2-0.2,0.3c0,0.1,0.1,0.1,0.2,0.1h0.9c0.1,0,0.1,0,0.1,0c0-0.1,0-0.2,0-0.3c0-0.1,0-0.1-0.1-0.1
						c0,0-0.1,0.1-0.1,0.1c0,0-0.1,0-0.2,0h-0.3c-0.2-0.1,0.4-0.4,0.6-0.6c0.1-0.1,0.2-0.3,0.2-0.5c0-0.2-0.1-0.3-0.2-0.4
						c-0.1-0.1-0.3-0.1-0.4-0.1c-0.4,0-0.6,0.2-0.6,0.4c0,0.2,0.1,0.3,0.2,0.3c0.1,0,0.2-0.1,0.2-0.2c0-0.1,0-0.1,0-0.2
						c0-0.1,0.1-0.1,0.2-0.1c0.2,0,0.3,0.2,0.2,0.4c0,0.1-0.1,0.3-0.2,0.4C94.1,98.2,93.7,98.4,93.6,98.6z M100.5,104.1
						c0.1-0.1,0.2-0.3,0.2-0.5c0-0.2-0.1-0.3-0.2-0.4c-0.1-0.1-0.3-0.1-0.4-0.1c-0.4,0-0.6,0.2-0.6,0.4c0,0.2,0.1,0.3,0.2,0.3
						c0.1,0,0.2-0.1,0.2-0.2c0-0.1,0-0.1,0-0.2c0-0.1,0.1-0.1,0.2-0.1c0.2,0,0.3,0.2,0.2,0.4c0,0.1-0.1,0.3-0.1,0.4
						c-0.1,0.1-0.4,0.3-0.6,0.5c-0.2,0.2-0.2,0.2-0.2,0.3c0,0.1,0.1,0.1,0.2,0.1h0.9c0.1,0,0.1,0,0.1-0.1c0-0.1,0-0.2,0-0.3
						c0-0.1,0-0.1-0.1-0.1c0,0-0.1,0.1-0.1,0.1c0,0-0.1,0.1-0.2,0.1H100C99.8,104.7,100.4,104.3,100.5,104.1z M100.8,91.5
						c-0.2,0.2-0.2,0.2-0.2,0.3c0,0.1,0.1,0.1,0.2,0.1h0.9c0.1,0,0.1,0,0.1,0c0-0.1,0-0.2,0-0.3c0-0.1,0-0.1-0.1-0.1
						c-0.1,0-0.1,0.1-0.1,0.1c0,0-0.1,0.1-0.2,0.1h-0.4c-0.1-0.1,0.4-0.4,0.6-0.6c0.1-0.1,0.2-0.3,0.2-0.5c0-0.2-0.1-0.3-0.2-0.4
						c-0.1-0.1-0.3-0.1-0.4-0.1c-0.4,0-0.6,0.2-0.6,0.4c0,0.2,0.1,0.3,0.2,0.3c0.1,0,0.2-0.1,0.2-0.2c0-0.1,0-0.1,0-0.2
						c0-0.1,0.1-0.1,0.2-0.1c0.2,0,0.3,0.2,0.2,0.4c0,0.1-0.1,0.3-0.2,0.4C101.3,91.1,101,91.4,100.8,91.5z M91.8,98.9
						c-0.1,0-0.1-0.1-0.1-0.2v-1.4c0-0.1,0-0.2-0.1-0.2h-0.4c-0.1,0-0.1,0-0.1,0.1c0,0.1,0,0.1,0.1,0.1c0.1,0,0.1,0.1,0.1,0.2v1.2
						c0,0.1,0,0.2-0.1,0.2c-0.1,0-0.1,0-0.1,0.1c0,0.1,0,0.1,0.1,0.1h0.6c0.1,0,0.1,0,0.1-0.1C91.9,98.9,91.8,98.9,91.8,98.9
						C91.8,98.9,91.8,98.9,91.8,98.9z M97.8,104.9c-0.1,0-0.1-0.1-0.1-0.2v-1.4c0-0.1,0-0.2-0.1-0.2h-0.4c-0.1,0-0.1,0-0.1,0.1
						c0,0.1,0,0.1,0.1,0.1c0.1,0,0.1,0.1,0.1,0.2v1.2c0,0.1,0,0.2-0.1,0.2c-0.1,0-0.1,0-0.1,0.1c0,0.1,0,0.1,0.1,0.1h0.6
						c0.1,0,0.1,0,0.1-0.1C97.9,104.9,97.8,104.9,97.8,104.9L97.8,104.9z"/>
					<path id="path329" class="st18" d="M104.8,92.1c-2.1,1.4-3.9,3-5.5,4.9c-0.4-0.4-0.8-0.9-1.2-1.2c0.1-0.5,0-0.9-0.3-1.2
						c-0.3-0.3-0.8-0.5-1.2-0.4l-0.9-0.9c0.3,0,0.5,0.1,0.8,0.1c0.2,0,0.3,0,0.5,0c0.1-0.1,0.2-0.1,0.3-0.1c0.1,0,0.2-0.1,0.2-0.1
						c0-0.2-0.1-0.5-0.5-0.7c-0.3-0.2-0.6-0.2-0.9-0.2c-0.2,0-0.3,0.1-0.5,0.2c-0.1,0.1-0.2,0.1-0.4,0.1c0,0,0,0-0.1,0
						c-0.3-0.4-0.5-0.5-0.5-0.6c-0.2-0.2-0.3-0.3-0.3-0.4c0-0.2,0-0.3-0.1-0.4c-0.1-0.1-0.3-0.1-0.4,0c-0.1,0.1-0.2,0.1-0.3,0.1
						l-0.1,0c-0.2,0-0.3,0-0.4,0.1c-0.1,0.1-0.2,0.3-0.2,0.5c0,0.1,0,0.2,0,0.2l0,0.1c0,0.3,0.1,0.5,0.2,0.7
						c0.1,0.1,0.2,0.2,0.3,0.2c0.2,0.2,0.3,0.5,0.4,0.7c0,0.1,0.1,0.1,0.1,0.2c0,0.4,0.2,0.7,0.5,1c0.5,0.4,0.8,0.3,1.6,0.3
						c0.3,0.2,0.6,0.5,0.9,0.8c0,0,0.1,0.1,0.2,0.2c-0.1,0.5,0.1,1,0.4,1.5c0.3,0.2,0.6,0.4,1,0.4c-0.1,0.2-0.3,0.3-0.4,0.5
						c-0.2,0.2-0.4,0.5-0.5,0.7c0,0.2-0.2,0.4-0.4,0.4c-1.5,1.1-2.7,2.5-3.6,4.1c-0.1,0.2-0.1,0.3,0.2,0.1c0.7-0.5,1.4-1,2.2-1.3
						c0.6-0.8,1.1-1.6,1.6-2.5c0,0,1.3-0.6,1.4-0.9c0,0,0.4-0.2,1-0.5l0.5,0.4c0,0.3,0.1,0.6,0.4,0.9c0.2,0.2,0.5,0.2,0.8,0.2
						c0.3,0.3,0.7,0.6,1,0.9c0.1,0.4,0.2,0.7,0.5,1c0.3,0.2,0.6,0.3,0.9,0.3l1.9,1.7c0.2,0.2,0.4,0.2,0.5,0.1l0,0l0,0
						c0.1-0.1,0.1-0.3-0.1-0.5l-0.4-0.4c-0.2-0.2-0.5-0.5-0.7-0.7c-0.1-0.2-0.1-0.4-0.3-0.6c-0.2-0.2-0.4-0.3-0.6-0.3
						c-0.3-0.3-0.6-0.6-0.9-0.9c-0.1-0.4-0.2-0.7-0.5-1c-0.2-0.2-0.5-0.3-0.8-0.3c-0.3-0.3-0.6-0.6-0.8-0.8c0-0.1,0-0.3-0.1-0.4
						c0.5-0.3,0.8-0.5,0.6-0.7c0,0,1.5-0.8,1.2-1.1c0,0,2.4-1.5,1.9-1.7c0,0,1.7-1.5,1-1.6c0,0,1.3-1.3,0.9-1.7
						C106.3,91.4,105.7,91.6,104.8,92.1C104.8,92.1,104.8,92.1,104.8,92.1z M95.5,102.4c-0.2,0.1-0.5,0.2-0.7,0.4
						c0.5-0.7,1-1.4,1.7-2C96.2,101.4,95.8,101.9,95.5,102.4z M104.9,102.9l0.6,0.6l0.4,0.4c0.1,0.1,0.1,0.1,0,0.2c0,0,0,0,0,0
						c-0.1,0-0.2,0-0.3-0.1l-0.6-0.5C104.9,103.4,104.9,103.2,104.9,102.9C104.9,102.9,104.9,102.9,104.9,102.9z M103.9,101.9
						c0,0.1,0.1,0.1,0.1,0.1c0,0,0,0,0.1,0l0.1,0.1c0.1,0.1,0.2,0.3,0.2,0.5c0,0.1,0,0.2,0,0.2l-0.9-0.8c-0.3-0.3-0.4-0.6-0.4-1
						C103.1,101.1,103.9,101.9,103.9,101.9z M103.2,101.8c0,0-0.1,0.1-0.2,0.1c-0.1,0-0.2,0-0.2-0.1s0.1-0.1,0.2-0.1
						C103.1,101.8,103.2,101.8,103.2,101.8z M102.9,101.3c0.1,0,0.2,0,0.2,0.1c0,0-0.1,0.1-0.2,0.1c-0.1,0-0.2-0.1-0.2-0.1
						C102.7,101.4,102.8,101.3,102.9,101.3L102.9,101.3z M97.4,94.8c0.2-0.1,0.2-0.1,0.3,0c0,0,0,0.1-0.2,0.2
						c-0.2,0.1-0.2,0.1-0.3,0C97.2,95,97.3,94.9,97.4,94.8L97.4,94.8z M97.2,95.8c0-0.1,0.1-0.2,0.1-0.3c0-0.1,0.1-0.2,0.2-0.2
						s0.3,0.1,0.3,0.2c0,0.1,0,0.1-0.1,0.1c-0.1,0-0.1,0.1-0.1,0.2c0,0.1,0.1,0.1,0.2,0.1c0.1,0,0.1,0.1,0.1,0.1
						c0,0.1-0.1,0.1-0.2,0.1c-0.1,0-0.1,0.1,0,0.1c0.2,0,0.2,0.1,0.2,0.2c0,0.1-0.2,0.1-0.4,0C97.1,96.2,97.1,95.9,97.2,95.8
						L97.2,95.8z M95.6,92.9c0.1-0.1,0.1-0.2,0.2-0.2c0.3-0.1,0.6-0.1,0.9,0.1c0.2,0.1,0.3,0.2,0.2,0.3c-0.1,0-0.1,0-0.2,0
						c-0.1,0-0.1,0-0.2,0c0,0-0.1,0.1-0.2,0.1c-0.1,0-0.1,0-0.2,0C96.1,93,96,93,95.9,93c0,0,0,0,0,0.1c0,0,0,0,0,0.1
						c0,0,0,0.1,0,0.1c0,0-0.1,0-0.2,0C95.6,93.1,95.5,93,95.6,92.9z M95.3,93c0,0,0.1,0,0.1,0.1c0,0.1,0,0.1,0,0.2
						c-0.1,0-0.1,0-0.1-0.1C95.3,93,95.3,93,95.3,93z M94.9,92.8c0.1,0,0.1,0,0.2,0.1c0,0.1,0,0.2,0,0.3c-0.1,0-0.1,0-0.1-0.1
						c0-0.1,0-0.1,0-0.1C94.9,92.9,94.9,92.9,94.9,92.8z M94.8,93c0.1,0.1,0.1,0.3,0.1,0.3c0,0-0.1,0-0.1,0c0,0,0,0-0.1-0.1
						c0-0.1,0-0.1-0.1-0.2c-0.1-0.1-0.1-0.1-0.1-0.1C94.6,92.9,94.7,92.9,94.8,93z M94.5,93.6C94.5,93.6,94.5,93.7,94.5,93.6
						c-0.1,0.1-0.2,0-0.2,0c-0.1,0-0.1-0.1-0.2-0.1c-0.2-0.1-0.1-0.3,0-0.4c0.1-0.1,0.1-0.1,0.2-0.1c0.1,0,0.2,0,0.2,0.1
						c0,0.1,0,0.1,0,0.2C94.6,93.5,94.6,93.5,94.5,93.6C94.5,93.6,94.5,93.6,94.5,93.6z M93.2,93c-0.1,0-0.2-0.1-0.2-0.2
						c-0.1-0.1-0.2-0.3-0.2-0.5c0-0.1,0-0.2,0-0.3c0-0.1,0-0.3,0.1-0.4c0.1-0.1,0.2-0.1,0.3-0.1l0.1,0c0.1,0,0.2,0,0.3,0
						c0.1,0,0.2,0,0.2,0c0.1,0.1,0.1,0.2,0,0.4c0,0.2,0.1,0.3,0.3,0.4c0,0,0.1,0.1,0.4,0.4c-0.2,0.1-0.4,0.2-0.6,0.3
						c-0.2,0.2-0.3,0.4-0.3,0.6C93.6,93.4,93.5,93.2,93.2,93z M93.9,93.7c0.1,0,0.2-0.1,0.3,0c0.1,0,0.2,0.1,0.2,0.1c0,0,0,0-0.1,0
						c-0.1,0-0.2,0-0.3,0C93.8,93.9,93.8,93.8,93.9,93.7z M93.9,94.2C94,94,94.1,94,94.2,94c0.1,0,0.1,0,0.2,0c0.1,0,0.1,0.1,0,0.1
						c0,0-0.1,0.1-0.2,0.1c0,0-0.1,0-0.1,0.1c0,0-0.1,0.1-0.1,0.1C93.9,94.3,93.9,94.2,93.9,94.2z M94.1,94.7
						C94.1,94.7,94.1,94.7,94.1,94.7c0-0.2,0-0.2,0.1-0.3c0.1,0,0.2-0.1,0.2,0c0,0,0,0.1,0,0.1c-0.1,0-0.2,0.1-0.2,0.2
						C94.2,94.7,94.1,94.7,94.1,94.7z M94.4,94.8c0,0.1-0.1,0.1-0.1,0c0,0,0-0.1,0-0.1c0-0.1,0.1-0.1,0.1-0.1c0.1,0,0.1,0,0.1,0.1
						C94.5,94.7,94.4,94.8,94.4,94.8C94.4,94.8,94.4,94.8,94.4,94.8z M94.7,95C94.7,95,94.6,95,94.7,95C94.6,95,94.6,95,94.7,95
						c-0.1,0-0.1-0.1-0.1-0.1c0-0.1,0.1-0.1,0.1,0c0,0,0,0,0,0.1C94.7,94.9,94.7,94.9,94.7,95C94.7,95,94.7,95,94.7,95z M96.9,96.1
						c-0.2-0.1-0.2-0.3-0.3-0.5c0-0.2-0.1-0.3-0.2-0.4c-0.1-0.1-0.2,0-0.2,0.1c0,0.1-0.2,0.2-0.4,0.1l0,0c-0.2-0.1-0.3-0.2-0.5-0.3
						c-0.1-0.1-0.3-0.2-0.4-0.2c-0.2-0.1-0.3-0.3-0.3-0.4c0.1-0.1,0.2-0.2,0.4-0.2c0.2,0,0.3,0.2,0.4,0.3c0.1,0.1,0.1,0.2,0.2,0.1
						c0.1-0.1-0.1-0.3-0.2-0.4c-0.1-0.2-0.3-0.3-0.4-0.4c-0.2-0.1-0.3,0-0.5,0c0-0.1,0.1-0.2,0.1-0.3c0.2-0.2,0.3-0.3,0.6-0.3
						c0.4,0.4,0.8,0.8,1.5,1.4l0,0l0,0l0,0C96.9,94.9,97,95.2,96.9,96.1L96.9,96.1z M97,94.7c0,0,0-0.1,0-0.2c0-0.1,0.1-0.1,0.1-0.1
						c0,0,0.1,0.1,0,0.2C97.1,94.7,97,94.7,97,94.7z M97.2,97.3C97,97.2,97,97.1,97.1,97c0-0.1,0.1-0.1,0.2-0.1c0.1,0,0.1-0.1,0-0.1
						c-0.1,0-0.3-0.2-0.2-0.3c0,0,0.1,0,0.2,0c0.1,0,0.1,0,0.2,0c0.1,0,0.2,0,0.2,0.1c0,0.1,0,0.3,0,0.4c0,0.1,0,0.2-0.1,0.3
						C97.4,97.4,97.3,97.4,97.2,97.3C97.2,97.3,97.2,97.3,97.2,97.3z M97.8,97.8c-0.1,0.1-0.2,0.1-0.3,0.1c-0.1-0.1-0.2-0.2-0.1-0.2
						c0.1,0,0.2-0.1,0.1-0.1c0,0,0-0.1,0-0.1c0.1,0,0.2,0,0.2,0.1C97.9,97.6,97.9,97.7,97.8,97.8z M98.1,98c-0.1,0-0.1-0.1-0.1-0.1
						c0,0,0.1,0,0.2,0c0.1,0,0.1,0.1,0.1,0.1C98.3,98,98.2,98,98.1,98L98.1,98z M98.6,98.9c0.1-0.1,0.2-0.3,0.5-0.5l0.4,0.3
						C98.5,99.2,98.5,99,98.6,98.9L98.6,98.9z M100.2,98.8c0,0.1,0,0.2,0,0.3c-0.7-0.6-1.3-1.1-1.8-1.6c-0.2-0.2-0.3-0.5-0.3-0.9
						c0-0.2,0-0.4,0-0.5c0.4,0.4,0.8,0.8,1.2,1.2l0.6,0.5C100.1,98.1,100.2,98.5,100.2,98.8z M100.5,99.4c0-0.1,0.1-0.1,0.2-0.1
						s0.2,0,0.2,0.1c0,0-0.1,0.1-0.2,0.1C100.6,99.5,100.5,99.4,100.5,99.4C100.5,99.4,100.5,99.4,100.5,99.4z M100.7,99.9
						c-0.1,0-0.2,0-0.2-0.1c0,0,0.1-0.1,0.2-0.1c0.1,0,0.2,0,0.2,0.1C100.9,99.8,100.8,99.9,100.7,99.9z M100.9,98.9l0.8,0.8l0,0
						c0.3,0.3,0.5,0.6,0.5,1.1c0,0.1,0,0.1,0,0.2c-0.4-0.3-0.8-0.7-1.2-1.1c-0.1-0.3-0.1-0.5-0.1-0.8C100.9,99,100.9,99,100.9,98.9
						L100.9,98.9z M104.1,95c1.1-0.2-2,1.7-2,1.7c0.9-0.1-1.1,0.9-1.1,0.9c0.2,0.1,0,0.2-0.3,0.4c0-0.1-0.1-0.2-0.2-0.3
						c-0.1-0.1-0.3-0.2-0.5-0.3c1-0.9,2.3-2,2.8-2.5c0.8-0.7,1.7-1.4,2.6-2c0.2,0.1-0.3,0.6-0.3,0.6C106,93.4,104.1,95,104.1,95z
						 M103.4,94c-1.1,0.8-3.2,3-3.6,3.3c0,0-0.1,0-0.1,0c0.9-1.1,2-2.2,3.1-3.2c2.2-1.9,3.4-2.4,3.5-2.4
						C105.4,92.6,104.4,93.3,103.4,94z"/>
					<path id="path331" class="st18" d="M93.2,91.7c-0.1,0.1,0,0.1,0,0.2c0,0.1,0.1,0.1,0.1,0.2s0,0.1,0.2,0.2
						c0.1,0.1,0.2,0.1,0.3,0.1c0.1-0.1,0-0.2-0.1-0.4C93.5,91.7,93.3,91.6,93.2,91.7z M93.7,92.8c-0.1-0.1-0.2-0.1-0.3-0.2
						c-0.1-0.1-0.1-0.2-0.2-0.2c-0.1,0.1-0.1,0.3,0.1,0.4c0.2,0.2,0.3,0.2,0.4,0.2C93.8,93,93.8,92.9,93.7,92.8z"/>
					<path id="path333" class="st18" d="M96.3,92.7c0,0.1,0,0.1-0.1,0.1s-0.1,0-0.1-0.1s0-0.1,0.1-0.1S96.3,92.7,96.3,92.7z"/>
					<path id="path335" class="st18" d="M106.8,89.9l1.2-0.5c0,0,0.1,0,0,0l-0.7,1c-0.1,0.2,0.1,0.3,0.2,0.2l2.4-1.4
						c0.1,0,0.1,0,0.2-0.1c0,0,0.1,0,0.1-0.1c0,0,0-0.1,0-0.1l-0.2-0.3c0,0-0.1,0-0.1,0c0,0-0.1,0-0.1,0.1c0,0,0,0.1,0,0.1
						c0,0.1-0.1,0.1-0.2,0.2c-0.1,0-0.7,0.4-1,0.6c0,0-0.1,0-0.1,0l0.7-0.8c0.1-0.1,0.1-0.2,0.2-0.2c0.1,0,0.1,0,0.2,0
						c0,0,0-0.1,0-0.1c0,0,0-0.1-0.1-0.1l-0.4-0.4c0,0-0.1,0-0.1,0c0,0-0.1,0-0.1,0.1c0,0.1,0,0.1,0,0.2c-0.1,0.2-0.2,0.3-0.3,0.5
						l-0.7,0.3c-0.1,0-0.1,0-0.1,0l0.5-0.9c0-0.1,0.1-0.2,0.2-0.2c0.1,0,0.1,0,0.2-0.1c0,0,0-0.1,0-0.1c0,0,0-0.1-0.1-0.1l-0.5-0.4
						c-0.1-0.1-0.1-0.1-0.2,0c0,0.1,0,0.1,0,0.2c0,0.1-0.1,0.2-0.2,0.3l-1.2,2C106.5,89.8,106.7,89.9,106.8,89.9z M104.8,88.1
						c-0.1,0-0.1,0.1-0.2,0.1c0,0,0,0.1,0,0.1c0,0,0,0.1,0.1,0.1l1.2,0.8c0.1,0.1,0.2,0.1,0.2,0c0.1-0.1,0.3-0.4,0.3-0.4
						c0-0.1,0.1-0.1,0-0.2c-0.1-0.1-0.2,0.1-0.4,0.2c-0.1,0-0.2,0-0.3-0.1l-0.2-0.1c-0.1-0.1-0.1-0.1-0.1-0.2c0,0,0.4-0.6,0.4-0.6
						c0,0,0.1-0.1,0.1,0c0.1,0.1,0.2,0.1,0.2,0.2c0,0,0,0.2,0,0.2c0.1,0,0.1,0,0.2-0.1l0.2-0.3c0.1-0.1,0.1-0.2,0-0.2
						c-0.1-0.1-0.2,0-0.2,0c-0.1,0-0.1,0-0.2-0.1c0,0-0.1-0.1-0.1-0.2c0,0,0.3-0.5,0.4-0.6c0.1-0.1,0.3,0,0.4,0.1
						c0.1,0.1,0.2,0.2,0.2,0.3c0,0.1,0,0.1,0.1,0.1c0,0,0.1,0,0.2-0.1c0,0,0.1-0.2,0.2-0.3c0-0.1,0-0.1,0-0.2l-1.1-0.7
						c-0.1,0-0.1,0-0.2,0c0,0,0,0.1,0,0.2c0,0.1-0.1,0.2-0.1,0.3l-1,1.5C105,88,104.9,88.1,104.8,88.1L104.8,88.1z M86.2,96.5
						c0,0,0.1,0,0.2-0.1c0.1,0,0.2,0,0.3,0l1.7,0.2c0.1,0,0.2,0,0.3,0.1c0.1,0,0.1,0.1,0.1,0.1c0.1,0,0.1,0,0.1-0.1l0.2-1.3
						c0-0.1,0-0.2-0.1-0.2c-0.1,0-0.5-0.1-0.5-0.1c-0.1,0-0.1,0-0.1,0.1c0,0.1,0.2,0.2,0.3,0.3c0.1,0.1,0.1,0.2,0.1,0.3l0,0.2
						c0,0.1-0.1,0.2-0.2,0.2c0,0-0.6-0.1-0.8-0.1c-0.1,0-0.1-0.1-0.1-0.1c0-0.1,0-0.2,0.1-0.2c0,0,0.1,0,0.2-0.1
						c0-0.1-0.1-0.1-0.2-0.1l-0.4,0c-0.1,0-0.2,0-0.2,0.1c0,0.1,0.1,0.1,0.1,0.2c0,0,0,0.1,0,0.2c0,0.1,0,0.1-0.1,0.1
						c0,0-0.6-0.1-0.7-0.1c-0.1,0-0.1-0.3,0-0.4c0-0.1,0.1-0.2,0.2-0.3c0.1,0,0.1-0.1,0.1-0.1c0,0,0-0.1-0.1-0.1c0,0-0.2,0-0.3,0
						c-0.1,0-0.1,0-0.1,0.1l-0.2,1.4C86,96.4,86.1,96.5,86.2,96.5C86.2,96.5,86.2,96.5,86.2,96.5z M94.3,85.5
						c0.1,0.1,0.1,0.2,0.1,0.3l0.6,1.7c0,0.1,0.1,0.2,0.1,0.3c0,0.1,0,0.1,0,0.2c0,0,0,0.1,0.1,0.1c0,0,0.1,0,0.1,0l1.3-0.5
						c0.1,0,0.1-0.1,0.1-0.2c0-0.1-0.1-0.5-0.1-0.5c0-0.1-0.1-0.1-0.1-0.1c-0.1,0-0.1,0.3-0.1,0.4c0,0.1-0.1,0.2-0.3,0.2l-0.2,0.1
						c-0.1,0-0.2,0-0.2-0.1c0,0-0.2-0.6-0.2-0.7c0-0.1,0-0.1,0.1-0.1c0.1,0,0.2-0.1,0.3,0c0,0,0.1,0.1,0.2,0.1c0.1,0,0-0.1,0-0.2
						L95.7,86c0-0.1-0.1-0.2-0.2-0.2c-0.1,0-0.1,0.1-0.1,0.2c0,0.1-0.1,0.1-0.2,0.1c-0.1,0-0.1,0-0.1,0c0,0-0.2-0.5-0.2-0.7
						c0-0.1,0.2-0.2,0.4-0.3c0.1,0,0.3,0,0.4,0.1c0.1,0,0.1,0.1,0.1,0c0,0,0.1-0.1,0-0.2l-0.1-0.3c0-0.1-0.1-0.1-0.1-0.1l-1.3,0.5
						c0,0-0.1,0-0.1,0.1s0,0.1,0,0.1C94.2,85.4,94.2,85.4,94.3,85.5z M109,92.1c-0.1,0-0.1,0-0.2,0c0,0-0.1,0-0.1,0.1
						c0,0,0,0.1,0,0.1l0.6,1.2c0,0.1,0.1,0.1,0.2,0.1c0.1,0,0.5-0.2,0.5-0.2c0.1,0,0.1-0.1,0.1-0.1c-0.1-0.1-0.3,0-0.4,0
						c-0.1,0-0.2-0.1-0.2-0.2l-0.1-0.2c0,0,0-0.1,0-0.1c0-0.1,0-0.1,0.1-0.1c0,0,0.6-0.3,0.7-0.4c0.1,0,0.1,0,0.1,0
						c0.1,0.1,0.1,0.2,0.1,0.2c0,0-0.1,0.1-0.1,0.2c0,0.1,0.1,0,0.2,0l0.3-0.2c0.1,0,0.2-0.1,0.1-0.2c0-0.1-0.1-0.1-0.2-0.1
						c-0.1,0-0.1-0.1-0.2-0.2c0-0.1,0-0.1,0-0.1c0,0,0.5-0.3,0.6-0.3c0.1-0.1,0.2,0.2,0.3,0.3c0,0.1,0,0.2,0,0.4c0,0.1,0,0.1,0,0.1
						c0,0,0.1,0,0.2,0l0.3-0.2c0.1,0,0.1-0.1,0.1-0.1l-0.7-1.3c0,0,0-0.1-0.1-0.1c0,0-0.1,0-0.1,0c0,0,0,0.1-0.1,0.2
						c-0.1,0.1-0.2,0.1-0.3,0.2l-1.5,0.8C109.2,92,109.1,92.1,109,92.1L109,92.1z M89.7,102.3c0.1,0,0.1,0,0.2,0c0,0,0.1,0,0.1-0.1
						c0,0,0-0.1,0-0.1l-0.2-0.5c0-0.1-0.1-0.1-0.2-0.1c0,0-0.1,0.1-0.1,0.1c-0.1,0.1-0.2,0.1-0.3,0.2c0,0-0.5,0.2-0.6,0.2
						c-0.1,0-0.1,0-0.1-0.1c0-0.1-0.1-0.2,0-0.3c0,0,0.1-0.1,0.1-0.2c0-0.1-0.1,0-0.2,0l-0.3,0.1c-0.1,0-0.2,0.1-0.2,0.2
						c0,0.1,0.1,0.1,0.2,0.1c0.1,0,0.1,0.1,0.1,0.2c0,0,0,0.1,0,0.1c0,0-0.5,0.2-0.7,0.3c-0.1,0-0.2-0.1-0.2-0.3
						c0-0.1,0-0.3,0.1-0.4c0-0.1,0.1-0.1,0-0.1c0,0-0.1-0.1-0.2,0c0,0-0.2,0.1-0.3,0.1c-0.1,0-0.1,0.1-0.1,0.1l0.5,1.2
						c0,0,0,0.1,0.1,0.1c0,0,0.1,0,0.1,0c0,0,0.1-0.1,0.1-0.1c0.1-0.1,0.2-0.1,0.3-0.2l1.6-0.6C89.5,102.3,89.6,102.3,89.7,102.3
						C89.7,102.3,89.7,102.3,89.7,102.3z M113.1,98.6c0,0-0.1,0-0.2,0.1c-0.1,0-0.2,0-0.3,0l-1.7-0.2c-0.1,0-0.2,0-0.3-0.1
						c-0.1,0-0.1-0.1-0.2-0.1c-0.1,0-0.1,0-0.1,0.1l-0.1,1.2c0,0.1,0,0.2,0.1,0.2c0.1,0,0.5,0.1,0.5,0.1c0.1,0,0.1,0,0.2-0.1
						c0-0.1-0.1-0.1-0.2-0.2c-0.1-0.1-0.1-0.2-0.1-0.3l0-0.1c0-0.1,0.1-0.2,0.2-0.2c0,0,1.7,0.2,1.8,0.2c0.1,0,0.2,0,0.3,0.1
						c0.1,0,0.1,0.1,0.1,0.1c0.1,0,0.1,0,0.1-0.1l0.1-0.6C113.2,98.6,113.2,98.6,113.1,98.6L113.1,98.6z M90.4,88.1
						c0.1,0.1,0.2,0.1,0.2,0.2l1.1,1.4c0.1,0.1,0.2,0.2,0.2,0.3c0,0.1,0,0.1,0.1,0.2c0,0.1,0.1,0.1,0.2,0l0.4-0.4c0,0,0-0.1,0-0.1
						c0,0,0-0.1-0.1-0.1c0,0-0.1,0-0.2-0.1c-0.1,0-0.2-0.1-0.3-0.2l-1.1-1.3c-0.1-0.1-0.1-0.2-0.2-0.3c0-0.1,0-0.1,0-0.2
						c0,0,0-0.1-0.1-0.1s-0.1,0-0.1,0l-0.4,0.4c0,0-0.1,0-0.1,0.1c0,0,0,0.1,0,0.1C90.3,88,90.3,88,90.4,88.1L90.4,88.1z M87.9,91.3
						c0.1,0,0.2,0.1,0.3,0.1l1.5,0.9c0.1,0,0.2,0.1,0.3,0.2c0.1,0.1,0.1,0.1,0.1,0.1c0.1,0.1,0.1,0,0.2,0l0.3-0.5c0,0,0-0.1,0-0.1
						c0,0,0-0.1-0.1-0.1c0,0-0.1,0-0.2,0c-0.1,0-0.2,0-0.3-0.1l-1.5-0.9c-0.1,0-0.2-0.1-0.3-0.2c0-0.1-0.1-0.1-0.1-0.2
						c-0.1-0.1-0.1,0-0.2,0l-0.3,0.5c0,0.1,0,0.1,0.1,0.2C87.8,91.3,87.8,91.3,87.9,91.3z M88.5,99.6c0.1,0,0.2,0,0.3,0
						c0.1,0,0.1,0.1,0.2,0.1c0.1,0,0.1-0.1,0.1-0.1l-0.1-0.5c0-0.1-0.1-0.1-0.1-0.1c0,0-0.1,0.1-0.1,0.1c-0.1,0.1-0.2,0.1-0.3,0.1
						l-1.2,0.2c-0.1,0-0.1-0.1,0-0.1c0.6-0.2,1.1-0.4,1.7-0.6c0.2-0.1,0.1-0.1,0.1-0.1c0-0.1-0.1-0.1-0.2-0.1
						c-0.6-0.1-1.1-0.3-1.7-0.4C87,98,87,98,87.1,98l1.2,0c0.1,0,0.2,0,0.3,0c0.1,0,0.1,0.1,0.2,0.1C89,98,89,98,89,97.9l0-0.6
						c0-0.1-0.1-0.1-0.1-0.1c0,0-0.1,0.1-0.1,0.1c-0.1,0.1-0.2,0.1-0.3,0.1l-1.8,0c-0.1,0-0.2,0-0.3,0c-0.1,0-0.1-0.1-0.2-0.1
						c-0.1,0-0.1,0.1-0.1,0.1l0,0.5c0,0.1,0,0.2,0.1,0.2c0.1,0,1.5,0.4,1.5,0.4c0,0,0.1,0.1,0,0.1c-0.1,0-1.4,0.4-1.5,0.4
						c-0.1,0-0.1,0.1-0.1,0.2l0.1,0.7c0,0.1,0.1,0.1,0.1,0.1c0,0,0.1-0.1,0.1-0.1c0.1-0.1,0.2-0.1,0.3-0.1L88.5,99.6z M106.1,109.3
						c-0.1-0.1-0.2-0.2-0.2-0.3l-0.9-1.5c-0.1-0.2-0.2-0.3-0.1-0.4c0,0,0.1,0,0.2,0.1c0.1,0.2,0.2,0.2,0.4,0.1
						c0.2-0.1,0.2-0.3,0.1-0.4c-0.1-0.1-0.2-0.2-0.4-0.2c-0.2,0-0.3,0-0.4,0.1c-0.4,0.2-0.3,0.8-0.2,1.1c0,0,0.8,1.3,0.8,1.4
						c0.1,0.1,0.1,0.2,0.1,0.3c0,0.1,0,0.1,0,0.2c0,0,0,0.1,0.1,0.1c0,0,0.1,0,0.1,0l0.5-0.3c0,0,0.1,0,0.1-0.1c0,0,0-0.1,0-0.1
						C106.3,109.4,106.2,109.4,106.1,109.3z M112.6,96c-0.3-0.1-0.6-0.2-0.9-0.2c-0.4,0-0.7,0.1-1,0.3c-0.3,0.2-0.5,0.5-0.5,0.9
						c0,0.2,0,0.4,0.2,0.7c0,0.1,0.1,0.1,0.2,0.1c0.1,0,0.1,0,0.2,0c0.1,0,0.2,0,0.3,0c0.1,0,0.3,0,0.4,0c0.1,0,0.3,0.1,0.3-0.2
						c0-0.1,0-0.3,0-0.4c0-0.1,0-0.1-0.1-0.1c-0.1,0-0.1,0-0.1,0.1c-0.1,0.1-0.2,0.1-0.3,0.1c-0.3,0-0.5-0.1-0.5-0.3
						c0-0.3,0.4-0.5,1.1-0.6c0.6,0,1.3,0.1,1.3,0.5c0,0.4-0.3,0.4-0.5,0.5c-0.1,0-0.2,0.1-0.2,0.2c0,0.1,0.1,0.1,0.2,0.1
						c0.1,0,0.2,0,0.5,0c0.1,0,0.2-0.1,0.2-0.2c0-0.1,0-0.1,0-0.2c0.1-0.1,0.1-0.3,0.1-0.4C113.2,96.5,113,96.2,112.6,96
						C112.6,96,112.6,96,112.6,96z M109.8,106.3c-0.1-0.1-0.2-0.1-0.3-0.2l-1.3-1.2c-0.1-0.1-0.2-0.1-0.2-0.2c0-0.1,0-0.1-0.1-0.2
						c0,0-0.1,0-0.1,0c0,0-0.1,0-0.1,0.1l-0.4,0.5c-0.3,0.2-0.4,0.6-0.4,0.9c0.1,0.4,0.3,0.8,0.6,1c0.4,0.4,0.9,0.5,1.4,0.4
						c0.3-0.1,0.5-0.2,0.7-0.5l0.3-0.4c0,0,0-0.1,0-0.1c0,0,0-0.1,0-0.1C109.9,106.3,109.9,106.3,109.8,106.3z M109.3,106.9
						c-0.2,0.2-0.8,0-1.2-0.4c-0.6-0.6-0.7-1-0.4-1.3c0.1-0.1,0.1-0.1,0.3,0l1.4,1.3C109.4,106.7,109.4,106.8,109.3,106.9
						L109.3,106.9z M86.8,93.9c0.1,0,0.3,0,0.4,0l1.6,0.6c0.1,0,0.2,0.1,0.3,0.1c0.1,0.1,0.1,0.1,0.1,0.1c0,0,0.1,0,0.1,0
						c0,0,0.1,0,0.1-0.1l0.2-0.6c0.1-0.3,0.1-0.6,0-1c-0.2-0.4-0.5-0.6-0.9-0.7c-0.5-0.2-1-0.1-1.4,0.2c-0.2,0.2-0.4,0.4-0.4,0.7
						l-0.2,0.5c0,0.1,0,0.1,0.1,0.2C86.7,94,86.7,93.9,86.8,93.9L86.8,93.9z M87.1,93.1c0.1-0.3,0.7-0.4,1.3-0.2
						c0.8,0.3,1.1,0.6,0.9,1c0,0.1-0.1,0.1-0.3,0.1l-1.8-0.6C87.1,93.4,87.1,93.3,87.1,93.1z M103.8,107.8c-0.3-0.2-0.5-0.2-0.8-0.1
						c-0.3,0.1-0.5,0.3-0.6,0.6c-0.1,0.4-0.1,0.8,0.1,1.2c0.1,0.4,0.4,0.7,0.7,1c0.3,0.2,0.5,0.2,0.8,0.1c0.3-0.1,0.5-0.3,0.6-0.6
						c0.1-0.4,0.1-0.8-0.1-1.2C104.4,108.4,104.1,108.1,103.8,107.8L103.8,107.8z M103.9,110.3c-0.3,0.1-0.6-0.2-0.8-0.9
						c-0.2-0.6-0.3-1.2,0-1.3c0.3-0.1,0.5,0.1,0.8,0.9C104.2,109.8,104.2,110.2,103.9,110.3z M90.6,103.3c-0.2-0.3-0.4-0.4-0.7-0.4
						c-0.4,0-0.8,0.1-1.2,0.3c-0.4,0.2-0.6,0.5-0.8,0.9c-0.1,0.3-0.1,0.6,0.1,0.8c0.2,0.3,0.4,0.4,0.7,0.4c0.4,0,0.8-0.1,1.2-0.3
						c0.4-0.2,0.6-0.5,0.8-0.9C90.8,103.8,90.8,103.6,90.6,103.3z M89.6,104.5c-0.7,0.4-1.1,0.6-1.3,0.3c-0.2-0.3,0.1-0.6,0.7-1.1
						c0.5-0.4,1.1-0.6,1.3-0.3C90.5,103.7,90.4,104,89.6,104.5C89.6,104.5,89.6,104.5,89.6,104.5z M101.9,110.5
						c0-0.4-0.1-0.8-0.1-1.2c-0.1-0.8-0.4-1.2-1-1.1c-0.6,0-0.8,0.4-0.7,1.2c0,0.6,0.1,0.9,0.1,1.2c0,0.1,0,0.3,0,0.4
						c0,0.1-0.1,0.1-0.1,0.2c0,0.1,0.1,0.1,0.1,0.1l0.4,0c0.1,0,0.1-0.1,0.1-0.1c0,0-0.1-0.1-0.1-0.1c-0.1-0.1-0.1-0.2-0.1-0.3
						c0,0-0.1-0.6-0.2-1.3c-0.1-0.6,0-0.8,0.3-0.9c0.3,0,0.5,0.2,0.5,0.9c0,0.2,0.1,0.7,0.1,1c0,0.1,0,0.3,0,0.4
						c0,0.1-0.1,0.1-0.1,0.2c0,0.1,0.1,0.1,0.1,0.1l0.6-0.1c0.1,0,0.1-0.1,0.1-0.1c0,0-0.1-0.1-0.1-0.1
						C101.9,110.7,101.9,110.6,101.9,110.5L101.9,110.5z M89.7,90.8c0.4,0.3,0.8,0.4,1.2,0.4c0.3,0,0.5-0.1,0.6-0.3
						c0.2-0.3,0.2-0.6,0.1-0.9c0-0.1-0.1-0.2-0.2-0.1c-0.1,0-0.1,0.1-0.1,0.2c0,0.2,0,0.3-0.1,0.5c-0.2,0.3-0.7,0.2-1.3-0.3
						c-0.5-0.4-0.8-0.9-0.6-1.2c0.1-0.1,0.2-0.2,0.5-0.1c0.1,0.1,0.2,0.1,0.3,0c0,0,0-0.1-0.1-0.2l-0.4-0.4c0,0-0.1,0-0.1,0
						s-0.1,0-0.1,0.1c0,0.1-0.1,0.2-0.2,0.2c-0.1,0-0.2,0.1-0.3,0.2c-0.1,0.2-0.2,0.4-0.2,0.6s0,0.4,0.2,0.6
						C89.2,90.4,89.4,90.6,89.7,90.8L89.7,90.8z"/>
				</g>
				<g id="g337" transform="matrix(3.1240375,-0.07755011,0.07755011,3.1240375,170.16403,454.09918)">
					<path id="path339" class="st18" d="M107.7,92.7c0,0.2-0.1,0.2-0.2,0.2c-0.2,0-0.2-0.1-0.2-0.2c0-0.2,0.1-0.2,0.2-0.2
						C107.6,92.5,107.7,92.6,107.7,92.7z"/>
				</g>
				<g id="g341" transform="matrix(3.1231287,-0.10813429,0.10813429,3.1231287,168.08784,454.63232)">
					<path id="path343" class="st18" d="M104.1,110.3c0,0.2-0.1,0.2-0.2,0.2c-0.2,0-0.2-0.1-0.2-0.2s0.1-0.2,0.2-0.2
						C104,110.1,104.1,110.2,104.1,110.3z"/>
				</g>
				<g id="g345" transform="matrix(3.1233163,-0.10257421,0.10257421,3.1233163,168.3644,452.8501)">
					<path id="path347" class="st18" d="M88.2,108.6c0,0.2-0.1,0.2-0.2,0.2s-0.2-0.1-0.2-0.2c0-0.2,0.1-0.2,0.2-0.2
						S88.2,108.4,88.2,108.6z"/>
				</g>
				<g id="g349" transform="matrix(3.1231229,-0.10829781,0.10829781,3.1231229,168.78564,452.58142)">
					<path id="path351" class="st18" d="M85.2,103.5c0,0.2-0.1,0.2-0.2,0.2c-0.2,0-0.2-0.1-0.2-0.2s0.1-0.2,0.2-0.2
						C85.1,103.3,85.2,103.4,85.2,103.5z"/>
				</g>
				<g id="g353" transform="matrix(3.125,0,0,3.125,170.83334,452.08334)">
					<path id="path355" class="st18" d="M93.1,106.5c0.1,0,0.1,0,0.2-0.1c0.1-0.1,0.1-0.1,0-0.2l-1-0.8c-0.1-0.1-0.1-0.1-0.2,0
						c-0.1,0.1-0.3,0.4-0.3,0.4c-0.1,0.1-0.1,0.1,0,0.2c0.1,0.1,0.1,0,0.3-0.1c0.1,0,0.2,0,0.3,0.1l0.1,0.1c0,0,0.1,0.1,0.1,0.1
						c0,0.1,0,0.1,0,0.1c0,0-1.1,1.3-1.2,1.4c-0.1,0.1-0.1,0.2-0.2,0.2c-0.1,0-0.1,0-0.2,0.1c0,0,0,0.1,0,0.1c0,0,0,0.1,0.1,0.1
						l0.5,0.4c0,0,0.1,0,0.1,0c0,0,0.1,0,0.1-0.1c0,0,0-0.1,0-0.2c0-0.1,0.1-0.2,0.2-0.3l1.1-1.3C93,106.6,93,106.5,93.1,106.5
						C93.1,106.5,93.1,106.5,93.1,106.5z M95.3,107.6c0,0,0-0.1,0-0.1c0,0,0-0.1-0.1-0.1l-0.4-0.2c-0.1-0.1-0.2-0.1-0.2,0
						c0,0,0,0.1,0,0.2c0,0.1-0.1,0.1-0.2,0.3c0,0-0.1,0-0.2,0c-0.1-0.1-0.3-0.2-0.4-0.3c-0.1,0-0.1-0.1-0.1-0.2
						c0.1-0.2,0-0.2,0.1-0.3c0.1-0.1,0.2,0,0.2-0.1c0-0.1,0-0.1-0.1-0.2l-0.5-0.3c0,0-0.1,0-0.1,0s-0.1,0-0.1,0.1c0,0.1,0,0.1,0,0.2
						c0,0.1,0,0.1,0,0.2c0,0.1-0.5,2.5-0.5,2.6c0,0.1,0,0.1,0,0.2c0,0,0.1,0,0.2-0.1l2-1.8C95.2,107.6,95.3,107.6,95.3,107.6
						C95.3,107.6,95.3,107.6,95.3,107.6z M94.1,108.1l-0.6,0.6c0,0,0,0,0,0l0.2-0.8c0-0.1,0-0.1,0.1,0L94.1,108.1
						C94.1,108.1,94.1,108.1,94.1,108.1C94.1,108.1,94.1,108.1,94.1,108.1L94.1,108.1z M110.3,100.3c-0.1-0.1-0.2-0.2-0.2-0.2
						c-0.1,0-0.1,0-0.1,0.1l-0.1,0.4c0,0.1,0,0.2,0.1,0.2c0,0,0.1,0,0.2,0c0.1,0,0.1,0.1,0.3,0.1c0.1,0,0.1,0.1,0,0.2
						c0,0.1-0.2,0.4-0.2,0.5c0,0.1-0.1,0.1-0.1,0.1c-0.2,0-0.2,0-0.3,0c-0.1,0-0.1-0.1-0.1-0.2c-0.1,0-0.1,0-0.1,0.1l-0.2,0.5
						c0,0,0,0.1,0,0.1c0,0,0,0.1,0.1,0.1c0.1,0,0.1,0,0.2-0.1c0.1,0,0.1,0,0.2,0c0.1,0,2.6,0,2.7,0c0.1,0,0.1,0,0.2-0.1
						c0-0.1,0-0.1-0.1-0.2L110.3,100.3z M111.6,101.6l-0.9-0.1c0,0-0.1,0,0-0.1l0.2-0.3c0,0,0,0,0,0c0,0,0,0,0,0L111.6,101.6
						C111.6,101.6,111.6,101.6,111.6,101.6L111.6,101.6z M99.5,108.3l-0.6,0c-0.1,0-0.1,0-0.1,0.1c0,0,0,0.1,0.1,0.2
						c0,0.1,0,0.2,0,0.3l-0.1,0.6c0,0.1-0.1,0.1-0.1,0c-0.1-0.1-0.3-1.1-0.4-1.1c0-0.1-0.1-0.1-0.2-0.1c-0.1,0-0.3-0.1-0.4-0.1
						c-0.1,0-0.1,0-0.1,0.1c0,0,0,0.1,0.1,0.1c0.1,0.1,0.1,0.2,0.2,0.3c0,0.1,0.2,0.8,0.3,0.9c0,0.1,0,0.1,0,0.1
						c-0.1,0-0.4,0.1-0.5,0.6c0,0.2,0,0.5,0.2,0.6c0.1,0.2,0.3,0.3,0.6,0.3l0.8,0.1c0.1,0,0.1,0,0.1-0.1c0,0,0-0.1-0.1-0.2
						c0-0.1,0-0.2,0-0.3l0.2-1.8c0-0.1,0-0.2,0.1-0.3c0-0.1,0.1-0.1,0.1-0.1C99.6,108.4,99.5,108.4,99.5,108.3z M98.6,110.7
						c0,0.1,0,0.1-0.1,0.1c-0.1,0-0.2-0.1-0.3-0.2c-0.1-0.1-0.1-0.2-0.1-0.3c0.1-0.4,0.3-0.4,0.4-0.4c0.1,0,0.1,0.1,0.1,0.1
						C98.7,110,98.6,110.6,98.6,110.7C98.6,110.7,98.6,110.7,98.6,110.7z"/>
					<path id="path357" class="st18" d="M101.2,88.2c-0.7-0.1-1.3-0.2-2-0.1s-1.3,0.1-2,0.3s-1.3,0.4-1.9,0.7s-1.2,0.7-1.7,1.1
						c-0.5,0.4-1,0.9-1.4,1.4c-0.4,0.5-0.8,1.1-1.1,1.7c-0.3,0.6-0.6,1.2-0.7,1.9c-0.2,0.7-0.3,1.3-0.3,2s0,1.4,0.1,2s0.3,1.3,0.5,2
						s0.5,1.2,0.9,1.8c0.4,0.6,0.8,1.1,1.3,1.6s1,0.9,1.6,1.3c0.6,0.4,1.2,0.7,1.8,0.9c0.6,0.2,1.3,0.4,2,0.5s1.3,0.1,2,0.1
						c0.7,0,1.3-0.1,2-0.3c0.7-0.2,1.3-0.4,1.9-0.7c0.6-0.3,1.2-0.7,1.7-1.1c0.5-0.4,1-0.9,1.4-1.4c0.4-0.5,0.8-1.1,1.1-1.7
						c0.3-0.6,0.5-1.2,0.7-1.9c0.2-0.7,0.3-1.3,0.3-2c0-0.7,0-1.4-0.1-2c-0.2-1-0.5-1.9-0.9-2.8c-0.5-0.9-1-1.7-1.7-2.4
						s-1.5-1.3-2.4-1.7C103.2,88.7,102.2,88.4,101.2,88.2L101.2,88.2z M101.2,106.9c-0.6,0.1-1.3,0.2-2,0.1c-0.7,0-1.3-0.1-1.9-0.3
						c-0.6-0.2-1.3-0.4-1.8-0.7c-0.6-0.3-1.1-0.6-1.7-1.1c-0.5-0.4-1-0.9-1.4-1.4s-0.8-1.1-1.1-1.6c-0.3-0.6-0.5-1.2-0.7-1.8
						c-0.2-0.6-0.3-1.3-0.3-1.9s0-1.3,0.1-2s0.3-1.3,0.5-1.9s0.5-1.2,0.9-1.8s0.8-1.1,1.2-1.5c0.5-0.5,1-0.9,1.5-1.2
						c0.6-0.4,1.1-0.7,1.7-0.9c0.6-0.2,1.2-0.4,1.9-0.5c0.6-0.1,1.3-0.1,2-0.1c0.7,0,1.3,0.1,1.9,0.3c0.6,0.2,1.2,0.4,1.8,0.7
						c0.6,0.3,1.1,0.7,1.6,1.1s1,0.9,1.4,1.4c0.4,0.5,0.8,1.1,1.1,1.7s0.5,1.2,0.7,1.8c0.2,0.6,0.3,1.3,0.3,1.9c0,0.7,0,1.3-0.1,2
						c-0.2,0.9-0.5,1.9-0.9,2.7c-0.4,0.9-1,1.6-1.7,2.3s-1.4,1.2-2.3,1.7C103,106.4,102.1,106.7,101.2,106.9L101.2,106.9z"/>
					<path id="path359" class="st18" d="M101.6,82.9c-1-0.1-2.1-0.2-3.1-0.1s-2,0.3-3,0.5c-1,0.3-1.9,0.7-2.9,1.2
						c-0.9,0.5-1.8,1.1-2.6,1.7s-1.5,1.4-2.1,2.2s-1.2,1.7-1.6,2.6C85.8,92,85.4,93,85.2,94c-0.3,1-0.4,2-0.5,3c0,1,0,2.1,0.2,3.1
						c0.2,1,0.4,2,0.8,3s0.8,1.9,1.4,2.7s1.2,1.7,1.9,2.4c0.7,0.7,1.5,1.4,2.4,1.9s1.8,1,2.7,1.4c1,0.4,2,0.6,3,0.8s2,0.2,3.1,0.2
						c1,0,2-0.2,3.1-0.5s2-0.6,2.9-1.1c0.9-0.5,1.8-1,2.6-1.6c0.8-0.6,1.6-1.4,2.2-2.1c0.7-0.8,1.2-1.6,1.7-2.6
						c0.5-0.9,0.9-1.9,1.2-2.9c0.3-1,0.5-2,0.6-3c0.1-1,0.1-2.1-0.1-3.1c-0.1-0.8-0.3-1.6-0.5-2.4c-0.2-0.8-0.5-1.5-0.9-2.3
						c-0.4-0.7-0.8-1.4-1.3-2.1s-1-1.3-1.6-1.9c-0.6-0.6-1.2-1.1-1.9-1.6c-0.7-0.5-1.4-0.9-2.1-1.3c-0.7-0.4-1.5-0.7-2.3-0.9
						C103.2,83.2,102.4,83,101.6,82.9z M101.5,112.2c-1,0.1-2,0.2-3,0.1c-1-0.1-2-0.3-3-0.5c-1-0.3-1.9-0.7-2.8-1.1
						c-0.9-0.5-1.7-1-2.5-1.7c-0.8-0.6-1.5-1.4-2.1-2.2c-0.6-0.8-1.2-1.6-1.6-2.6c-0.4-0.9-0.8-1.9-1.1-2.8s-0.4-2-0.4-3s0-2,0.2-3
						c0.2-1,0.4-2,0.8-2.9c0.4-0.9,0.8-1.8,1.4-2.7c0.6-0.8,1.2-1.6,1.9-2.3c0.7-0.7,1.5-1.4,2.3-1.9c0.8-0.6,1.7-1,2.7-1.4
						c0.9-0.4,1.9-0.6,2.9-0.8s2-0.2,3-0.2c1,0,2,0.2,3,0.4c1,0.3,1.9,0.6,2.8,1s1.8,1,2.6,1.6s1.5,1.3,2.2,2.1
						c0.7,0.8,1.2,1.6,1.7,2.5c0.5,0.9,0.9,1.8,1.1,2.8s0.5,2,0.5,3c0.1,1,0.1,2-0.1,3c-0.1,0.8-0.3,1.6-0.5,2.3
						c-0.2,0.8-0.5,1.5-0.9,2.2c-0.4,0.7-0.8,1.4-1.2,2c-0.5,0.6-1,1.3-1.5,1.8c-0.6,0.6-1.2,1.1-1.8,1.5c-0.6,0.5-1.3,0.9-2,1.2
						c-0.7,0.4-1.5,0.6-2.2,0.9C103.1,111.9,102.3,112.1,101.5,112.2L101.5,112.2L101.5,112.2z"/>
					<path id="path361" class="st18" d="M99.5,81.7c-1.1,0-2.1,0.1-3.1,0.3c-1,0.2-2,0.5-3,0.9c-1,0.4-1.9,0.9-2.8,1.5
						s-1.7,1.3-2.4,2s-1.4,1.6-2,2.4c-0.6,0.9-1.1,1.8-1.5,2.8s-0.7,2-0.9,3c-0.2,1-0.3,2.1-0.3,3.1c0,1.1,0.1,2.1,0.3,3.1
						c0.2,1,0.5,2,0.9,3c0.4,1,0.9,1.9,1.5,2.8c0.6,0.9,1.3,1.7,2,2.4c0.7,0.7,1.6,1.4,2.4,2c0.9,0.6,1.8,1.1,2.8,1.5s2,0.7,3,0.9
						c1,0.2,2.1,0.3,3.1,0.3c1.1,0,2.1-0.1,3.1-0.3c1-0.2,2-0.5,3-0.9c1-0.4,1.9-0.9,2.8-1.5c0.9-0.6,1.7-1.3,2.4-2s1.4-1.6,2-2.4
						s1.1-1.8,1.5-2.8c0.4-1,0.7-2,0.9-3c0.2-1,0.3-2.1,0.3-3.1c0-1.1-0.1-2.1-0.3-3.1c-0.2-1-0.5-2-0.9-3s-0.9-1.9-1.5-2.8
						s-1.3-1.7-2-2.4c-0.7-0.7-1.6-1.4-2.4-2c-0.9-0.6-1.8-1.1-2.8-1.5c-1-0.4-2-0.7-3-0.9C101.6,81.8,100.5,81.7,99.5,81.7z
						 M110.5,108.5c-0.4,0.4-0.8,0.8-1.3,1.2c-0.5,0.4-0.9,0.7-1.4,1c-0.5,0.3-1,0.6-1.5,0.8c-0.5,0.3-1.1,0.5-1.6,0.7
						c-0.6,0.2-1.1,0.4-1.7,0.5s-1.1,0.2-1.7,0.3c-0.6,0.1-1.2,0.1-1.7,0.1c-0.6,0-1.2,0-1.7-0.1c-0.6-0.1-1.2-0.2-1.7-0.3
						c-0.6-0.1-1.1-0.3-1.7-0.5c-0.5-0.2-1.1-0.4-1.6-0.7c-0.5-0.3-1-0.6-1.5-0.9c-0.5-0.3-1-0.7-1.4-1c-0.4-0.4-0.9-0.8-1.3-1.2
						s-0.8-0.9-1.1-1.3s-0.7-1-1-1.5s-0.6-1-0.8-1.6s-0.4-1.1-0.6-1.6s-0.3-1.1-0.4-1.7c-0.1-0.6-0.2-1.2-0.2-1.7
						c0-0.6-0.1-1.2,0-1.8s0.1-1.2,0.2-1.7c0.1-0.6,0.2-1.1,0.4-1.7c0.2-0.6,0.3-1.1,0.6-1.7c0.2-0.5,0.5-1.1,0.8-1.6
						c0.3-0.5,0.6-1,0.9-1.5c0.3-0.5,0.7-0.9,1.1-1.4s0.8-0.8,1.2-1.2c0.4-0.4,0.9-0.8,1.4-1.1s1-0.6,1.5-0.9c0.5-0.3,1-0.5,1.6-0.7
						c0.5-0.2,1.1-0.4,1.7-0.6c0.6-0.2,1.1-0.3,1.7-0.4c0.6-0.1,1.2-0.1,1.7-0.2s1.2,0,1.8,0c0.6,0,1.2,0.1,1.7,0.2s1.1,0.3,1.7,0.4
						s1.1,0.4,1.6,0.6c0.5,0.2,1.1,0.5,1.6,0.8c0.5,0.3,1,0.6,1.5,1s0.9,0.7,1.3,1.1s0.8,0.8,1.2,1.3s0.7,0.9,1,1.4
						c0.3,0.5,0.6,1,0.9,1.5c0.3,0.5,0.5,1.1,0.7,1.6c0.2,0.5,0.4,1.1,0.5,1.7c0.1,0.6,0.2,1.1,0.3,1.7c0.1,0.6,0.1,1.2,0.1,1.7
						c0,2-0.4,4-1.1,5.9C113,105.4,111.9,107,110.5,108.5z"/>
					<path id="path363" class="st18" d="M97.6,86.5l0.1,0.2l0.1-0.1c0.3-0.2,0.6-0.4,0.9-0.5c0.2,0,0.2,0,0.2,0.1
						c0.1,0.1,0,0.5-0.2,0.8l-0.1,0.2l0.2,0c0.2,0,0.3,0,0.5,0l0.2,0l0.2,0c0.2,0,0.5,0,0.7,0l0.2,0l-0.1-0.2
						c-0.2-0.3-0.3-0.7-0.2-0.8c0,0,0-0.1,0.2-0.1c0.4,0.1,0.7,0.2,0.9,0.5l0.1,0.1l0.1-0.2c0.1-0.5,0.2-1,0.2-1.4l0-0.2l-0.2,0.1
						c-0.9,0.3-1.2,0.2-1.3,0.1c-0.1,0-0.1-0.1-0.1-0.2c0.1-0.2,0.1-0.4,0.3-0.6l0.1-0.2l-0.2,0l-0.1,0c-0.3,0-0.5,0-0.8,0l-0.2,0
						c-0.2,0-0.5,0-0.8,0l-0.2,0l0.1,0.1c0.1,0.2,0.2,0.4,0.3,0.7c0,0,0,0.1,0,0.1c-0.1,0.1-0.4,0.2-1.3-0.2l-0.2-0.1l0,0.2
						C97.4,85.5,97.5,86,97.6,86.5C97.6,86.5,97.6,86.5,97.6,86.5z M99,85.3c0.1-0.1,0.1-0.2,0.1-0.3c-0.1-0.2-0.1-0.4-0.2-0.6
						c0.2,0,0.4,0,0.6,0l0.2,0c0.2,0,0.5,0,0.7,0c-0.1,0.2-0.2,0.3-0.2,0.5c0,0.2,0,0.3,0.2,0.4c0.2,0.2,0.7,0.2,1.3,0
						c0,0.4-0.1,0.7-0.2,1.1c-0.3-0.2-0.6-0.4-0.9-0.4c-0.2,0-0.3,0-0.4,0.2c-0.1,0.3-0.1,0.6,0.1,0.9c-0.2,0-0.3,0-0.5,0l-0.2,0
						l-0.2,0c-0.1,0-0.2,0-0.3,0c0.1-0.2,0.2-0.6,0.1-0.9c-0.1-0.1-0.2-0.2-0.4-0.2c-0.3,0.1-0.7,0.2-0.9,0.4
						c-0.1-0.3-0.1-0.7-0.2-1.1C98.3,85.4,98.7,85.4,99,85.3C99,85.3,99,85.3,99,85.3z M103,87.6c0.1,0,0.1,0,0.2-0.1
						c0,0,0-0.1,0-0.2c0-0.1,0-0.2,0.1-0.3l0.4-1.1c0,0,0.1,0,0.1,0l0.1,1.9c0,0.1,0.1,0.1,0.2,0.2c0.1,0.1,0.2,0.1,0.3-0.1l0.8-2
						c0-0.1,0.1-0.2,0.2-0.3c0.1-0.1,0.1-0.1,0.1-0.1c0.1-0.1,0-0.1-0.1-0.2l-0.4-0.2c-0.1,0-0.1,0-0.2,0.1c0,0.1,0,0.1,0,0.2
						c0,0.1,0,0.2-0.1,0.3l-0.4,0.9c0,0.1-0.1,0-0.1,0l-0.1-1.4c0-0.2,0-0.3-0.1-0.3l-0.4-0.1c0,0-0.1,0-0.1,0c0,0-0.1,0-0.1,0.1
						c0,0,0,0.1,0,0.2c0,0.1,0,0.2-0.1,0.3l-0.7,1.7c0,0.1-0.1,0.2-0.2,0.3c-0.1,0.1-0.1,0.1-0.1,0.1c0,0,0,0.1,0,0.1s0,0.1,0.1,0.1
						C102.6,87.5,103,87.6,103,87.6z M110.1,93.8c-0.1,0-0.2,0.1-0.3,0c-0.1,0-0.1-0.1-0.2,0c-0.1,0-0.1,0.1-0.1,0.1l0.2,0.4
						c0,0.1,0.1,0.1,0.2,0.1c0,0,0.1-0.1,0.1-0.1c0.1-0.1,0.2-0.1,0.3-0.1l1.2-0.3c0,0,0.1,0,0,0.1l-1.5,1.2c-0.1,0.1,0,0.1,0,0.2
						c0,0.2,0.1,0.2,0.3,0.2l2.1-0.5c0.1,0,0.2,0,0.3,0c0.1,0,0.1,0.1,0.2,0.1c0.1,0,0.1-0.1,0.1-0.1l-0.1-0.5c0,0,0-0.1,0-0.1
						c0,0-0.1,0-0.1,0c0,0-0.1,0.1-0.1,0.1c-0.1,0.1-0.2,0.1-0.3,0.1l-0.9,0.2c-0.1,0-0.1,0,0-0.1l1.1-0.9c0.1-0.1,0.2-0.2,0.2-0.3
						l-0.1-0.4c0-0.1-0.1-0.1-0.2-0.1c0,0-0.1,0.1-0.1,0.1c-0.1,0.1-0.2,0.1-0.3,0.1L110.1,93.8z M111.4,103.8
						c-0.1,0-0.2-0.1-0.3-0.1l-1.5-0.9c-0.1,0-0.2-0.1-0.2-0.2c0-0.1-0.1-0.1-0.1-0.2c0,0-0.1,0-0.1,0c0,0-0.1,0-0.1,0.1l-0.2,0.4
						c0,0,0,0.1,0,0.1c0,0,0,0.1,0.1,0.1c0,0,0.1,0,0.2,0c0.1,0,0.2,0.1,0.3,0.1l1,0.6c0,0,0,0.1-0.1,0.1l-1.9-0.2
						c-0.1,0-0.1,0.1-0.2,0.2c-0.1,0.1-0.1,0.2,0.1,0.3l1.8,1.1c0.1,0.1,0.2,0.1,0.2,0.2c0,0.1,0.1,0.1,0.1,0.2c0.1,0.1,0.1,0,0.2,0
						l0.3-0.4c0.1-0.1,0.1-0.1,0-0.2c0,0-0.1,0-0.2,0c-0.1,0-0.2-0.1-0.3-0.2l-0.8-0.5c-0.1,0,0-0.1,0-0.1l1.4,0.1
						c0.2,0,0.3,0,0.3-0.1l0.2-0.4c0,0,0-0.1,0-0.1s0-0.1-0.1-0.1C111.6,103.8,111.5,103.8,111.4,103.8L111.4,103.8z M96.8,108
						C96.8,108,96.7,108,96.8,108c-0.1,0-0.2,0-0.2,0.1c0,0,0,0.1,0,0.2c0,0.1,0,0.2-0.1,0.3l-0.4,1.2c0,0-0.1,0-0.1,0l-0.2-1.9
						c0-0.1-0.1-0.1-0.2-0.2c-0.2-0.1-0.2-0.1-0.3,0.1l-0.7,2.1c0,0.1-0.1,0.2-0.2,0.3c-0.1,0.1-0.1,0.1-0.1,0.1
						c0,0.1,0,0.1,0.1,0.1l0.4,0.2c0.1,0.1,0.1,0,0.2-0.1c0-0.1,0-0.1,0-0.2c0-0.1,0-0.2,0.1-0.3l0.3-0.9c0-0.1,0.1,0,0.1,0l0.2,1.4
						c0,0.2,0,0.3,0.2,0.3l0.4,0.1c0.1,0,0.1,0,0.2-0.1c0,0,0-0.1,0-0.2c0-0.1,0-0.2,0.1-0.3l0.6-1.7c0-0.1,0.1-0.2,0.1-0.3
						c0.1-0.1,0.1-0.1,0.1-0.1c0,0,0-0.1,0-0.1c0,0,0-0.1-0.1-0.1L96.8,108z M91.7,87c0.1,0.1,0.2,0.2,0.2,0.2l0.9,1.5
						c0.1,0.1,0.1,0.2,0.1,0.3c0,0.1,0,0.1,0,0.2c0,0,0,0.1,0.1,0.1c0,0,0.1,0,0.1,0l0.4-0.3c0.1,0,0.1-0.1,0-0.2c0,0-0.1,0-0.2-0.1
						c-0.1-0.1-0.2-0.2-0.2-0.2l-0.6-1c0,0,0-0.1,0.1,0l1.6,1c0.1,0.1,0.1,0,0.2-0.1c0.1-0.1,0.2-0.1,0.1-0.3l-1.1-1.8
						c-0.1-0.1-0.1-0.2-0.1-0.3c0-0.1,0-0.1,0-0.2c0,0,0-0.1-0.1-0.1c0,0-0.1,0-0.1,0L92.7,86c-0.1,0-0.1,0.1,0,0.2
						c0,0,0.1,0,0.2,0.1c0.1,0.1,0.1,0.2,0.2,0.3l0.5,0.8c0,0.1,0,0.1-0.1,0.1l-1.2-0.8c-0.2-0.1-0.2-0.1-0.3-0.1l-0.3,0.2
						c-0.1,0-0.1,0.1,0,0.2C91.6,86.9,91.6,86.9,91.7,87z"/>
				</g>
			</g>
		</g>
	</g>
</g>
<polyline class="st19" points="459,51.2 301.7,51.4 237,116.1 "/>
<circle class="st4" cx="409.4" cy="285.1" r="24"/>
<polyline class="st19" points="385.9,285.1 228.6,285.3 163.9,350 "/>
<circle class="st4" cx="459" cy="51.2" r="24"/>
<path class="st20" d="M1005.4,318.9l-43.3,16.7l-63.3,24.5c-2.4-4.5-5.9-10.5-10.3-17.7c-15-24.8-39.8-63.4-61.8-97.4
	c-24.9-38.3-46.3-70.5-46.3-70.5l15.5-4.5l126.6-36.7L1005.4,318.9z"/>
<path class="st21" d="M1006.6,297.4l-43.3,16.7c-24.2,5-48.8,7.3-73.5,6.8c-15-24.8-39.8-63.4-61.8-97.4l-30.7-75l126.5-36.7
	L1006.6,297.4z"/>
<path class="st22" d="M1069.5,303c0,0-49.6,9.7-100,3.7c-19.9-2.3-40-7.2-57.2-16c-14.4-7.4-26.7-15.5-37.4-25.1
	c-34.5-31-52.7-78.6-71.5-174.7c0,0,82.4,19.9,163.9-23.7C967.2,67.2,994.6,238.6,1069.5,303z"/>
<path class="st23" d="M845.6,119.6c0,0,74,1.7,92.7-18.7l2.8,12.9c0,0-44.3,27.6-88.5,27.9L845.6,119.6z"/>
<path class="st24" d="M869.2,165.7c0,0,52.4-2.9,92-22l1.3,3.1c0,0-31.4,18.3-93.4,23.1L869.2,165.7z"/>
<path class="st24" d="M873.4,179.9c0,0,52.4-2.9,92-22l1.3,3.1c0,0-31.4,18.3-93.3,23.1L873.4,179.9z"/>
<path class="st24" d="M879.7,206.3c0,0,52.3-3.6,91.9-27.2l1.3,3.8c0,0-31.4,22.7-93.2,28.6V206.3z"/>
<path class="st24" d="M884,223.8c0,0,52.3-3.6,91.9-27.2l1.3,3.8c0,0-31.4,22.7-93.2,28.6L884,223.8z"/>
<circle class="st0" cx="1336.5" cy="142.5" r="13.8"/>
<circle class="st0" cx="1029.8" cy="141.8" r="23.1"/>
<circle class="st25" cx="851.5" cy="171.2" r="8"/>
<circle class="st25" cx="863.5" cy="211.5" r="8"/>
<circle class="st0" cx="884" cy="55.5" r="23.1"/>
</svg>
