<svg xmlns="http://www.w3.org/2000/svg" xmlns:xlink="http://www.w3.org/1999/xlink" width="320" height="200" viewBox="0 0 320 200">
  <defs>
    <clipPath id="clip-path">
      <path d="M132,97.88c-26.51,0-48,20.2-48,45.12s21.49,45.12,48,45.12,48-20.2,48-45.12S158.51,97.88,132,97.88Zm0,59.22c-8.284,0-15-6.313-15-14.1s6.716-14.1,15-14.1,15,6.313,15,14.1S140.284,157.1,132,157.1Z" fill="#ddd"/>
    </clipPath>
  </defs>
  <g style="isolation: isolate">
    <g>
      <g>
        <g>
          <rect x="46" y="66" width="32" height="124" rx="2" ry="2" fill="#2970ff"/>
          <rect x="50" y="82" width="24" height="14" fill="#2970ff" opacity="0.4" style="mix-blend-mode: multiply"/>
          <rect x="50" y="98" width="24" height="14" fill="#2970ff" opacity="0.4" style="mix-blend-mode: multiply"/>
          <rect x="142" width="40" height="190" rx="1.902" ry="1.902" fill="#4d4dff"/>
          <rect x="144" y="32" width="36" height="4" rx="2" ry="2" fill="#3939b2"/>
          <rect x="144" y="68" width="36" height="4" rx="2" ry="2" fill="#3939b2"/>
          <rect x="114" y="34" width="28" height="156" rx="2" ry="2" fill="#e52e3d"/>
          <rect x="244" y="90" width="28" height="100" rx="2" ry="2" fill="#4d4dff"/>
          <rect x="196" y="24" width="26" height="166" rx="2" ry="2" fill="#5ce5e5"/>
          <rect x="182" y="12" width="14" height="178" rx="1.957" ry="1.957" fill="#2970ff"/>
          <rect x="94" y="16" width="20" height="174" rx="2" ry="2" fill="#999"/>
          <rect x="98" y="30" width="12" height="48" fill="#c6ba1a"/>
          <rect x="126" y="50" width="4" height="14" rx="2" ry="2" fill="#fff" opacity="0.4"/>
          <rect x="126" y="68" width="4" height="14" rx="2" ry="2" fill="#fff" opacity="0.4"/>
          <g>
            <g>
              <rect x="166" y="52" width="96" height="138" rx="4" ry="4" fill="#ddd"/>
              <rect x="176.268" y="66.995" width="76" height="102" fill="#f6f6f6"/>
            </g>
            <rect x="184" y="160" width="24" height="2" fill="#bbb"/>
            <rect x="184" y="156" width="60" height="2" fill="#bbb"/>
            <rect x="184" y="152" width="60" height="2" fill="#bbb"/>
            <rect x="184" y="148" width="60" height="2" fill="#bbb"/>
            <rect x="184" y="144" width="46" height="2" fill="#bbb"/>
            <rect x="184" y="140" width="60" height="2" fill="#bbb"/>
            <rect x="184" y="136" width="60" height="2" fill="#bbb"/>
            <rect x="184" y="132" width="60" height="2" fill="#bbb"/>
            <rect x="184" y="128" width="60" height="2" fill="#bbb"/>
            <rect x="184" y="124" width="60" height="2" fill="#bbb"/>
            <rect x="184" y="120" width="60" height="2" fill="#bbb"/>
            <rect x="184" y="116" width="60" height="2" fill="#bbb"/>
            <rect x="184" y="112" width="60" height="2" fill="#bbb"/>
            <rect x="198" y="102" width="32" height="2" fill="#bbb"/>
          </g>
          <g>
            <path d="M62,76H214a0,0,0,0,1,0,0V178a12,12,0,0,1-12,12H74a12,12,0,0,1-12-12V76A0,0,0,0,1,62,76Z" fill="#222"/>
            <polygon points="102 110 86 110 94 94 110 94 102 110" fill="#f6f6f6"/>
            <polygon points="134 110 118 110 126 94 142 94 134 110" fill="#f6f6f6"/>
            <polygon points="166 110 150 110 158 94 174 94 166 110" fill="#f6f6f6"/>
            <polygon points="198 110 182 110 190 94 206 94 198 110" fill="#f6f6f6"/>
            <polygon points="102 76 86 76 94 92 110 92 102 76" fill="#f6f6f6"/>
            <polygon points="134 76 118 76 126 92 142 92 134 76" fill="#f6f6f6"/>
            <polygon points="166 76 150 76 158 92 174 92 166 76" fill="#f6f6f6"/>
            <polygon points="198 76 182 76 190 92 206 92 198 76" fill="#f6f6f6"/>
            <circle cx="70" cy="84" r="2" fill="#333"/>
          </g>
          <g>
            <path d="M132,96c-27.614,0-50,21.043-50,47s22.386,47,50,47,50-21.043,50-47S159.614,96,132,96Zm0,61.1c-8.284,0-15-6.313-15-14.1s6.716-14.1,15-14.1,15,6.313,15,14.1S140.284,157.1,132,157.1Z" fill="#fff" opacity="0.3"/>
            <path d="M132,128.9c-8.284,0-15,6.313-15,14.1s6.716,14.1,15,14.1,15-6.313,15-14.1S140.284,128.9,132,128.9Zm0,19.975A5.886,5.886,0,1,1,138.25,143,6.071,6.071,0,0,1,132,148.875Z" fill="#fff" opacity="0.3"/>
            <g>
              <path d="M132,97.88c-26.51,0-48,20.2-48,45.12s21.49,45.12,48,45.12,48-20.2,48-45.12S158.51,97.88,132,97.88Zm0,59.22c-8.284,0-15-6.313-15-14.1s6.716-14.1,15-14.1,15,6.313,15,14.1S140.284,157.1,132,157.1Z" fill="#ddd"/>
              <g clip-path="url(#clip-path)">
                <polygon points="132 143 98.232 94.122 132 84.72 132 143" fill="#f6f6f6" opacity="0.5"/>
                <polygon points="132 143 165.768 191.878 132 201.28 132 143" fill="#f6f6f6" opacity="0.5"/>
              </g>
            </g>
          </g>
          <g>
            <path d="M222,136H142a2,2,0,0,0-2,2v50a2,2,0,0,0,2,2h80a2,2,0,0,0,2-2V138A2,2,0,0,0,222,136Zm-60,52a2,2,0,1,1,2-2A2,2,0,0,1,162,188Zm1-22a5,5,0,1,1,5-5A5,5,0,0,1,163,166Zm9,18.5a1.5,1.5,0,0,1-1.5,1.5H169.5a1.5,1.5,0,0,1-1.5-1.5V183.5a1.5,1.5,0,0,1,1.5-1.5H170.5a1.5,1.5,0,0,1,1.5,1.5Zm0-18.5V156h20v10Zm24,18.5a1.5,1.5,0,0,1-1.5,1.5H193.5a1.5,1.5,0,0,1-1.5-1.5V183.5a1.5,1.5,0,0,1,1.5-1.5H194.5a1.5,1.5,0,0,1,1.5,1.5Zm6,3.5a2,2,0,1,1,2-2A2,2,0,0,1,202,188Zm-1-22a5,5,0,1,1,5-5A5,5,0,0,1,201,166Z" fill="#444"/>
            <path d="M208.167,178.017H155.833L153.006,190h57.988ZM162,188a2,2,0,1,1,2-2A2,2,0,0,1,162,188Zm10-3.5a1.5,1.5,0,0,1-1.5,1.5H169.5a1.5,1.5,0,0,1-1.5-1.5V183.5a1.5,1.5,0,0,1,1.5-1.5H170.5a1.5,1.5,0,0,1,1.5,1.5Zm24,0a1.5,1.5,0,0,1-1.5,1.5H193.5a1.5,1.5,0,0,1-1.5-1.5V183.5a1.5,1.5,0,0,1,1.5-1.5H194.5a1.5,1.5,0,0,1,1.5,1.5Zm6,3.5a2,2,0,1,1,2-2A2,2,0,0,1,202,188Z" fill="#555"/>
            <path d="M148,140.073,144,144v32.073h76V143.986l-4-3.913ZM163,166a5,5,0,1,1,5-5A5,5,0,0,1,163,166Zm29,0H172V156h20Zm9,0a5,5,0,1,1,5-5A5,5,0,0,1,201,166Z" fill="#3abd57"/>
            <polygon points="148 140 144 144 144 152 219.881 152 220 144 216 140 148 140" fill="#f6f6f6"/>
            <path d="M185.438,166a22.523,22.523,0,0,0,0-10H172v10Z" fill="#222"/>
            <path d="M201,154H163a7,7,0,0,0,0,14h38a7,7,0,0,0,0-14Zm-38,12a5,5,0,1,1,5-5A5,5,0,0,1,163,166Zm29,0H172V156h20Zm9,0a5,5,0,1,1,5-5A5,5,0,0,1,201,166Z" fill="#444"/>
          </g>
        </g>
        <rect y="190" width="320" height="10" fill="#ca9e67"/>
      </g>
    </g>
  </g>
</svg>
