<svg xmlns="http://www.w3.org/2000/svg" xmlns:xlink="http://www.w3.org/1999/xlink">
	<symbol id="pencil" viewBox="0 0 28 28">
		<path fill="currentColor" d="M26.646,3.939,24.061,1.354a1.5,1.5,0,0,0-2.122,0L19.646,3.646l-15,15a.534.534,0,0,0-.093.13l-4,8a.5.5,0,0,0,.093.578.5.5,0,0,0,.578.093l8-4a.534.534,0,0,0,.13-.093l15-15,2.292-2.293A1.5,1.5,0,0,0,26.646,3.939ZM8.7,22.589,3.961,24.961l-.922-.922L5.411,19.3,20,4.707,21.293,6,6.646,20.646l.708.708L22,6.707,23.293,8ZM25.939,5.354,24,7.293,20.707,4l1.939-1.939a.5.5,0,0,1,.708,0l2.585,2.585A.5.5,0,0,1,25.939,5.354Z"/>
	</symbol>
	<use xlink:href="#pencil" viewBox="0 0 16 16"/>
</svg>
